<?xml version="1.0" encoding="utf-8"?>
<!-- Generator: Adobe Illustrator 16.0.0, SVG Export Plug-In . SVG Version: 6.00 Build 0)  -->
<!DOCTYPE svg PUBLIC "-//W3C//DTD SVG 1.1//EN" "http://www.w3.org/Graphics/SVG/1.1/DTD/svg11.dtd">
<svg version="1.1" id="Calque_1" xmlns="http://www.w3.org/2000/svg" xmlns:xlink="http://www.w3.org/1999/xlink" x="0px" y="0px"
	 width="30.295px" height="34.553px" viewBox="0 0 30.295 34.553" enable-background="new 0 0 30.295 34.553" xml:space="preserve">
<g>
	<defs>
		<rect id="SVGID_1_" y="0" width="30.295" height="34.553"/>
	</defs>
	<clipPath id="SVGID_2_">
		<use xlink:href="#SVGID_1_"  overflow="visible"/>
	</clipPath>
	<path clip-path="url(#SVGID_2_)" fill="#231F20" d="M23.142,1.624c-0.026-0.363-0.377-0.475-0.292-0.83
		c0.049-0.199,0.304-0.567,0.081-0.739c-0.309-0.238-0.475,0.364-0.537,0.553c-0.237,0.705-1.273,0.65-1.896,0.677
		c-0.941,0.042-1.887,0.008-2.828-0.041c-1.038-0.054-2.074-0.131-3.108-0.233c-1.348-0.134-2.686-0.341-4.036-0.446
		c-0.674-0.052-1.353-0.098-2.029-0.08C8.38,0.488,8.267,0.497,8.152,0.506C7.671,0.444,7.688,0.66,7.688,0.66
		C7.631,0.759,9.082,1.023,9.171,1.037c0.777,0.126,1.562,0.244,2.345,0.327c0.503,0.054,1.004,0.175,1.505,0.251
		c0.423,0.064,0.849,0.117,1.276,0.153c0.79,0.065,1.583,0.07,2.375,0.082c0.803,0.013,1.606,0.021,2.41,0.002
		c0.613-0.015,1.226-0.044,1.839-0.065c0.271-0.01,0.543-0.008,0.813-0.035c0.011-0.001,0.021-0.002,0.031-0.003l-0.271,0.685
		c-0.129,0.098-0.378,0.099-0.53,0.118c-0.353,0.044-0.709,0.071-1.064,0.094c-0.894,0.059-1.788,0.092-2.684,0.124
		c-0.552,0.019-1.105,0.052-1.656,0.045c-0.348-0.004-0.705-0.087-1.053-0.114c-0.291-0.022-0.582-0.032-0.876-0.027
		c-0.613,0.01-1.229,0.041-1.843,0.078c-0.604,0.035-1.207,0.097-1.809,0.159C9.503,2.96,9.029,3.007,8.556,3.067
		C8.352,3.094,8.148,3.127,7.944,3.15C7.937,3.151,7.929,3.152,7.919,3.152C6.983,3.228,6.966,3.613,6.966,3.613
		c0.014,0.168,4.28-0.098,4.28-0.098c2.775,0.106,10.057-0.522,10.057-0.522L20.79,4.099c-0.084,0.103-0.389,0.113-0.506,0.135
		c-0.371,0.07-0.745,0.121-1.116,0.173c-0.912,0.127-1.826,0.244-2.741,0.342c-1.346,0.143-2.704,0.166-4.053,0.225
		C11.318,5.02,10.27,5.111,9.222,5.233c-0.193,0.023-0.388,0.036-0.58,0.059C5.964,5.625,5.766,6.204,5.766,6.204
		c0.002-0.003,0.178,0.012,0.197,0.011c0.202-0.011,0.404-0.03,0.605-0.05c0.549-0.053,1.097-0.11,1.645-0.174
		c0.3-0.034,0.591-0.084,0.895-0.089c0.333-0.004,0.667,0.016,1,0.003c0.434-0.017,0.869-0.055,1.304-0.091
		c0.922-0.072,1.842-0.184,2.763-0.286c0.96-0.105,1.918-0.234,2.877-0.355c0.772-0.098,1.544-0.203,2.316-0.31
		c0.356-0.049,0.717-0.09,1.072-0.15c0.007-0.001,0.013-0.003,0.021-0.004l-0.42,1.102c-0.103,0.089-0.36,0.084-0.485,0.102
		c-0.354,0.051-0.71,0.09-1.066,0.129c-0.914,0.1-1.829,0.184-2.745,0.265c-0.511,0.045-1.021,0.099-1.534,0.131
		c-0.328,0.022-0.678-0.036-1.009-0.044c-0.336-0.009-0.671-0.008-1.006,0.005c-0.66,0.027-1.317,0.103-1.97,0.201
		C9.611,6.691,9,6.797,8.391,6.914c-0.463,0.09-0.925,0.188-1.383,0.297C6.819,7.256,6.63,7.304,6.444,7.351
		C6.433,7.353,6.42,7.356,6.411,7.359c-0.7,0.208-0.429,0.426-0.429,0.426C5.932,8.04,9.756,7.43,9.756,7.43
		c2.795-0.139,10.038-1.132,10.038-1.132L19.444,7.2c-0.126,0.135-0.447,0.159-0.612,0.189c-0.416,0.075-0.837,0.128-1.256,0.175
		C16.529,7.685,15.48,7.76,14.43,7.839c-0.851,0.063-1.706,0.083-2.559,0.134c-0.69,0.041-1.364,0.149-2.032,0.325
		c-0.686,0.181-1.363,0.405-2.03,0.649c-0.518,0.19-1.028,0.4-1.533,0.624c-0.224,0.1-0.448,0.199-0.667,0.308
		C5.6,9.883,5.591,9.888,5.583,9.892c-2.534,1.07-2.423,1.283-2.423,1.283c-0.08,0.172,3.097-1.04,3.097-1.04
		C6.891,9.809,7.61,9.621,8.294,9.434c0.778-0.213,1.562-0.402,2.348-0.581c0.717-0.162,1.489-0.214,2.223-0.237
		c0.666-0.022,1.327-0.043,1.99-0.123c0.672-0.081,1.341-0.187,2.012-0.281c0.518-0.071,1.034-0.146,1.548-0.241
		c0.229-0.042,0.455-0.1,0.685-0.128c0.008-0.002,0.017-0.002,0.024-0.004l-0.368,0.847c-0.076,0.113-0.346,0.152-0.46,0.18
		c-0.337,0.087-0.68,0.151-1.021,0.215c-0.879,0.163-1.764,0.295-2.649,0.423c-0.464,0.068-0.925,0.159-1.392,0.216
		c-0.449,0.055-0.889,0.032-1.34,0.043c-0.298,0.007-0.595,0.02-0.892,0.045c-0.565,0.046-1.124,0.139-1.674,0.272
		c-0.899,0.216-1.785,0.507-2.654,0.818c-0.168,0.06-0.329,0.128-0.492,0.198c-2.276,1.166-3.272,2.463-3.272,2.463
		c-0.307,0.414,0.005,0.187,0.005,0.187c0.563-0.582,1.196-1.133,1.899-1.542c0.765-0.446,1.574-0.711,2.449-0.824
		c0.784-0.102,1.557-0.276,2.334-0.414c0.653-0.117,1.306-0.233,1.959-0.348c0.129-0.023,0.258-0.046,0.388-0.068
		c2.112-0.363,6.529-1.254,6.529-1.254l-0.327,1.005c-0.038,0.084-0.178,0.132-0.254,0.166c-0.167,0.074-0.342,0.135-0.519,0.191
		c-0.348,0.114-0.696,0.236-1.055,0.319c-0.367,0.085-0.742,0.089-1.113,0.156c-0.24,0.042-0.472,0.119-0.709,0.173
		c-0.294,0.066-0.589,0.133-0.882,0.205c-0.59,0.14-1.178,0.293-1.762,0.461c-1.162,0.336-2.305,0.743-3.412,1.231
		c-0.993,0.438-1.959,0.938-2.886,1.504c-0.609,0.372-1.22,0.768-1.764,1.233c-0.057,0.05-0.499,0.402-0.288,0.436
		c0.111,0.018,0.292-0.094,0.387-0.137c0.231-0.103,0.456-0.219,0.682-0.338c0.678-0.353,1.352-0.721,2.037-1.068
		c0.883-0.446,1.781-0.863,2.698-1.239c1.058-0.433,2.136-0.812,3.227-1.155c1.194-0.376,2.402-0.709,3.61-1.035
		c0.397-0.106,0.796-0.212,1.194-0.316c0.111-0.029,0.225-0.062,0.339-0.084c0.011-0.002,0.098-0.008,0.105-0.016
		c-0.056,0.068-0.396,0.905-0.396,0.905c-0.094,0.132-0.334,0.209-0.474,0.265c-0.316,0.13-0.643,0.243-0.968,0.352
		c-0.793,0.264-1.598,0.491-2.402,0.723c-0.739,0.214-1.493,0.372-2.239,0.563c-0.62,0.159-1.219,0.39-1.813,0.626
		c-0.62,0.246-1.234,0.509-1.84,0.787c-0.494,0.226-0.985,0.457-1.472,0.697c-0.217,0.108-0.432,0.216-0.648,0.326
		c-0.008,0.004-0.015,0.008-0.023,0.012c-0.96,0.454-1.869,1.047-2.736,1.657c-0.077,0.056-0.157,0.11-0.235,0.163
		c-0.063,0.044-0.134,0.112-0.181,0.17c0.517-0.092,1.02-0.354,1.503-0.553c0.685-0.285,1.365-0.58,2.045-0.878
		c0.181-0.079,0.362-0.16,0.544-0.239c0.536-0.229,1.071-0.461,1.604-0.695c0.801-0.35,1.61-0.685,2.407-1.041
		c0.551-0.246,1.149-0.424,1.721-0.616c0.572-0.192,1.15-0.368,1.729-0.542c0.867-0.26,1.73-0.527,2.588-0.813
		c0.153-0.05,0.309-0.094,0.461-0.144l-0.358,0.875c-0.181,0.24-3.148,1.248-3.148,1.248c-0.801,0.313-1.621,0.58-2.429,0.871
		c-0.558,0.201-1.152,0.324-1.719,0.499c-0.524,0.162-1.042,0.34-1.551,0.546c-0.81,0.328-1.592,0.725-2.354,1.15
		c-0.144,0.08-0.287,0.161-0.427,0.246c-0.623,0.314-1.279,0.664-1.742,1.198c-0.074,0.087-0.162,0.204-0.167,0.325
		c0.106-0.01,0.225-0.059,0.323-0.102c0.263-0.112,0.522-0.232,0.779-0.354c0.568-0.267,1.124-0.556,1.688-0.828
		c0.436-0.209,0.925-0.344,1.378-0.515c0.4-0.15,0.799-0.306,1.193-0.471c0.698-0.291,1.388-0.603,2.079-0.911
		c0.14-0.061,0.279-0.125,0.418-0.189c2.78-1.002,5.365-1.887,5.365-1.887l-0.443,0.858c-0.135,0.287-2.577,1.213-2.577,1.213
		c-0.69,0.327-1.431,0.556-2.165,0.763c-0.398,0.112-0.805,0.162-1.208,0.25c-0.42,0.09-0.833,0.216-1.238,0.359
		c-0.229,0.081-0.456,0.169-0.681,0.261c-0.574,0.233-1.161,0.418-1.733,0.653c-0.46,0.19-0.913,0.393-1.366,0.6
		c-0.889,0.407-1.832,0.666-2.737,1.04c-0.082,0.034-0.348,0.134-0.207,0.235c0.124,0.091,0.392-0.009,0.518-0.045
		c0.508-0.143,1.009-0.297,1.516-0.442c0.781-0.224,1.561-0.393,2.315-0.7c0.628-0.256,1.248-0.534,1.867-0.81
		c0.162-0.071,0.323-0.153,0.488-0.214c0.816-0.298,1.619-0.625,2.477-0.778c0.775-0.137,1.493-0.393,2.221-0.681
		c0.59-0.232,1.174-0.474,1.756-0.724c0.044-0.02,0.326-0.097,0.346-0.149c-0.069,0.199-0.486,1.047-0.486,1.047
		c-0.979,0.264-6.723,2.669-6.723,2.669c-1.367,0.5-6.042,1.549-6.042,1.549c-0.457,0.089-0.285,0.216-0.285,0.216
		c0.848,0.369,4.496-0.763,4.496-0.763c3.813-0.986,8.253-3.071,8.253-3.071c-0.11,0.088-0.28,0.704-0.28,0.704
		c-0.138,0.445-0.406,0.622-0.406,0.622c-1.044,0.904-6.677,2.574-6.677,2.574c-3.714,0.869-6.359,0.384-6.359,0.384
		c-0.465-0.146-0.223,0.082-0.223,0.082c0.474,0.328,1.118,0.418,1.676,0.482c0.514,0.06,1.031,0.08,1.547,0.078
		c0.917-0.002,1.84-0.006,2.742-0.194c0.799-0.169,1.573-0.453,2.344-0.718c0.765-0.263,1.528-0.53,2.272-0.853
		c0.57-0.248,1.129-0.521,1.693-0.783c0.243-0.113,0.503-0.211,0.733-0.352c0.01-0.007,0.019-0.012,0.029-0.018
		c-0.193,0.166-0.38,0.819-0.38,0.819c-1.903,1.408-5.785,2.293-5.785,2.293c-1.179,0.238-2.406,0.243-3.598,0.119
		c-0.941-0.098-1.886-0.257-2.8-0.506c-0.31-0.084-0.618-0.169-0.919-0.285c-0.078-0.03-0.353-0.123-0.217,0.049
		c5.641,3.657,12.947-0.917,12.947-0.917c-0.082,0.077-0.412,0.988-0.412,0.988c-0.253,0.323-0.744,0.506-1.097,0.683
		c-0.521,0.261-1.056,0.488-1.589,0.719c-0.867,0.376-1.801,0.517-2.732,0.639c-0.266,0.034-0.533,0.064-0.8,0.086
		c-0.719,0.06-1.452,0.097-2.174,0.071c-0.538-0.02-1.076-0.095-1.606-0.184c-0.388-0.065-0.751-0.193-1.12-0.322
		c-0.316-0.11-0.59-0.279-0.877-0.45c-0.05-0.029-0.187-0.162-0.254-0.126c-0.041,0.024-0.016,0.066,0.024,0.092
		c5.76,3.55,11.754-0.29,11.754-0.29l-0.58,1.051c-6.65,2.309-10.787-0.397-10.787-0.397c4.44,3.402,10.482,0.903,10.482,0.903
		l-0.387,0.585c-5.101,1.916-9.149-0.285-9.149-0.285c-0.61-0.329-0.091,0.096-0.091,0.096c3.623,2.769,8.871,0.735,8.871,0.735
		C6.804,29.02,2.66,26.428,2.66,26.428c-0.604-0.396-0.476-0.222-0.476-0.222c4.606,3.316,7.958,0.356,7.958,0.356
		s-1.791,4.264,1.156,7.99c0,0-2.115-3.873-0.752-8.311c0,0,0.374-0.358,0.472-0.567c0,0-0.207,4.787,1.41,8.638
		c0,0-1.172-7.232-1.148-8.854l0.451-0.9c0,0,0.516,5.551,1.977,8.763c0,0-1.614-6.998-1.513-9.313l0.627-1.202
		c0,0-0.005,1.283,0.263,2.275c0.082,0.624,0.209,1.244,0.401,1.844c0.195,0.611,0.471,1.194,0.656,1.81
		c0.197,0.659,0.374,1.328,0.509,2.006c0.127,0.636,0.156,1.271,0.236,1.911c0,0,0.048,0.646,0.199,0.093
		c-0.01-0.419-0.046-0.837-0.081-1.255c-0.082-0.934-0.178-1.866-0.383-2.782c-0.217-0.972-0.536-1.913-0.811-2.869
		c-0.252-0.874-0.481-1.761-0.615-2.662c-0.057-0.375-0.112-0.776-0.045-1.155l0.424-0.914c0.058,0.428,0.13,0.854,0.197,1.281
		c0.121,0.771,0.272,1.547,0.462,2.306c0.154,0.618,0.46,1.202,0.722,1.78c0.187,0.407,0.363,0.82,0.549,1.228
		c0.219,0.477,0.435,0.953,0.661,1.426c0.194,0.402,0.387,0.806,0.601,1.197c0.092,0.169,0.196,0.449,0.368,0.556
		c0.005,0.003,0.02,0.014,0.025,0.014c0,0,0.209-0.076-0.043-0.506c0,0-3.382-8.13-3.177-9.771c0,0,0.366-0.94,0.474-1.099
		c0.106,0.367,0.21,0.735,0.315,1.104c0.198,0.695,0.394,1.393,0.593,2.089c0.13,0.459,0.251,0.919,0.402,1.371
		c0.116,0.345,0.237,0.687,0.361,1.028c0.168,0.465,0.338,0.928,0.519,1.387c0.176,0.445,0.358,0.888,0.559,1.322
		c0.111,0.239,0.221,0.482,0.367,0.701c0.034,0.052,0.149,0.232,0.221,0.188c0.092-0.058-0.032-0.399-0.05-0.481
		c-0.046-0.158-0.092-0.316-0.139-0.476c-0.114-0.389-0.231-0.778-0.347-1.166c-0.148-0.498-0.304-0.995-0.459-1.492
		c-0.154-0.489-0.311-0.977-0.48-1.46c-0.146-0.413-0.301-0.818-0.475-1.22c-0.306-0.703-0.607-1.43-0.771-2.181
		c-0.035-0.16-0.067-0.327-0.059-0.492c0,0-0.164-0.771-0.185-1.023c0,0,0.507-0.945,0.545-1.032
		c0.041-0.084,1.151,4.11,1.545,5.507c0,0,1.087,4.844,1.288,6.95c0,0,0.101,0.985,0.215,0.065c0,0,0.279-3.446-1.426-9.131
		c0,0-1.397-3.947-1.265-4.232l0.422-0.986c0,0,0.49,1.338,0.765,2.021c0.073,0.338,0.168,0.671,0.263,1.003
		c0.189,0.659,0.451,1.298,0.748,1.916c0.209,0.435,0.44,0.873,0.622,1.325c0.185,0.463,0.28,0.948,0.429,1.423
		c0.063,0.207,0.139,0.414,0.194,0.622c0,0,0.854,3.174,0.89,3.397c0,0,0.17,0.982,0.262,0.261c0.02-0.158-0.028-0.355-0.044-0.513
		c-0.046-0.446-0.104-0.891-0.176-1.334c-0.232-1.445-0.637-2.841-1.162-4.205c-0.755-1.96-1.627-3.856-2.197-5.885
		c-0.058-0.213-0.194-0.563-0.137-0.791l0.272-0.811c0,0,1.014,2.83,1.604,4.701c0,0,2.57,7.858,2.809,7.795
		c0,0,0.185,0.051-0.106-0.743c0,0-2.585-8.802-2.992-9.72c0,0-1.047-2.534-0.917-2.89l0.369-0.871c0,0,0.785,2.725,2.02,4.929
		c0.09,0.163,0.181,0.324,0.27,0.487c0.219,0.4,0.442,0.796,0.663,1.196c0.283,0.511,0.569,1.021,0.854,1.531
		c0.279,0.5,0.557,0.999,0.84,1.495c0.229,0.402,0.441,0.808,0.699,1.192c0.04,0.061,0.148,0.286,0.25,0.205
		c0.099-0.078-0.062-0.356-0.097-0.431c-0.134-0.276-0.261-0.555-0.392-0.832c-0.32-0.681-0.639-1.361-0.956-2.041
		c-0.395-0.844-0.785-1.689-1.176-2.533c-0.362-0.789-0.726-1.578-1.076-2.372c-0.232-0.528-0.444-1.064-0.68-1.59
		c-0.245-0.548-0.523-1.082-0.792-1.618c-0.025-0.05-0.052-0.1-0.077-0.151c0,0,0.291-0.629,0.379-1.039
		c0,0,1.579,3.405,1.818,4.315c0.101,0.252,0.203,0.504,0.303,0.756c0.247,0.619,0.5,1.237,0.751,1.854
		c0.322,0.792,0.648,1.583,0.977,2.372c0.319,0.771,0.643,1.539,0.976,2.305c0.253,0.582,0.502,1.164,0.794,1.729
		c0.039,0.073,0.114,0.328,0.233,0.316c0.113-0.012,0.1-0.26,0.094-0.334c-0.021-0.265-0.188-0.559-0.287-0.807
		c-0.1-0.246-0.188-0.496-0.286-0.743c-0.258-0.656-0.504-1.318-0.76-1.977c-0.296-0.761-0.588-1.524-0.882-2.287
		c-0.279-0.723-0.559-1.446-0.839-2.171c-0.209-0.543-0.42-1.085-0.631-1.629c-0.019-0.047-0.038-0.095-0.057-0.144
		c0,0-2.047-3.97-1.848-4.399l0.381-0.898c0,0,2.33,6.357,2.943,7.579c0,0,2.474,5.973,2.825,5.962c0,0,0.44,0.1-0.734-2.459
		c0,0-4.209-10.839-4.658-11.742l0.416-1.195c0.15,0.495,0.313,0.987,0.481,1.474c0.335,0.97,0.684,1.94,1.108,2.873
		c0.128,0.28,0.265,0.557,0.405,0.832c0.185,0.362,0.402,0.709,0.553,1.087c0.069,0.173,0.119,0.354,0.186,0.528
		c0.215,0.554,0.422,1.11,0.636,1.664c0.244,0.631,0.478,1.267,0.72,1.9c0.209,0.548,0.413,1.097,0.618,1.644
		c0.111,0.296,0.226,0.59,0.325,0.887c0.004,0.014,0.008,0.026,0.013,0.04l0.956,2.805c0,0,0.604,0.869-0.347-2.696
		c-0.047-0.172-0.07-0.354-0.112-0.527c-0.105-0.445-0.222-0.888-0.344-1.329c-0.187-0.678-0.389-1.351-0.619-2.015
		c-0.271-0.784-0.585-1.549-0.934-2.3c-0.389-0.835-0.815-1.649-1.248-2.46c-0.38-0.711-0.718-1.446-1.057-2.178
		c-0.326-0.708-0.656-1.421-0.911-2.159c-0.049-0.141-0.209-0.471-0.137-0.627l0.357-0.772c0.213,0.546,0.444,1.085,0.678,1.622
		c0.464,1.068,0.979,2.131,1.563,3.138c0.449,0.776,1.012,1.488,1.518,2.227c0.326,0.476,0.651,0.951,0.985,1.423
		c0.403,0.569,0.811,1.136,1.232,1.693c0.367,0.484,0.739,0.969,1.146,1.42c0.182,0.201,0.443,0.57,0.735,0.613
		c0.015,0.002,0.04,0.009,0.054,0.004c0,0,0.164-0.131-0.698-1.191c0,0-4.832-6.65-5.042-7.546c0,0-2.057-3.801-1.966-4.071
		l0.357-0.771c0.073,0.171,0.147,0.342,0.224,0.512c0.203,0.452,0.409,0.902,0.616,1.352c0.274,0.599,0.562,1.191,0.864,1.776
		c0.319,0.618,0.636,1.237,0.974,1.845c0.427,0.769,0.884,1.517,1.49,2.158c0.194,0.203,0.396,0.401,0.573,0.621
		c0.093,0.116,0.183,0.236,0.279,0.351c0.307,0.366,0.606,0.738,0.915,1.104c0.351,0.419,0.704,0.837,1.062,1.25
		c0.313,0.361,0.628,0.721,0.96,1.066c0.179,0.187,0.37,0.422,0.604,0.543c0.012,0.007,0.025,0.017,0.041,0.021
		c0,0,0.543,0.252-0.185-0.503c-0.169-0.212-0.337-0.424-0.504-0.638c-0.407-0.522-0.815-1.046-1.221-1.572
		c-0.512-0.661-1.014-1.33-1.516-2.001c-0.478-0.638-0.951-1.285-1.395-1.949c-0.37-0.555-0.709-1.11-1.009-1.707
		c-0.378-0.753-0.795-1.488-1.182-2.238c-0.373-0.722-0.757-1.449-1.054-2.206c-0.055-0.139-0.227-0.457-0.153-0.614l0.276-0.67
		c0,0,2.86,5.735,5.579,8.559c0,0,2.52,3.252,2.909,3.085c0,0,0.358,0.2-0.577-0.928c0,0-4.908-6.338-5.166-6.978
		c0,0-2.447-4.155-2.384-4.369l0.29-0.699c0,0,0.833,1.498,3.063,4.997c0.139,0.195,0.279,0.388,0.418,0.582
		c0.339,0.469,0.682,0.936,1.029,1.397c0.422,0.562,0.85,1.119,1.287,1.668c0.393,0.497,0.796,0.992,1.227,1.456
		c0.146,0.156,0.309,0.291,0.458,0.439c0.107,0.103,0.292,0.324,0.345,0.069c0.069-0.346-0.397-0.589-0.561-0.837
		c-0.287-0.434-0.62-0.834-0.918-1.261c-0.453-0.651-0.935-1.281-1.391-1.929c-0.507-0.722-1.019-1.439-1.514-2.168
		c-0.444-0.652-0.874-1.31-1.29-1.981c-0.043-0.069-0.091-0.137-0.131-0.208C24.414,4.02,23.157,1.841,23.142,1.624"/>
</g>
<g>
	<defs>
		<path id="SVGID_3_" d="M22.394,0.609c-0.237,0.704-1.273,0.649-1.896,0.676c-0.943,0.043-1.888,0.008-2.829-0.041
			c-1.038-0.053-2.075-0.13-3.109-0.233c-1.347-0.134-2.685-0.341-4.035-0.446c-0.675-0.052-1.353-0.098-2.03-0.08
			C8.381,0.489,8.266,0.497,8.152,0.506c-0.48-0.061-0.464,0.155-0.464,0.155C7.632,0.759,9.082,1.024,9.172,1.037
			c0.777,0.126,1.561,0.245,2.344,0.328c0.504,0.054,1.005,0.174,1.505,0.251c0.423,0.063,0.849,0.117,1.276,0.152
			c0.79,0.066,1.583,0.07,2.375,0.082c0.802,0.013,1.606,0.021,2.411,0.001c0.613-0.014,1.225-0.044,1.838-0.063
			c0.271-0.01,0.543-0.008,0.813-0.036c0.011,0,0.021-0.002,0.031-0.003l-0.271,0.685c-0.129,0.099-0.378,0.1-0.53,0.118
			c-0.353,0.044-0.709,0.072-1.064,0.095c-0.895,0.059-1.787,0.092-2.684,0.123c-0.551,0.019-1.105,0.053-1.657,0.045
			c-0.347-0.003-0.704-0.086-1.052-0.114c-0.291-0.022-0.582-0.031-0.876-0.027c-0.613,0.01-1.23,0.042-1.844,0.078
			c-0.604,0.035-1.206,0.097-1.809,0.16C9.504,2.96,9.029,3.007,8.555,3.067C8.351,3.094,8.149,3.127,7.944,3.15
			C7.936,3.152,7.929,3.153,7.92,3.153C6.983,3.228,6.967,3.614,6.967,3.614c0.013,0.167,4.28-0.099,4.28-0.099
			c2.774,0.106,10.057-0.521,10.057-0.521l-0.513,1.105c-0.084,0.103-0.39,0.113-0.507,0.136c-0.37,0.069-0.744,0.12-1.116,0.172
			c-0.912,0.127-1.826,0.244-2.741,0.343c-1.345,0.142-2.705,0.165-4.053,0.224c-1.056,0.045-2.105,0.137-3.153,0.26
			C9.028,5.256,8.833,5.269,8.642,5.292C5.965,5.625,5.765,6.204,5.765,6.204c0.001-0.001,0.051,0.003,0.1,0.005
			c0.044,0.003,0.089,0.007,0.097,0.006c0.203-0.011,0.404-0.03,0.605-0.05c0.549-0.053,1.098-0.111,1.645-0.174
			c0.3-0.034,0.592-0.083,0.895-0.089c0.137-0.001,0.275,0.002,0.412,0.004c0.196,0.004,0.392,0.007,0.588-0.001
			c0.435-0.017,0.869-0.055,1.304-0.09c0.923-0.073,1.842-0.185,2.764-0.286c0.959-0.106,1.918-0.235,2.876-0.356
			c0.773-0.098,1.545-0.203,2.317-0.309c0.355-0.05,0.717-0.09,1.072-0.151c0.007-0.001,0.014-0.003,0.021-0.004l-0.419,1.102
			c-0.103,0.09-0.362,0.084-0.487,0.102c-0.353,0.051-0.709,0.09-1.064,0.129c-0.915,0.1-1.83,0.184-2.746,0.264
			c-0.511,0.045-1.022,0.1-1.533,0.133c-0.328,0.021-0.679-0.036-1.01-0.045c-0.336-0.009-0.671-0.008-1.006,0.005
			c-0.66,0.027-1.316,0.103-1.969,0.201C9.611,6.692,9,6.797,8.391,6.914c-0.464,0.09-0.926,0.188-1.384,0.297
			c-0.188,0.045-0.376,0.093-0.563,0.14C6.432,7.354,6.421,7.357,6.41,7.36c-0.7,0.207-0.429,0.425-0.429,0.425
			C5.932,8.04,9.757,7.43,9.757,7.43c2.794-0.139,10.037-1.132,10.037-1.132L19.445,7.2c-0.127,0.135-0.447,0.16-0.612,0.189
			c-0.416,0.075-0.837,0.128-1.257,0.176C16.529,7.684,15.48,7.76,14.43,7.839c-0.852,0.063-1.707,0.083-2.56,0.134
			c-0.689,0.041-1.363,0.15-2.031,0.325C9.152,8.479,8.475,8.703,7.808,8.947c-0.517,0.19-1.027,0.4-1.532,0.625
			C6.052,9.671,5.827,9.771,5.608,9.879C5.6,9.883,5.592,9.888,5.583,9.892c-2.535,1.07-2.424,1.283-2.424,1.283
			c-0.079,0.172,3.098-1.04,3.098-1.04C6.89,9.808,7.61,9.621,8.294,9.434c0.778-0.213,1.563-0.401,2.349-0.58
			c0.716-0.162,1.489-0.215,2.222-0.237c0.666-0.023,1.327-0.043,1.99-0.123c0.673-0.082,1.341-0.188,2.012-0.282
			c0.517-0.071,1.034-0.145,1.549-0.241c0.227-0.042,0.454-0.099,0.684-0.128c0.008-0.002,0.017-0.002,0.025-0.004l-0.369,0.848
			C18.68,8.8,18.41,8.838,18.296,8.866c-0.337,0.087-0.68,0.15-1.021,0.215c-0.881,0.163-1.765,0.295-2.649,0.423
			c-0.465,0.069-0.926,0.16-1.392,0.216c-0.449,0.056-0.89,0.033-1.341,0.043c-0.297,0.007-0.594,0.02-0.891,0.045
			c-0.566,0.046-1.124,0.14-1.675,0.272c-0.899,0.216-1.784,0.507-2.653,0.818c-0.168,0.061-0.329,0.129-0.493,0.198
			c-2.276,1.166-3.272,2.463-3.272,2.463c-0.306,0.414,0.006,0.187,0.006,0.187c0.563-0.582,1.195-1.132,1.898-1.542
			c0.765-0.446,1.574-0.711,2.45-0.824c0.784-0.102,1.556-0.276,2.334-0.414c0.653-0.117,1.306-0.232,1.959-0.348
			c0.129-0.023,0.257-0.045,0.387-0.068c2.112-0.364,6.53-1.254,6.53-1.254l-0.326,1.005c-0.039,0.084-0.179,0.132-0.256,0.166
			c-0.166,0.074-0.341,0.135-0.517,0.191c-0.349,0.114-0.697,0.236-1.056,0.319c-0.367,0.085-0.742,0.09-1.112,0.156
			c-0.24,0.042-0.473,0.119-0.71,0.173c-0.295,0.067-0.59,0.134-0.883,0.205c-0.59,0.141-1.178,0.293-1.762,0.461
			c-1.162,0.336-2.304,0.743-3.412,1.231c-0.992,0.438-1.959,0.938-2.885,1.504c-0.609,0.373-1.221,0.768-1.764,1.234
			c-0.058,0.05-0.499,0.401-0.288,0.436c0.111,0.017,0.292-0.095,0.387-0.137c0.23-0.104,0.455-0.22,0.681-0.339
			c0.679-0.353,1.353-0.721,2.037-1.068c0.883-0.446,1.782-0.863,2.699-1.239c1.057-0.432,2.136-0.811,3.227-1.154
			c1.194-0.376,2.402-0.709,3.608-1.036c0.399-0.106,0.797-0.211,1.195-0.316c0.111-0.03,0.225-0.061,0.339-0.084
			c0.011-0.002,0.098-0.008,0.105-0.016c-0.057,0.068-0.397,0.905-0.397,0.905c-0.092,0.133-0.333,0.209-0.473,0.265
			c-0.317,0.13-0.644,0.243-0.968,0.352c-0.792,0.265-1.597,0.492-2.401,0.724c-0.739,0.213-1.494,0.372-2.24,0.562
			c-0.62,0.16-1.218,0.39-1.812,0.626c-0.62,0.246-1.234,0.509-1.841,0.787c-0.494,0.226-0.984,0.457-1.471,0.698
			c-0.217,0.107-0.433,0.215-0.648,0.326c-0.009,0.003-0.016,0.008-0.023,0.011c-0.96,0.455-1.869,1.047-2.737,1.657
			c-0.076,0.056-0.156,0.11-0.235,0.164c-0.063,0.043-0.134,0.111-0.181,0.169c0.518-0.092,1.021-0.354,1.503-0.553
			c0.686-0.285,1.366-0.58,2.045-0.878c0.182-0.079,0.363-0.16,0.544-0.238c0.536-0.23,1.072-0.462,1.605-0.696
			c0.801-0.35,1.609-0.685,2.407-1.04c0.551-0.247,1.148-0.424,1.721-0.617c0.572-0.192,1.15-0.368,1.728-0.542
			c0.867-0.26,1.729-0.527,2.59-0.812c0.152-0.051,0.308-0.095,0.461-0.145l-0.359,0.875c-0.181,0.241-3.147,1.248-3.147,1.248
			c-0.801,0.314-1.621,0.58-2.43,0.871c-0.558,0.202-1.152,0.325-1.719,0.5c-0.523,0.162-1.041,0.339-1.55,0.545
			c-0.81,0.328-1.593,0.724-2.355,1.151c-0.143,0.079-0.287,0.161-0.426,0.246c-0.623,0.313-1.28,0.664-1.743,1.197
			c-0.074,0.087-0.162,0.204-0.166,0.325c0.106-0.009,0.224-0.06,0.323-0.102c0.263-0.112,0.521-0.232,0.779-0.354
			c0.567-0.266,1.124-0.556,1.688-0.828c0.435-0.209,0.924-0.344,1.378-0.515c0.4-0.15,0.798-0.306,1.193-0.47
			c0.698-0.291,1.388-0.604,2.079-0.911c0.14-0.062,0.278-0.125,0.418-0.19c2.779-1.002,5.364-1.886,5.364-1.886l-0.443,0.857
			c-0.134,0.286-2.578,1.213-2.578,1.213c-0.69,0.328-1.43,0.556-2.164,0.764c-0.399,0.111-0.805,0.162-1.209,0.249
			c-0.419,0.09-0.832,0.216-1.237,0.36c-0.229,0.081-0.457,0.168-0.682,0.26c-0.574,0.233-1.161,0.419-1.733,0.654
			c-0.46,0.19-0.913,0.393-1.365,0.6c-0.89,0.407-1.832,0.666-2.737,1.04c-0.082,0.034-0.348,0.134-0.207,0.236
			c0.124,0.089,0.391-0.01,0.517-0.046c0.508-0.143,1.01-0.297,1.517-0.442c0.78-0.224,1.56-0.393,2.314-0.7
			c0.628-0.256,1.248-0.534,1.867-0.81c0.163-0.071,0.324-0.154,0.489-0.215c0.815-0.298,1.619-0.626,2.477-0.778
			c0.775-0.137,1.493-0.393,2.221-0.681c0.59-0.231,1.173-0.473,1.756-0.724c0.044-0.019,0.327-0.097,0.345-0.149
			c-0.068,0.199-0.486,1.048-0.486,1.048c-0.978,0.263-6.723,2.668-6.723,2.668c-1.367,0.499-6.041,1.549-6.041,1.549
			c-0.458,0.089-0.286,0.216-0.286,0.216c0.848,0.369,4.497-0.763,4.497-0.763c3.813-0.986,8.253-3.072,8.253-3.072
			c-0.111,0.088-0.281,0.705-0.281,0.705c-0.138,0.444-0.405,0.623-0.405,0.623c-1.044,0.904-6.678,2.573-6.678,2.573
			c-3.714,0.87-6.359,0.384-6.359,0.384C0.459,21.889,0.7,22.117,0.7,22.117c0.474,0.326,1.118,0.417,1.677,0.481
			c0.514,0.061,1.03,0.08,1.547,0.078c0.917-0.002,1.84-0.006,2.742-0.195c0.799-0.167,1.573-0.452,2.344-0.717
			c0.764-0.263,1.528-0.53,2.271-0.852c0.57-0.249,1.129-0.522,1.693-0.784c0.243-0.113,0.503-0.211,0.734-0.352
			c0.01-0.007,0.019-0.012,0.028-0.018c-0.192,0.166-0.38,0.82-0.38,0.82c-1.903,1.406-5.785,2.292-5.785,2.292
			c-1.178,0.237-2.405,0.244-3.598,0.12c-0.941-0.1-1.885-0.259-2.799-0.507c-0.311-0.085-0.619-0.169-0.919-0.284
			C0.193,22.176,0.006,22.112,0,22.174v0.006c0.001,0.016,0.013,0.038,0.037,0.069c5.642,3.657,12.947-0.917,12.947-0.917
			c-0.082,0.077-0.412,0.987-0.412,0.987c-0.253,0.324-0.743,0.507-1.096,0.684c-0.521,0.261-1.056,0.488-1.589,0.719
			c-0.867,0.376-1.801,0.516-2.733,0.638c-0.265,0.036-0.532,0.065-0.8,0.087c-0.718,0.06-1.452,0.097-2.174,0.071
			c-0.538-0.02-1.076-0.095-1.606-0.184c-0.388-0.065-0.751-0.193-1.12-0.322c-0.315-0.111-0.59-0.28-0.877-0.449
			c-0.05-0.031-0.186-0.164-0.254-0.126c-0.041,0.024-0.015,0.065,0.024,0.091c5.76,3.551,11.754-0.291,11.754-0.291l-0.579,1.053
			c-6.65,2.308-10.788-0.398-10.788-0.398c4.441,3.403,10.483,0.903,10.483,0.903l-0.387,0.585c-5.101,1.916-9.15-0.285-9.15-0.285
			c-0.61-0.329-0.091,0.096-0.091,0.096c3.624,2.769,8.872,0.735,8.872,0.735c-3.657,3.096-7.801,0.503-7.801,0.503
			c-0.604-0.395-0.477-0.222-0.477-0.222c4.607,3.317,7.958,0.357,7.958,0.357s-1.791,4.263,1.157,7.989
			c0,0-2.115-3.873-0.752-8.311c0,0,0.374-0.358,0.472-0.567c0,0-0.207,4.788,1.409,8.639c0,0-1.172-7.233-1.148-8.854l0.452-0.901
			c0,0,0.516,5.552,1.977,8.764c0,0-1.615-6.999-1.514-9.313l0.627-1.202c0,0-0.005,1.284,0.264,2.275
			c0.082,0.624,0.209,1.244,0.401,1.844c0.195,0.611,0.471,1.195,0.656,1.809c0.197,0.661,0.373,1.33,0.508,2.008
			c0.127,0.635,0.157,1.271,0.237,1.909c0,0,0.048,0.647,0.199,0.094c-0.01-0.419-0.045-0.836-0.081-1.256
			c-0.081-0.933-0.179-1.864-0.383-2.781c-0.218-0.973-0.536-1.913-0.811-2.869c-0.252-0.874-0.481-1.761-0.616-2.662
			c-0.057-0.375-0.111-0.777-0.045-1.155l0.424-0.914c0.058,0.428,0.131,0.854,0.198,1.281c0.12,0.772,0.272,1.548,0.462,2.305
			c0.153,0.62,0.459,1.204,0.722,1.781c0.187,0.407,0.362,0.82,0.549,1.228c0.219,0.477,0.435,0.952,0.662,1.426
			c0.193,0.401,0.386,0.806,0.599,1.198c0.093,0.168,0.197,0.448,0.369,0.555c0.005,0.003,0.02,0.014,0.025,0.014
			c0,0,0.209-0.076-0.043-0.506c0,0-3.382-8.13-3.177-9.771c0,0,0.366-0.94,0.475-1.1c0.106,0.368,0.21,0.736,0.314,1.106
			c0.198,0.693,0.395,1.392,0.593,2.089c0.13,0.459,0.252,0.918,0.402,1.37c0.116,0.345,0.237,0.688,0.361,1.028
			c0.168,0.465,0.338,0.928,0.518,1.387c0.178,0.444,0.359,0.888,0.561,1.322c0.111,0.238,0.219,0.482,0.366,0.702
			c0.034,0.051,0.149,0.231,0.221,0.187c0.091-0.058-0.033-0.399-0.05-0.48c-0.046-0.16-0.092-0.317-0.138-0.476
			c-0.115-0.39-0.231-0.779-0.348-1.167c-0.147-0.498-0.303-0.995-0.459-1.492c-0.155-0.488-0.31-0.977-0.479-1.46
			c-0.147-0.413-0.302-0.818-0.477-1.219c-0.304-0.704-0.605-1.432-0.771-2.182c-0.034-0.159-0.067-0.328-0.059-0.491
			c0,0-0.163-0.771-0.185-1.024c0,0,0.508-0.945,0.547-1.031c0.041-0.086,1.151,4.109,1.544,5.507c0,0,1.087,4.844,1.289,6.951
			c0,0,0.1,0.984,0.214,0.065c0,0,0.279-3.448-1.425-9.132c0,0-1.398-3.947-1.265-4.232l0.421-0.985c0,0,0.489,1.337,0.765,2.02
			c0.073,0.338,0.168,0.671,0.263,1.003c0.189,0.66,0.451,1.298,0.748,1.916c0.208,0.435,0.44,0.873,0.621,1.325
			c0.186,0.463,0.282,0.948,0.431,1.423c0.063,0.207,0.138,0.414,0.192,0.622c0,0,0.855,3.174,0.891,3.397
			c0,0,0.17,0.982,0.262,0.261c0.019-0.158-0.028-0.355-0.044-0.513c-0.046-0.445-0.104-0.891-0.175-1.335
			c-0.233-1.444-0.639-2.84-1.163-4.204c-0.754-1.961-1.626-3.856-2.196-5.886c-0.059-0.213-0.195-0.563-0.138-0.792l0.272-0.81
			c0,0,1.013,2.83,1.605,4.702c0,0,2.569,7.858,2.808,7.795c0,0,0.184,0.051-0.106-0.743c0,0-2.585-8.801-2.992-9.72
			c0,0-1.047-2.534-0.917-2.89l0.37-0.871c0,0,0.783,2.726,2.019,4.93c0.089,0.163,0.18,0.324,0.269,0.487
			c0.22,0.399,0.443,0.795,0.664,1.195c0.282,0.511,0.569,1.021,0.854,1.532c0.279,0.499,0.557,0.999,0.84,1.495
			c0.229,0.401,0.441,0.807,0.699,1.191c0.04,0.061,0.147,0.286,0.25,0.205c0.099-0.077-0.062-0.355-0.096-0.431
			c-0.135-0.276-0.262-0.555-0.394-0.831c-0.319-0.683-0.638-1.362-0.955-2.042c-0.395-0.844-0.785-1.688-1.175-2.533
			c-0.363-0.789-0.726-1.578-1.077-2.372c-0.231-0.527-0.445-1.063-0.68-1.59c-0.244-0.548-0.524-1.082-0.792-1.618
			c-0.025-0.05-0.052-0.1-0.076-0.151c0,0,0.291-0.629,0.378-1.039c0,0,1.58,3.406,1.818,4.315c0.101,0.252,0.203,0.504,0.304,0.757
			c0.247,0.618,0.499,1.236,0.751,1.853c0.321,0.793,0.648,1.584,0.975,2.373c0.32,0.77,0.644,1.539,0.977,2.305
			c0.253,0.582,0.502,1.164,0.795,1.729c0.038,0.073,0.113,0.327,0.232,0.316c0.113-0.012,0.1-0.259,0.094-0.334
			c-0.021-0.265-0.188-0.559-0.287-0.807c-0.101-0.246-0.188-0.495-0.285-0.743c-0.259-0.656-0.505-1.319-0.761-1.977
			c-0.296-0.761-0.587-1.524-0.882-2.286c-0.279-0.724-0.56-1.447-0.839-2.171c-0.209-0.544-0.421-1.086-0.631-1.629
			c-0.019-0.048-0.038-0.097-0.056-0.145c0,0-2.048-3.97-1.849-4.398l0.381-0.899c0,0,2.33,6.358,2.943,7.579
			c0,0,2.474,5.973,2.825,5.962c0,0,0.44,0.1-0.733-2.459c0,0-4.21-10.839-4.659-11.742l0.416-1.195
			c0.149,0.495,0.313,0.987,0.48,1.475c0.335,0.969,0.685,1.939,1.11,2.872c0.128,0.28,0.264,0.557,0.404,0.832
			c0.185,0.362,0.402,0.709,0.554,1.087c0.068,0.173,0.118,0.354,0.184,0.529c0.215,0.553,0.422,1.109,0.638,1.663
			c0.242,0.632,0.476,1.267,0.719,1.901c0.21,0.547,0.413,1.096,0.618,1.644c0.11,0.294,0.226,0.589,0.326,0.886
			c0.003,0.014,0.007,0.026,0.012,0.039l0.956,2.806c0,0,0.604,0.869-0.347-2.696c-0.047-0.172-0.07-0.354-0.112-0.527
			c-0.105-0.445-0.222-0.888-0.345-1.329c-0.186-0.677-0.388-1.352-0.618-2.016c-0.271-0.784-0.585-1.549-0.934-2.3
			c-0.388-0.835-0.815-1.648-1.248-2.46c-0.38-0.711-0.718-1.445-1.056-2.178c-0.327-0.707-0.657-1.421-0.912-2.159
			c-0.049-0.14-0.209-0.471-0.137-0.626l0.357-0.773c0.213,0.547,0.444,1.086,0.678,1.623c0.464,1.067,0.979,2.13,1.563,3.137
			c0.45,0.775,1.011,1.489,1.518,2.227c0.326,0.476,0.651,0.951,0.984,1.423c0.405,0.569,0.812,1.137,1.234,1.693
			c0.367,0.485,0.738,0.969,1.145,1.42c0.183,0.202,0.445,0.571,0.737,0.613c0.014,0.003,0.04,0.009,0.052,0.005
			c0,0,0.164-0.132-0.698-1.192c0,0-4.831-6.649-5.042-7.546c0,0-2.056-3.8-1.965-4.07l0.357-0.772
			c0.073,0.171,0.147,0.342,0.224,0.511c0.203,0.453,0.409,0.903,0.616,1.353c0.274,0.599,0.561,1.191,0.864,1.776
			c0.318,0.618,0.636,1.237,0.973,1.846c0.427,0.768,0.884,1.516,1.492,2.157c0.193,0.203,0.396,0.402,0.572,0.621
			c0.094,0.116,0.183,0.236,0.278,0.351c0.308,0.366,0.608,0.738,0.916,1.104c0.352,0.419,0.703,0.837,1.063,1.25
			c0.312,0.361,0.628,0.721,0.959,1.066c0.179,0.187,0.37,0.422,0.604,0.544c0.012,0.006,0.026,0.016,0.04,0.02
			c0,0,0.544,0.252-0.184-0.503c-0.168-0.212-0.337-0.424-0.504-0.638c-0.407-0.522-0.816-1.046-1.222-1.572
			c-0.512-0.662-1.013-1.33-1.515-2.001c-0.478-0.638-0.952-1.285-1.394-1.949c-0.371-0.555-0.709-1.11-1.01-1.707
			c-0.378-0.753-0.796-1.487-1.182-2.238c-0.373-0.723-0.756-1.449-1.054-2.206c-0.056-0.138-0.228-0.457-0.153-0.614l0.277-0.67
			c0,0,2.859,5.736,5.579,8.559c0,0,2.519,3.252,2.907,3.085c0,0,0.359,0.2-0.576-0.928c0,0-4.908-6.338-5.166-6.978
			c0,0-2.447-4.155-2.385-4.369l0.29-0.699c0,0,0.834,1.498,3.064,4.997c0.138,0.196,0.28,0.388,0.419,0.582
			c0.338,0.469,0.681,0.936,1.028,1.397c0.422,0.562,0.85,1.119,1.287,1.669c0.394,0.496,0.796,0.991,1.228,1.455
			c0.145,0.156,0.307,0.291,0.458,0.44c0.107,0.103,0.292,0.324,0.343,0.069c0.07-0.347-0.396-0.59-0.56-0.837
			c-0.287-0.435-0.619-0.834-0.918-1.262c-0.453-0.651-0.935-1.281-1.392-1.929c-0.506-0.721-1.017-1.439-1.513-2.168
			c-0.444-0.652-0.874-1.309-1.29-1.981c-0.043-0.069-0.09-0.137-0.13-0.208c0,0-1.258-2.179-1.273-2.396
			c-0.026-0.363-0.377-0.475-0.293-0.83c0.051-0.199,0.305-0.567,0.081-0.739C22.881,0.017,22.835,0,22.793,0
			C22.572,0,22.447,0.45,22.394,0.609"/>
	</defs>
	<clipPath id="SVGID_4_">
		<use xlink:href="#SVGID_3_"  overflow="visible"/>
	</clipPath>
	<path clip-path="url(#SVGID_4_)" fill="#231F20" d="M11.807,23.424c0,0-3.507,2.471-7.755,1.525
		c-4.249-0.946-0.057-0.026-0.057-0.026s3.648,0.667,7.581-1.676c0,0,0.737-0.353,0.699-0.195
		C12.274,23.052,12.25,23.214,11.807,23.424"/>
	<path clip-path="url(#SVGID_4_)" fill="#231F20" d="M11.208,24.813c0,0-2.834,0.959-4.477,0.944c0,0,3.978-0.928,4.667-1.18
		C11.398,24.578,11.639,24.584,11.208,24.813"/>
	<path clip-path="url(#SVGID_4_)" fill="#231F20" d="M10.415,25.949c0,0-2.454,1.125-5.193,0.706c0,0,3.388-0.009,5.309-0.854
		C10.531,25.802,10.638,25.845,10.415,25.949"/>
	<path clip-path="url(#SVGID_4_)" fill="#231F20" d="M10.142,26.563c0,0-0.936,0.672-1.406,0.714c0,0,1.18-0.563,1.486-0.925
		L10.142,26.563z"/>
	<path clip-path="url(#SVGID_4_)" fill="#231F20" d="M10.151,26.806c0,0-0.337,0.764-0.319,1.362c0,0,0.248-0.909,0.417-1.386
		L10.151,26.806z"/>
	<path clip-path="url(#SVGID_4_)" fill="#231F20" d="M11.311,30.347c0,0-0.741-2.809-0.302-4.653c0,0,0.028-0.034,0.165-0.132
		C11.173,25.562,10.907,28.822,11.311,30.347"/>
	<path clip-path="url(#SVGID_4_)" fill="#231F20" d="M11.691,25.506c0,0,0.493,4.065,0.97,4.911c0,0-0.109-0.779-0.229-1.755
		c0,0-0.592-3.827-0.514-4.33l-0.187,0.227L11.691,25.506z"/>
	<path clip-path="url(#SVGID_4_)" fill="#231F20" d="M14.503,30.524c-0.311-1.036-0.62-2.073-0.933-3.108
		c-0.063-0.211-0.127-0.423-0.191-0.634c-0.037-0.121-0.196-0.445-0.166-0.553c0.018-0.065,0.059-0.055,0.07-0.076
		c0.055-0.101,0.077-0.264,0.115-0.391c0.122-0.008,0.265,0.934,0.286,1.104c0.052,0.432,0.076,0.867,0.226,1.28
		c0.065,0.176,0.128,0.342,0.188,0.52c0.142,0.433,0.26,0.853,0.361,1.302c0.033,0.153,0.19,0.503,0.031,0.619L14.503,30.524z"/>
	<path clip-path="url(#SVGID_4_)" fill="#231F20" d="M17.261,25.013c-0.178-0.8-0.356-1.6-0.536-2.398
		c-0.036-0.164-0.073-0.326-0.11-0.489c-0.021-0.093-0.121-0.341-0.096-0.426c0.016-0.053,0.045-0.045,0.054-0.063
		c0.042-0.081,0.065-0.21,0.098-0.313c0.087-0.009,0.151,0.722,0.159,0.854c0.02,0.338,0.017,0.678,0.108,0.995
		c0.038,0.135,0.077,0.263,0.111,0.399c0.084,0.334,0.15,0.657,0.204,1.005c0.018,0.119,0.114,0.388-0.003,0.486L17.261,25.013z"/>
	<path clip-path="url(#SVGID_4_)" fill="#231F20" d="M19.124,23.523c-0.33-0.75-0.66-1.5-0.991-2.248
		c-0.068-0.153-0.135-0.307-0.203-0.459c-0.039-0.088-0.185-0.311-0.176-0.399c0.005-0.055,0.034-0.053,0.04-0.072
		c0.026-0.088,0.023-0.218,0.035-0.324c0.083-0.027,0.288,0.679,0.32,0.807c0.085,0.326,0.149,0.66,0.3,0.954
		c0.063,0.125,0.127,0.243,0.187,0.37c0.147,0.312,0.276,0.616,0.396,0.947c0.04,0.113,0.188,0.356,0.091,0.477L19.124,23.523z"/>
	<path clip-path="url(#SVGID_4_)" fill="#231F20" d="M19.745,22.771c-0.282-0.77-0.564-1.538-0.848-2.307
		c-0.059-0.156-0.116-0.313-0.175-0.47c-0.033-0.09-0.165-0.321-0.15-0.411c0.009-0.053,0.038-0.049,0.045-0.067
		c0.031-0.087,0.037-0.217,0.056-0.321c0.085-0.021,0.244,0.694,0.27,0.824c0.063,0.331,0.106,0.668,0.238,0.972
		c0.057,0.128,0.111,0.25,0.164,0.382c0.127,0.318,0.236,0.63,0.334,0.97c0.033,0.114,0.165,0.367,0.062,0.48L19.745,22.771z"/>
	<path clip-path="url(#SVGID_4_)" fill="#231F20" d="M21.394,20.783c-0.4-0.714-0.802-1.428-1.205-2.141
		c-0.081-0.146-0.164-0.292-0.246-0.437c-0.048-0.084-0.215-0.291-0.215-0.381c0-0.055,0.029-0.056,0.033-0.075
		c0.018-0.09,0.002-0.22,0.005-0.326c0.079-0.036,0.352,0.646,0.396,0.771c0.117,0.317,0.212,0.643,0.391,0.921
		c0.076,0.118,0.15,0.229,0.224,0.351c0.177,0.295,0.334,0.586,0.484,0.903c0.051,0.108,0.221,0.338,0.137,0.465L21.394,20.783z"/>
	<path clip-path="url(#SVGID_4_)" fill="#231F20" d="M21.292,18.233c-0.31-0.759-0.616-1.518-0.926-2.276
		c-0.063-0.155-0.126-0.309-0.189-0.464c-0.037-0.089-0.177-0.316-0.165-0.405c0.007-0.053,0.036-0.051,0.042-0.071
		c0.029-0.086,0.03-0.217,0.046-0.322c0.084-0.025,0.268,0.685,0.296,0.814c0.076,0.329,0.131,0.665,0.272,0.963
		c0.061,0.127,0.119,0.247,0.176,0.376c0.138,0.315,0.258,0.623,0.367,0.958c0.037,0.114,0.177,0.363,0.077,0.479L21.292,18.233z"/>
	<path clip-path="url(#SVGID_4_)" fill="#231F20" d="M21.775,15.993c-0.31-0.76-0.616-1.519-0.926-2.276
		c-0.063-0.156-0.126-0.31-0.189-0.464c-0.037-0.089-0.176-0.316-0.165-0.406c0.007-0.053,0.036-0.051,0.042-0.07
		c0.029-0.087,0.03-0.217,0.046-0.323c0.084-0.024,0.268,0.686,0.296,0.815c0.077,0.329,0.131,0.665,0.272,0.963
		c0.061,0.127,0.12,0.247,0.176,0.376c0.138,0.315,0.259,0.623,0.368,0.958c0.036,0.114,0.177,0.363,0.077,0.479L21.775,15.993z"/>
	<path clip-path="url(#SVGID_4_)" fill="#231F20" d="M22.547,14.216c-0.308-0.76-0.616-1.518-0.925-2.277l-0.19-0.463
		c-0.036-0.089-0.176-0.316-0.165-0.406c0.008-0.052,0.037-0.051,0.043-0.07c0.029-0.087,0.03-0.217,0.045-0.322
		c0.084-0.025,0.269,0.685,0.297,0.814c0.076,0.329,0.13,0.665,0.271,0.963c0.061,0.126,0.12,0.247,0.177,0.376
		c0.139,0.315,0.258,0.623,0.367,0.958c0.036,0.114,0.177,0.363,0.077,0.479L22.547,14.216z"/>
	<path clip-path="url(#SVGID_4_)" fill="#231F20" d="M12.931,21.399c0,0-4.356,2.557-6.288,2.304c0,0,3.402-0.835,6.457-2.596
		L12.931,21.399z"/>
	<path clip-path="url(#SVGID_4_)" fill="#231F20" d="M14.294,25.112c-0.062-0.206-0.348-1.009-0.159-1.161
		c0.093,0.104,0.052,0.321,0.198,0.382c0.009-0.021,0.028-0.044,0.036-0.065c0.072,0.073,0.081,0.21,0.109,0.313
		c0.06,0.225,0.121,0.453,0.195,0.674c0.19,0.563,0.403,1.125,0.633,1.667c0.124,0.291,0.267,0.569,0.4,0.851
		c0.041,0.086,0.252,0.472-0.011,0.375c0.001,0.001,0.09,0.35,0.084,0.381c-0.181-0.086-0.294-0.5-0.38-0.677
		c-0.142-0.296-0.28-0.595-0.414-0.896C14.722,26.354,14.482,25.741,14.294,25.112"/>
	<path clip-path="url(#SVGID_4_)" fill="#231F20" d="M15.419,23.612c-0.054-0.207-0.312-1.021-0.115-1.166
		c0.088,0.108,0.039,0.323,0.184,0.389c0.01-0.021,0.029-0.042,0.037-0.063c0.071,0.076,0.074,0.213,0.098,0.316
		c0.053,0.226,0.105,0.457,0.171,0.681c0.169,0.569,0.361,1.139,0.571,1.688c0.113,0.296,0.245,0.578,0.368,0.865
		c0.039,0.087,0.235,0.479-0.024,0.374c0.002,0.001,0.078,0.353,0.07,0.384c-0.177-0.093-0.276-0.511-0.354-0.689
		c-0.131-0.303-0.258-0.605-0.38-0.911C15.802,24.869,15.585,24.248,15.419,23.612"/>
	<path clip-path="url(#SVGID_4_)" fill="#231F20" d="M13.726,19.755c-0.001,0.001-0.003,0.001-0.004,0.002
		c-0.065,0.034-0.146,0.055-0.216,0.085c-0.285,0.124-0.57,0.252-0.855,0.375c-0.757,0.328-1.511,0.663-2.274,0.979
		c-0.281,0.116-0.563,0.239-0.852,0.336c0.442-0.215,0.888-0.427,1.33-0.643c0.772-0.378,1.568-0.716,2.339-1.096
		c0.167-0.081,0.325-0.222,0.519-0.233C13.912,19.549,13.817,19.706,13.726,19.755"/>
	<path clip-path="url(#SVGID_4_)" fill="#231F20" d="M14.691,17.634l-0.003,0.003c-0.066,0.033-0.147,0.054-0.217,0.084
		c-0.285,0.124-0.569,0.252-0.854,0.375c-0.758,0.328-1.512,0.663-2.274,0.979c-0.282,0.117-0.563,0.24-0.853,0.336
		c0.442-0.215,0.888-0.426,1.33-0.643c0.773-0.378,1.568-0.716,2.34-1.095c0.167-0.083,0.324-0.223,0.517-0.234
		C14.878,17.428,14.783,17.585,14.691,17.634"/>
	<path clip-path="url(#SVGID_4_)" fill="#231F20" d="M15.501,16.049c-0.001,0.001-0.003,0.001-0.003,0.002
		c-0.064,0.029-0.146,0.047-0.213,0.072c-0.281,0.108-0.561,0.217-0.843,0.324c-0.745,0.283-1.486,0.572-2.238,0.843
		c-0.277,0.101-0.554,0.207-0.84,0.287c0.436-0.186,0.872-0.37,1.307-0.558c0.76-0.33,1.543-0.62,2.301-0.951
		c0.163-0.072,0.315-0.199,0.509-0.203C15.681,15.862,15.591,16.006,15.501,16.049"/>
	<path clip-path="url(#SVGID_4_)" fill="#231F20" d="M16.253,14.319c-0.001,0.001-0.002,0.001-0.002,0.001
		c-0.057,0.025-0.124,0.04-0.183,0.061c-0.238,0.091-0.477,0.186-0.715,0.276c-0.634,0.24-1.266,0.486-1.904,0.717
		c-0.236,0.086-0.471,0.175-0.715,0.245c0.371-0.159,0.742-0.316,1.111-0.476c0.646-0.28,1.313-0.527,1.957-0.808
		c0.138-0.062,0.268-0.168,0.433-0.172C16.405,14.159,16.33,14.282,16.253,14.319"/>
	<path clip-path="url(#SVGID_4_)" fill="#231F20" d="M17.006,12.685c-0.001,0-0.001,0-0.002,0.001
		c-0.059,0.02-0.127,0.028-0.186,0.045c-0.248,0.069-0.492,0.141-0.738,0.21c-0.652,0.183-1.303,0.372-1.959,0.545
		c-0.242,0.064-0.485,0.134-0.734,0.18c0.383-0.126,0.767-0.248,1.149-0.375c0.668-0.221,1.354-0.408,2.02-0.631
		c0.145-0.048,0.284-0.144,0.448-0.132C17.173,12.539,17.087,12.654,17.006,12.685"/>
	<path clip-path="url(#SVGID_4_)" fill="#231F20" d="M17.738,10.987c0,0.001-0.001,0.001-0.002,0.001
		c-0.06,0.018-0.129,0.023-0.188,0.038c-0.249,0.059-0.497,0.121-0.746,0.18c-0.659,0.156-1.316,0.318-1.979,0.465
		c-0.244,0.054-0.49,0.113-0.74,0.149c0.387-0.108,0.777-0.216,1.164-0.327c0.676-0.194,1.368-0.353,2.044-0.548
		c0.146-0.043,0.288-0.133,0.452-0.115C17.91,10.849,17.82,10.961,17.738,10.987"/>
	<path clip-path="url(#SVGID_4_)" fill="#231F20" d="M18.417,9.336h-0.003c-0.06,0.015-0.128,0.016-0.189,0.026
		c-0.252,0.044-0.503,0.092-0.755,0.135c-0.668,0.116-1.334,0.238-2.004,0.345c-0.248,0.038-0.497,0.082-0.749,0.103
		c0.394-0.085,0.788-0.169,1.181-0.255c0.688-0.154,1.389-0.269,2.074-0.424c0.148-0.034,0.296-0.115,0.458-0.087
		C18.597,9.207,18.5,9.315,18.417,9.336"/>
	<path clip-path="url(#SVGID_4_)" fill="#231F20" d="M19.103,7.807L19.1,7.808c-0.06,0.013-0.129,0.013-0.19,0.021
		c-0.253,0.037-0.505,0.078-0.758,0.115c-0.671,0.097-1.341,0.201-2.014,0.289c-0.248,0.032-0.498,0.07-0.75,0.084
		c0.396-0.074,0.792-0.148,1.188-0.224c0.691-0.134,1.395-0.232,2.084-0.368c0.149-0.029,0.298-0.106,0.461-0.073
		C19.286,7.684,19.186,7.788,19.103,7.807"/>
	<path clip-path="url(#SVGID_4_)" fill="#231F20" d="M19.656,6.309c0,0-0.002,0-0.003,0.001c-0.06,0.007-0.13,0.002-0.19,0.006
		c-0.255,0.018-0.511,0.039-0.766,0.056c-0.676,0.048-1.351,0.101-2.029,0.137c-0.25,0.015-0.502,0.032-0.755,0.029
		c0.4-0.045,0.801-0.088,1.201-0.135c0.7-0.081,1.408-0.125,2.105-0.209c0.151-0.019,0.308-0.083,0.466-0.039
		C19.849,6.201,19.741,6.294,19.656,6.309"/>
	<path clip-path="url(#SVGID_4_)" fill="#231F20" d="M20.321,4.711c-0.002,0-0.003,0-0.003,0.001
		c-0.069,0.015-0.15,0.013-0.222,0.022c-0.294,0.041-0.587,0.085-0.88,0.124c-0.778,0.108-1.555,0.221-2.335,0.316
		c-0.289,0.035-0.579,0.076-0.87,0.09c0.461-0.083,0.922-0.163,1.382-0.248c0.804-0.149,1.618-0.254,2.422-0.405
		c0.174-0.033,0.352-0.121,0.535-0.081C20.54,4.57,20.418,4.69,20.321,4.711"/>
	<path clip-path="url(#SVGID_4_)" fill="#231F20" d="M21.161,2.959h-0.003c-0.069,0.012-0.15,0.008-0.222,0.015
		c-0.295,0.028-0.589,0.06-0.884,0.089c-0.564,0.054-1.129,0.113-1.694,0.165c-0.519,0.047-1.005,0.136-1.53,0.145
		c-0.212,0.004-0.427,0.018-0.638-0.001c-0.101-0.008-0.235,0.004-0.322-0.044c0.06-0.115,0.412-0.062,0.531-0.067
		c0.253-0.01,0.517-0.012,0.771-0.051c0.26-0.04,0.516-0.093,0.778-0.122c0.27-0.03,0.534,0.005,0.801-0.012
		c0.636-0.04,1.282-0.145,1.911-0.237c0.176-0.026,0.355-0.107,0.539-0.061C21.386,2.827,21.26,2.941,21.161,2.959"/>
	<path clip-path="url(#SVGID_4_)" fill="#231F20" d="M21.7,1.61c-0.002,0.001-0.003,0-0.004,0.001
		c-0.069,0.007-0.15,0.001-0.221,0.005c-0.297,0.015-0.592,0.036-0.888,0.053c-0.566,0.031-1.133,0.066-1.701,0.095
		c-0.52,0.028-1.007,0.096-1.533,0.083c-0.214-0.005-0.427,0.001-0.638-0.026c-0.1-0.012-0.235-0.006-0.32-0.058
		c0.064-0.112,0.415-0.045,0.533-0.045c0.253,0,0.518,0.009,0.772-0.019c0.261-0.029,0.52-0.072,0.783-0.091
		c0.271-0.019,0.533,0.027,0.801,0.022c0.636-0.015,1.286-0.093,1.919-0.161c0.176-0.018,0.359-0.091,0.54-0.038
		C21.929,1.487,21.798,1.595,21.7,1.61"/>
	<path clip-path="url(#SVGID_4_)" fill="#231F20" d="M22.622,10.729c-0.103-0.275-0.221-0.553-0.334-0.824
		c-0.062-0.147-0.172-0.329-0.112-0.488c0.118,0.09,0.231,0.369,0.3,0.505c0.1,0.196,0.188,0.391,0.271,0.593
		c0.109,0.272,0.256,0.535,0.419,0.776c0.136,0.203,0.382,0.379,0.396,0.641c0.014,0.2-0.099,0.115-0.173,0.003
		c-0.137-0.211-0.311-0.373-0.456-0.566C22.794,11.188,22.701,10.942,22.622,10.729"/>
	<path clip-path="url(#SVGID_4_)" fill="#231F20" d="M23.278,9.54c-0.104-0.275-0.222-0.552-0.335-0.823
		c-0.062-0.148-0.171-0.33-0.112-0.489c0.119,0.09,0.232,0.37,0.301,0.505c0.099,0.197,0.188,0.392,0.27,0.594
		c0.108,0.271,0.256,0.534,0.419,0.776c0.136,0.202,0.382,0.378,0.396,0.641c0.013,0.2-0.1,0.115-0.174,0.002
		c-0.137-0.21-0.311-0.373-0.456-0.565C23.449,9.998,23.356,9.753,23.278,9.54"/>
	<path clip-path="url(#SVGID_4_)" fill="#231F20" d="M24.551,8.378c-0.149-0.3-0.317-0.598-0.479-0.891
		c-0.087-0.159-0.233-0.35-0.188-0.541c0.146,0.086,0.308,0.386,0.399,0.532c0.137,0.209,0.261,0.418,0.379,0.637
		c0.157,0.293,0.354,0.573,0.567,0.825c0.176,0.209,0.475,0.374,0.524,0.67c0.039,0.228-0.098,0.149-0.193,0.031
		c-0.18-0.22-0.396-0.379-0.582-0.578C24.802,8.876,24.666,8.608,24.551,8.378"/>
	<path clip-path="url(#SVGID_4_)" fill="#231F20" d="M25.369,6.813c-0.17-0.29-0.358-0.576-0.538-0.857
		c-0.098-0.154-0.257-0.334-0.225-0.528c0.15,0.075,0.33,0.365,0.436,0.504c0.148,0.199,0.287,0.4,0.419,0.61
		c0.177,0.283,0.39,0.548,0.62,0.786c0.191,0.196,0.499,0.341,0.569,0.633c0.054,0.225-0.089,0.155-0.192,0.043
		c-0.194-0.207-0.419-0.351-0.619-0.537C25.651,7.292,25.498,7.036,25.369,6.813"/>
</g>
</svg>
