<?xml version="1.0" encoding="utf-8"?>
<!-- Generator: Adobe Illustrator 16.0.0, SVG Export Plug-In . SVG Version: 6.00 Build 0)  -->
<!DOCTYPE svg PUBLIC "-//W3C//DTD SVG 1.1//EN" "http://www.w3.org/Graphics/SVG/1.1/DTD/svg11.dtd">
<svg version="1.1" id="Calque_1" xmlns="http://www.w3.org/2000/svg" xmlns:xlink="http://www.w3.org/1999/xlink" x="0px" y="0px"
	 width="33.881px" height="31.03px" viewBox="0 0 33.881 31.03" enable-background="new 0 0 33.881 31.03" xml:space="preserve">
<g>
	<defs>
		<rect id="SVGID_1_" y="0" width="33.881" height="31.031"/>
	</defs>
	<clipPath id="SVGID_2_">
		<use xlink:href="#SVGID_1_"  overflow="visible"/>
	</clipPath>
	<path clip-path="url(#SVGID_2_)" fill="#231F20" d="M1.712,26.792c0.867-0.479,2.024-0.054,2.777,0.42
		c1.23,0.769,2.164,1.912,3.7,2.055c0.369,0.034,0.747-0.044,1.061-0.25c0.399-0.262,0.813-0.488,1.191-0.783
		c1.137-0.889,1.943-2.108,2.555-3.401c0.24-0.506,0.452-1.024,0.653-1.549c0.105-0.274,0.207-0.553,0.306-0.83
		c0.065-0.182,0.154-0.733,0.3-0.848c0.457-0.36,0.667,0.447,0.581,0.746c0,0-1.831,6.54-5.741,7.748
		c0.044-0.014,0.369,0.2,0.419,0.221c0.355,0.149,0.734,0.246,1.116,0.302c1.259,0.185,2.573-0.099,3.549-0.942
		c0.963-0.833,1.575-1.987,2.147-3.103c0.543-1.061,1.053-2.145,1.49-3.256c0.228-0.578,0.463-1.175,0.593-1.785
		c0.05-0.238,0.36-0.587,0.608-0.617c0.435-0.056,0.299,0.573,0.235,0.828c0,0-2.422,8.072-5.306,9.197
		c1.932,0.191,3.941,0.058,5.836-0.347c1.598-0.341,2.406-1.624,2.76-3.124c0,0,0.844-3.587-0.041-7.23c0,0-0.098-0.999,0.731-1.041
		c0,0,0.689-0.043,0.984,1.618c0,0,1.18,6.709-1.437,9.198c0,0,4.571-0.42,8.904-5.426c0,0,4.825-6.624,0.171-10.325
		c0,0-2.095-1.576-6.356,0.196c0,0-0.423,0.14-0.563-0.282c-0.14-0.421-0.074-0.152-0.074-0.152S1.728,26.782,1.712,26.792"/>
</g>
<g>
	<defs>
		<path id="SVGID_3_" d="M25.499,14.463c0,0-0.423,0.139-0.564-0.282c-0.139-0.421-0.072-0.151-0.072-0.151
			S1.728,26.782,1.712,26.792c0.867-0.478,2.024-0.053,2.777,0.419c1.23,0.771,2.165,1.913,3.699,2.056
			c0.369,0.033,0.747-0.044,1.062-0.25c0.399-0.263,0.813-0.487,1.192-0.782c1.137-0.89,1.942-2.109,2.554-3.401
			c0.24-0.506,0.453-1.025,0.652-1.549c0.106-0.276,0.207-0.553,0.307-0.831c0.064-0.181,0.154-0.733,0.3-0.849
			c0.457-0.359,0.667,0.448,0.581,0.746c0,0-1.831,6.541-5.742,7.748c0.045-0.014,0.37,0.2,0.42,0.223
			c0.355,0.148,0.734,0.245,1.116,0.301c1.259,0.185,2.573-0.099,3.549-0.942c0.963-0.833,1.575-1.986,2.147-3.102
			c0.544-1.062,1.053-2.146,1.49-3.256c0.227-0.578,0.462-1.176,0.593-1.786c0.049-0.239,0.359-0.587,0.607-0.617
			c0.435-0.055,0.301,0.574,0.235,0.828c0,0-2.422,8.073-5.306,9.198c1.932,0.19,3.941,0.056,5.836-0.348
			c1.598-0.342,2.407-1.624,2.76-3.124c0,0,0.844-3.587-0.041-7.229c0,0-0.097-1,0.732-1.042c0,0,0.688-0.043,0.983,1.618
			c0,0,1.18,6.71-1.437,9.198c0,0,4.571-0.42,8.903-5.427c0,0,4.825-6.623,0.172-10.325c0,0-0.858-0.646-2.594-0.646
			C28.286,13.621,27.033,13.825,25.499,14.463"/>
	</defs>
	<clipPath id="SVGID_4_">
		<use xlink:href="#SVGID_3_"  overflow="visible"/>
	</clipPath>
	<path clip-path="url(#SVGID_4_)" fill="#231F20" d="M1.712,26.792c0.867-0.479,2.024-0.054,2.777,0.42
		c1.23,0.769,2.164,1.912,3.7,2.055c0.369,0.034,0.747-0.044,1.061-0.25c0.399-0.262,0.813-0.488,1.191-0.783
		c1.137-0.889,1.943-2.108,2.555-3.401c0.24-0.506,0.452-1.024,0.653-1.549c0.105-0.274,0.207-0.553,0.306-0.83
		c0.065-0.182,0.154-0.733,0.3-0.848c0.457-0.36,0.667,0.447,0.581,0.746c0,0-1.831,6.54-5.741,7.748
		c0.044-0.014,0.369,0.2,0.419,0.221c0.355,0.149,0.734,0.246,1.116,0.302c1.259,0.185,2.573-0.099,3.549-0.942
		c0.963-0.833,1.575-1.987,2.147-3.103c0.543-1.061,1.053-2.145,1.49-3.256c0.228-0.578,0.463-1.175,0.593-1.785
		c0.05-0.238,0.36-0.587,0.608-0.617c0.435-0.056,0.299,0.573,0.235,0.828c0,0-2.422,8.072-5.306,9.197
		c1.932,0.191,3.941,0.058,5.836-0.347c1.598-0.341,2.406-1.624,2.76-3.124c0,0,0.844-3.587-0.041-7.23c0,0-0.098-0.999,0.731-1.041
		c0,0,0.689-0.043,0.984,1.618c0,0,1.18,6.709-1.437,9.198c0,0,4.571-0.42,8.904-5.426c0,0,4.825-6.624,0.171-10.325
		c0,0-2.095-1.576-6.356,0.196c0,0-0.423,0.14-0.563-0.282c-0.14-0.421-0.074-0.152-0.074-0.152S1.728,26.782,1.712,26.792"/>
	<path clip-path="url(#SVGID_4_)" fill="#231F20" d="M9.514,30.32c-0.05-0.021-0.375-0.234-0.419-0.222
		c1.841-0.569,3.22-2.319,4.165-4.012c0.075-0.027,0.116,0.033,0.099,0.242c0.263-0.563,0.481-1.146,0.722-1.717
		c0.1-0.233,0.225-0.442,0.328-0.675c0.109-0.25,0.167-0.536,0.378-0.727c0.203,0.119-0.034,0.412,0.019,0.589
		c0.127-0.063,0.376-0.979,0.471-0.481c0.108,0.566-0.553,1.134-0.451,1.66c0.364-0.208,0.447-1.206,0.816-1.219
		c0.153,0.427-0.239,0.686-0.161,1.102c0.206-0.084,0.366-0.512,0.468-0.701c0.298,0.183-0.472,1.302-0.586,1.528
		c-0.33,0.661-0.595,1.317-1.013,1.926c-0.253,0.365-0.839,1.044-0.664,1.533c0.294-0.079,0.508-0.433,0.669-0.667
		c0.213-0.311,0.401-0.642,0.643-0.932c0.061-0.073,0.195-0.264,0.304-0.249c0.175,0.021-0.006,0.309-0.028,0.391
		c0.204-0.033,0.355-0.322,0.435-0.484c0.124-0.253,0.205-0.526,0.337-0.775c0.148-0.274,0.437-0.973,0.712-1.083
		c0.091-0.034,0.149-0.041,0.186-0.027c-0.201,0.422-0.406,0.843-0.618,1.258c-0.572,1.114-1.184,2.268-2.147,3.101
		c-0.976,0.845-2.29,1.127-3.549,0.944C10.248,30.566,9.869,30.469,9.514,30.32"/>
	<path clip-path="url(#SVGID_4_)" fill="#231F20" d="M29.746,25.94c0.107,0.062,0.173,0.234,0.26,0.366
		c-3.757,3.392-7.226,3.711-7.226,3.711c2.271-2.16,1.683-7.497,1.487-8.869c1.219,1.47,1.193,3.788,1.225,5.591
		c0.014,0.791,0.02,1.647-0.086,2.405c0.441,0.097,0.843-2.034,1.019-2.292c0.179,0.11-0.141,1.326-0.219,1.523
		c0.276-0.566,0.471-1.108,0.688-1.694c0.146-0.396,0.278-1.168,0.619-1.428c0.602,0.344-0.386,1.533,0.348,1.692
		c0.296-0.26,0.275-0.716,0.431-1.038c0.286,0.091,0.193,0.385,0.479,0.487C28.905,26.023,29.367,25.723,29.746,25.94"/>
	<path clip-path="url(#SVGID_4_)" fill="#231F20" d="M4.489,27.211c-0.051-0.031-0.104-0.063-0.157-0.095
		c0.107-0.062,0.207-0.123,0.293-0.181c0.362-0.248,0.955-0.937,1.407-0.942c0.49-0.007,0.186,0.349,0.158,0.657
		c0.325-0.051,0.487-0.416,0.812-0.487c0.042,0.13,0.106,0.274,0.105,0.421c0.582-0.053,0.817-1.16,1.443-1.111
		c-0.091,0.501-0.511,1.395-0.16,1.811c0.641,0.76,0.883-0.631,1.299-0.607c-0.042,0.12,0.003,0.217-0.043,0.334
		c-0.029,0.07,0.249,0.017,0.264,0.014c0.148-0.051,0.262-0.211,0.368-0.315c0.241-0.23,0.422-0.503,0.572-0.806
		c0.081-0.161,0.15-0.358,0.254-0.505c0.28-0.396,0.159,0.145,0.175,0.352c0.086-0.099,0.348-0.904,0.512-0.831
		c0.139,0.064-0.167,0.669,0.134,0.581c0.109-0.03,0.128-0.277,0.245-0.336c0.136,0.192-0.04,0.575-0.103,0.765
		c-0.048,0.144-0.106,0.284-0.154,0.429c-0.031,0.09-0.03,0.368-0.068,0.419c-0.405,0.541-0.866,1.038-1.404,1.458
		c-0.379,0.295-0.793,0.521-1.191,0.783c-0.315,0.206-0.693,0.284-1.062,0.25C6.653,29.124,5.718,27.981,4.489,27.211"/>
	<path clip-path="url(#SVGID_4_)" fill="#231F20" d="M19.719,25.522c-0.563,1.234-1.145,2.384-1.508,3.669
		c-0.114,0.408-0.327,1.093-0.18,1.5c0.259-0.095,1.066-1.08,1.048-0.33c0.84-0.704,1.115-2.282,1.339-3.282
		c0.179-0.803,0.459-1.585,0.58-2.401c0.071-0.478,0.029-1.03,0.275-1.465c0.177,0.114,0.402,0.542,0.357,0.747
		c0.208-0.209,0.307-0.486,0.414-0.751c0.342,0.318,0.08,0.914,0.166,1.317c0.008,0.034,0.172,0.396,0.186,0.372
		c0.38-0.667,0.199-1.03,0.247-1.723c0.021-0.302,0.097-0.642,0.185-0.966c0.277,2.866-0.286,5.263-0.286,5.263
		c-0.354,1.5-1.162,2.783-2.76,3.124c-1.896,0.404-3.904,0.538-5.835,0.349c1.341-0.524,2.582-2.548,3.525-4.566
		c0.104-0.223,0.328-0.422,0.443-0.658c0.135-0.274,0.242-0.563,0.37-0.841c0.255-0.547,0.56-1.072,0.776-1.639
		c0.131-0.347,0.165-0.716,0.258-1.076c0.07-0.273,0.097-0.737,0.247-0.968c0.271,0.062,0.027,1.339,0.11,1.604
		c0.194-0.185,0.089-0.513,0.217-0.729c0.149,0.073,0.132,0.359,0.144,0.511c0.014,0.193,0.119,0.528,0.235,0.154
		c0.225,0.11,0.111,0.677,0.087,0.875C20.274,24.297,20.007,24.892,19.719,25.522"/>
	<path clip-path="url(#SVGID_4_)" fill="#231F20" d="M33.872,18.171c-0.342-1.086-1.029-2.818-1.762-2.744
		c0.057,0.266,0.288,0.567,0.101,0.821c-0.42-0.193-0.521-0.884-0.943-1.142c-0.057,0.327,0.446,0.58,0.204,0.932
		c-0.378-0.283-0.627-0.777-0.97-1.124c-0.4-0.404-0.932-0.647-1.465-0.824c-0.419-0.138-0.834-0.228-1.284-0.215
		c-0.335,0.01-0.755,0.129-1.16,0.19c3.526-1.103,5.263,0.202,5.263,0.202C33.266,15.389,33.805,16.779,33.872,18.171"/>
	<path clip-path="url(#SVGID_4_)" fill="#231F20" d="M28.431,16.314c0.629-0.04,1.354,0.538,1.825,0.902
		c0.601,0.466,1.146,0.998,1.653,1.564c0.218,0.243,0.521,0.826,0.882,0.831c-0.078-0.178-0.148-0.392-0.111-0.582
		c0.313,0.227,0.541,1.097,0.979,1.25c-0.56,2.369-1.975,4.313-1.975,4.313c-0.106,0.122-0.214,0.241-0.319,0.359
		c-0.017-0.081-0.021-0.185-0.01-0.312c0.05-0.572,0.684-2.769,0.101-3.056c-0.066,0.21-0.029,0.447-0.178,0.638
		c-0.452-1.373-0.681-2.584-1.479-3.925C29.462,17.729,28.507,16.94,28.431,16.314"/>
	<path clip-path="url(#SVGID_4_)" fill="#231F20" d="M6.533,25.248c-0.062-0.17-0.121-0.269-0.156-0.316
		C6.445,25.02,6.496,25.128,6.533,25.248"/>
	<path clip-path="url(#SVGID_4_)" fill="#231F20" d="M6.377,24.932c-0.01-0.015-0.021-0.028-0.031-0.04
		C6.346,24.892,6.358,24.905,6.377,24.932"/>
	<path clip-path="url(#SVGID_4_)" fill="#231F20" d="M3.992,26.382c0.243,0.135,0.457,0.331,0.633,0.554
		c0,0,0.096,0.359,0.264,0.076c0,0,0.191-0.223,0.223-0.918c-0.008,0.153,0.067,0.339,0.074,0.5c0.007,0.196-0.139,0.74,0.073,0.876
		c0.273,0.173,0.522-0.658,0.57-0.807c0.079-0.236,0.13-0.486,0.154-0.734c0.023-0.218,0.07-0.652-0.049-0.849
		c0,0.001,0.433,0.718-0.105,2.373c-0.079,0.242,0.017,0.633,0.358,0.508c0.282-0.103,0.331-0.952,0.368-1.216
		c0.068-0.467,0.144-1.041-0.022-1.497c0.136,0.374,0.283,1.092,0.203,2.396c-0.015,0.222-0.091,0.684,0.237,0.718
		c0.535,0.055,0.344-0.886,0.362-1.171c0.038-0.597,0.087-1.194,0.105-1.791c0.008-0.29,0.058-0.657-0.008-0.942
		c0.085,0.353,0.136,0.712,0.181,1.07c0.085,0.658,0.185,1.384,0.071,2.042c-0.029,0.171-0.097,0.338-0.108,0.513
		c-0.007,0.103,0.011,0.399,0.112,0.461c0.605,0.372,1.081-3.011,1.098-3.269c0.017-0.261,0.018-0.523,0.01-0.785
		c-0.009-0.243,0.018-0.57-0.055-0.801c0.114,0.357,0.152,0.731,0.203,1.104c0.054,0.394,0.047,0.769,0.011,1.161
		c-0.041,0.458-0.06,0.914-0.232,1.348c-0.107,0.27-0.657,1.129-0.352,1.401c0.118,0.105,0.368-0.092,0.438-0.18
		c0.229-0.29,0.344-0.809,0.467-1.156c0.294-0.831,0.502-1.703,0.589-2.579c0.048-0.479,0.128-1.139-0.026-1.604
		c0.345,1.039,0.233,2.298-0.013,3.338c-0.065,0.276-0.139,0.552-0.208,0.829c-0.035,0.143-0.236,0.627-0.178,0.758
		c0.134,0.298,0.454-0.144,0.536-0.261c0.215-0.311,0.345-0.671,0.492-1.018c0.259-0.606,0.449-1.232,0.56-1.885
		c0.063-0.364,0.091-0.736,0.091-1.105c0.001-0.481-0.049-0.962-0.1-1.439c0.094,0.285,0.112,0.602,0.141,0.898
		c0.075,0.747,0.068,1.487-0.091,2.226c-0.077,0.353-0.163,0.705-0.274,1.049c-0.034,0.105-0.632,1.15-0.298,1.165
		c0.323,0.015,0.475-0.352,0.607-0.584c0.491-0.868,0.919-1.708,1.139-2.69c0.062-0.273,0.107-0.552,0.139-0.831
		c0.064-0.599,0.097-1.353-0.118-1.927c0.281,0.748,0.386,1.579,0.323,2.373c-0.014,0.167-0.033,0.333-0.055,0.5
		c-0.011,0.087-0.178,0.594,0.049,0.56c0.147-0.023,0.227-0.353,0.285-0.468c0.089-0.179,0.178-0.356,0.266-0.535
		c0.214-0.438,0.424-0.875,0.625-1.318c0.091-0.204,0.217-0.423,0.272-0.64c-0.028,0.112-0.054,0.216-0.074,0.275
		c-0.1,0.278-0.201,0.555-0.307,0.83c-0.2,0.524-0.412,1.043-0.652,1.549c-0.612,1.293-1.418,2.513-2.555,3.402
		c-0.379,0.294-0.793,0.52-1.191,0.782c-0.315,0.206-0.693,0.283-1.062,0.25c-1.535-0.143-2.469-1.285-3.699-2.056
		c-0.753-0.473-1.91-0.896-2.777-0.419c0.001-0.001,0.173-0.097,0.482-0.266c0.309-0.149,0.638-0.277,0.98-0.315
		C3.471,26.178,3.747,26.247,3.992,26.382"/>
	<path clip-path="url(#SVGID_4_)" fill="#231F20" d="M14.197,24.136c-0.658,1.595-1.319,3.136-2.396,4.506
		c-0.152,0.192-0.306,0.39-0.476,0.565c-0.118,0.125-0.321,0.268-0.347,0.452c-0.029,0.228,0.57-0.174,0.587-0.188
		c0.2-0.171,0.403-0.34,0.591-0.523c0.588-0.579,1.086-1.249,1.479-1.975c0.284-0.524,0.505-1.079,0.665-1.653
		c-0.021,0.071-0.002,0.164-0.006,0.237c-0.014,0.24-0.074,0.475-0.141,0.706c-0.259,0.874-0.684,1.626-1.269,2.323
		c-0.213,0.255-0.437,0.502-0.662,0.746l-0.316,0.343c-0.09,0.099-0.287,0.192-0.288,0.339c0,0.059,0.465-0.12,0.502-0.142
		c0.238-0.139,0.411-0.361,0.6-0.558c0.583-0.606,1.074-1.354,1.472-2.089c0.305-0.564,0.565-1.146,0.769-1.752
		c-0.105,0.309-0.178,0.637-0.281,0.949c-0.238,0.729-0.57,1.394-0.978,2.04c-0.12,0.19-0.242,0.377-0.365,0.564
		c-0.082,0.126-0.315,0.364-0.333,0.509c-0.036,0.275,0.443-0.165,0.467-0.187c0.168-0.156,0.333-0.311,0.493-0.478
		c0.485-0.509,0.923-1.065,1.272-1.679c0.218-0.383,0.44-0.811,0.54-1.242c-0.131,0.32-0.188,0.673-0.316,0.997
		c-0.27,0.681-0.579,1.348-1.044,1.919c-0.124,0.154-0.256,0.3-0.389,0.446c-0.038,0.042-0.3,0.271-0.291,0.323
		c0.02,0.113,0.51-0.235,0.547-0.279c0.143-0.17,0.295-0.334,0.441-0.502c0.494-0.565,0.921-1.206,1.31-1.847
		c0.296-0.485,0.572-0.985,0.819-1.5c-0.172,0.358-0.347,0.716-0.527,1.068c-0.398,0.774-0.817,1.563-1.355,2.253l-1.121,1.103
		c-0.93,0.645-2.097,0.853-3.22,0.689c-0.382-0.055-0.761-0.152-1.117-0.301c-0.049-0.022-0.375-0.236-0.419-0.222
		C11.683,29.299,13.358,26.164,14.197,24.136"/>
	<path clip-path="url(#SVGID_4_)" fill="#231F20" d="M17.295,24.531l-0.035,0.104c-0.087,0.193-0.175,0.385-0.265,0.578
		C17.097,24.992,17.197,24.767,17.295,24.531"/>
	<path clip-path="url(#SVGID_4_)" fill="#231F20" d="M18.497,29.02c0,0-0.327,0.97,0.147,0.549c0,0,1.192-1.436,1.583-3.693
		c0,0-0.391,2.521-1.467,4.251c0,0-0.422,0.687,0.253,0.179c0.151-0.112,0.236-0.171,0.279-0.194c0.38-0.505,1.188-1.85,1.789-4.73
		c0,0-0.433,3.08-1.171,4.399c0,0-0.201,0.61,0.348,0.042c0,0,1.002-1.16,1.277-3.713c0,0-0.17,2.394-0.581,3.218
		c0,0-0.296,0.8,0.284,0.062c0,0,0.687-0.737,0.94-2.034c0,0-0.1,1.171-0.743,2.333c-0.422,0.439-0.964,0.765-1.654,0.91
		c-1.896,0.404-3.904,0.538-5.836,0.349c1.329-0.52,2.56-2.512,3.5-4.51c-0.345,1.006-1.004,2.734-1.713,3.574
		c0,0-0.507,0.59,0.106,0.21c0,0,1.308-0.821,2.691-4.957c0,0-0.56,2.542-1.7,4.451c0,0-0.2,0.612,0.222,0.139
		c0,0,0.622-0.877,1.361-2.827c0,0-0.464,1.931-1.172,2.974c0,0-0.084,0.539,0.338,0.116c0,0,0.749-1.286,1.267-3.217
		C18.846,26.898,18.804,28.248,18.497,29.02"/>
	<path clip-path="url(#SVGID_4_)" fill="#231F20" d="M33.881,18.486c-0.012,0.063-0.025,0.122-0.039,0.182l0.006-0.829
		C33.87,18.054,33.881,18.271,33.881,18.486"/>
	<path clip-path="url(#SVGID_4_)" fill="#231F20" d="M31.685,24.592c-4.333,5.007-8.904,5.427-8.904,5.427
		c2.449-2.329,1.571-8.358,1.45-9.118c0.341,1.203,0.938,3.866,0.533,6.7c0,0-0.437,1.294,0.436,0.533c0,0,1.702-2.138,0.228-7.903
		c0,0,1.63,3.207,0.532,7.089c0,0-0.099,1.392,0.759,0.239c0,0,1.929-4.276,0.003-7.947c0,0,1.954,3.544,0.982,6.892
		c0,0,0.085,0.605,0.661,0.226c0,0,0.45-0.197,0.466-0.929c0,0,0.295-2.419-1.448-6.033c0,0,1.363,1.913,1.995,5.289
		c0,0,0.169,0.435,0.479,0.099c0,0,0.422-0.211,0.295-0.662c0,0-0.533-3.572-2.698-5.711c0,0,2.109,1.266,3.205,5.613
		c0,0,0.437,0.465,0.675-0.506c0,0,0.24-3.08-3.106-6.232c0,0,1.871,0.971,3.347,5.05c0,0,0.618,0.661,0.646-0.591
		c0,0-0.097-2.896-3.865-5.275c0,0,2.812,1.056,4.063,4.39c0,0,0.52,0.577,0.464-0.438c0,0-0.8-2.826-2.488-3.882
		c0,0,1.701,0.817,2.572,2.87c0,0,0.268,0.31,0.437-0.168c0,0,0.289-0.344,0.44-0.946l-0.005,0.58
		C33.53,22.057,31.685,24.592,31.685,24.592"/>
	<path clip-path="url(#SVGID_4_)" fill="#231F20" d="M23.237,14.853c0,0,3.333,2.405,4.208,6.984c0,0-1.434-5.148-4.693-6.542
		L23.237,14.853z"/>
	<path clip-path="url(#SVGID_4_)" fill="#231F20" d="M20.589,16.122c0,0,1.435,4.164-0.902,10.661c0,0,1.984-6.265,0.593-10.243
		L20.589,16.122z"/>
	<path clip-path="url(#SVGID_4_)" fill="#231F20" d="M16.591,18.583c0,0,0.368,3.528-1.546,7.144c0,0,2.168-3.488,1.845-7.201
		l-0.31-0.085"/>
</g>
<g>
	<defs>
		<rect id="SVGID_5_" y="0" width="33.881" height="31.031"/>
	</defs>
	<clipPath id="SVGID_6_">
		<use xlink:href="#SVGID_5_"  overflow="visible"/>
	</clipPath>
	<path clip-path="url(#SVGID_6_)" fill="#231F20" d="M1.715,26.794c0.977-0.54-0.258-2.729-0.544-3.382
		c-0.425-0.967-1.174-3.143,0.067-3.68c1.051-0.454,2.229-0.696,3.357-0.852c1.165-0.16,2.366-0.209,3.536-0.086
		c0.319,0.034,1.166,0.29,1.444,0.036c0.765-0.694-1.732-1.172-2.007-1.207c0,0-5.57-0.534-7.568,1.771
		c1.444-1.667-0.216-5.842,2.815-6.048c0,0,3.713-0.252,7.482,1.352c0,0,2.278,0.93,2.645,0.902c0,0,0.814,0.337,0.9-0.394
		c0.137-1.18-3.339-2.072-4.176-2.357c-1.82-0.621-3.721-1.215-5.655-1.3c-0.588-0.026-2.015-0.084-2.434,0.474
		c0.001,0,0.845-1.125,1.492-1.997c0.385-0.392,0.762-0.833,1.036-1.311C4.618,7.82,4.882,7.204,6.052,7.3
		c3.216,0.268,6.379,1.982,8.97,3.86c0.443,0.321,1.205,1.311,1.878,0.794c0.643-0.492-0.252-1.304-0.653-1.612
		c-1.594-1.226-3.624-1.989-5.483-2.696c-0.692-0.263-1.376-0.534-2.078-0.763C8.29,6.752,6.133,5.955,5.77,6.315
		c0.001-0.001,3.659-3.656,6.359-3.571c2.175,0.069,3.777,1.443,5.263,3.013c0.764,0.808,1.438,1.69,2.142,2.55
		c0.358,0.438,1.369,2.013,2.072,1.782c1.989-0.652-4.021-6.75-4.584-7.193c-0.427-0.337-2.395-1.86-2.979-1.585
		c0.002-0.001,6.894-3.233,13.277,0.453c0.226,0.131,0.438,0.315,0.643,0.476c0.51,0.404,0.983,0.855,1.39,1.363
		c0.494,0.615,0.899,1.311,1.175,2.052c0.305,0.826,0.418,1.708,0.154,2.561c-0.358,1.161-0.979,2.114-1.891,2.873
		c-0.633,0.527-1.138,0.737-1.689,1.03c-0.364,0.195-0.729,0.42-1.106,0.587c0,0-1.859,0.819-1.129,1.325
		C24.865,14.031,1.785,26.755,1.715,26.794"/>
</g>
<g>
	<defs>
		<path id="SVGID_7_" d="M1.577,12.025c0,0,0-0.001,0.002-0.002C1.578,12.023,1.577,12.024,1.577,12.025 M14.042,1.311L14.042,1.311
			 M20.405,0c-3.606,0.026-6.336,1.298-6.363,1.311c0.585-0.274,2.553,1.248,2.98,1.585c0.562,0.443,6.571,6.54,4.583,7.193
			c-0.703,0.231-1.714-1.344-2.071-1.782c-0.704-0.86-1.378-1.742-2.143-2.55c-1.484-1.57-3.087-2.945-5.263-3.013
			C9.428,2.659,5.771,6.315,5.77,6.316c0.363-0.362,2.52,0.437,2.916,0.567c0.702,0.23,1.386,0.5,2.078,0.762
			c1.859,0.708,3.889,1.472,5.483,2.697c0.4,0.308,1.296,1.12,0.652,1.612c-0.672,0.517-1.434-0.472-1.877-0.793
			C12.431,9.282,9.267,7.569,6.052,7.3c-1.17-0.097-1.434,0.521-1.947,1.416c-0.274,0.478-0.651,0.919-1.037,1.312
			c-0.63,0.85-1.448,1.94-1.489,1.995C2,11.466,3.423,11.524,4.01,11.55c1.935,0.085,3.835,0.679,5.656,1.3
			c0.837,0.285,4.313,1.177,4.176,2.357c-0.086,0.731-0.901,0.393-0.901,0.393c-0.366,0.029-2.644-0.901-2.644-0.901
			c-3.768-1.604-7.483-1.352-7.483-1.352c-3.03,0.206-1.369,4.381-2.814,6.048c1.998-2.307,7.567-1.771,7.567-1.771
			c0.276,0.036,2.773,0.513,2.008,1.207c-0.278,0.253-1.125-0.001-1.444-0.037c-1.17-0.123-2.371-0.073-3.537,0.086
			c-1.127,0.157-2.305,0.399-3.356,0.853c-1.241,0.537-0.492,2.714-0.067,3.68c0.286,0.654,1.52,2.841,0.543,3.381
			c0.072-0.039,23.151-12.761,23.151-12.761c-0.731-0.506,1.129-1.326,1.129-1.326c0.378-0.166,0.741-0.392,1.106-0.587
			c0.552-0.292,1.057-0.503,1.689-1.03c0.912-0.759,1.532-1.712,1.891-2.873c0.264-0.852,0.15-1.735-0.155-2.561
			c-0.274-0.74-0.68-1.437-1.174-2.053c-0.406-0.507-0.881-0.958-1.39-1.361c-0.204-0.161-0.418-0.347-0.642-0.477
			C25.043,0.449,22.702,0.015,20.632,0H20.405z"/>
	</defs>
	<clipPath id="SVGID_8_">
		<use xlink:href="#SVGID_7_"  overflow="visible"/>
	</clipPath>
	<path clip-path="url(#SVGID_8_)" fill="#231F20" d="M1.715,26.794c0.977-0.54-0.258-2.729-0.544-3.382
		c-0.425-0.967-1.174-3.143,0.067-3.68c1.051-0.454,2.229-0.696,3.357-0.852c1.165-0.16,2.366-0.209,3.536-0.086
		c0.319,0.034,1.166,0.29,1.444,0.036c0.765-0.694-1.732-1.172-2.007-1.207c0,0-5.57-0.534-7.568,1.771
		c1.444-1.667-0.216-5.842,2.815-6.048c0,0,3.713-0.252,7.482,1.352c0,0,2.278,0.93,2.645,0.902c0,0,0.814,0.337,0.9-0.394
		c0.137-1.18-3.339-2.072-4.176-2.357c-1.82-0.621-3.721-1.215-5.655-1.3c-0.588-0.026-2.015-0.084-2.434,0.474
		c0.001,0,0.845-1.125,1.492-1.997c0.385-0.392,0.762-0.833,1.036-1.311C4.618,7.82,4.882,7.204,6.052,7.3
		c3.216,0.268,6.379,1.982,8.97,3.86c0.443,0.321,1.205,1.311,1.878,0.794c0.643-0.492-0.252-1.304-0.653-1.612
		c-1.594-1.226-3.624-1.989-5.483-2.696c-0.692-0.263-1.376-0.534-2.078-0.763C8.29,6.752,6.133,5.955,5.77,6.315
		c0.001-0.001,3.659-3.656,6.359-3.571c2.175,0.069,3.777,1.443,5.263,3.013c0.764,0.808,1.438,1.69,2.142,2.55
		c0.358,0.438,1.369,2.013,2.072,1.782c1.989-0.652-4.021-6.75-4.584-7.193c-0.427-0.337-2.395-1.86-2.979-1.585
		c0.002-0.001,6.894-3.233,13.277,0.453c0.226,0.131,0.438,0.315,0.643,0.476c0.51,0.404,0.983,0.855,1.39,1.363
		c0.494,0.615,0.899,1.311,1.175,2.052c0.305,0.826,0.418,1.708,0.154,2.561c-0.358,1.161-0.979,2.114-1.891,2.873
		c-0.633,0.527-1.138,0.737-1.689,1.03c-0.364,0.195-0.729,0.42-1.106,0.587c0,0-1.859,0.819-1.129,1.325
		C24.865,14.031,1.785,26.755,1.715,26.794"/>
	<path clip-path="url(#SVGID_8_)" fill="#231F20" d="M22.555,15.287c-0.661,0.365-1.429,0.789-2.271,1.255
		c-0.677-0.189-1.643-0.896-2.157-1.16c-0.897-0.46-1.71-1.039-2.577-1.571c-1.242-0.759-2.633-1.394-3.973-1.991
		c-0.74-0.33-2.991-1.735-3.744-1.18c0.118,0.081,0.187,0.247,0.316,0.324c-0.18,0.18-0.555-0.023-0.663,0.217
		c-0.187,0.413,1.354,0.884,1.095,1.309c-1.485-0.474-3.017-0.871-4.57-0.939c-0.588-0.026-2.015-0.084-2.434,0.474
		c0.001,0,0.845-1.125,1.492-1.997c0.022-0.022,0.045-0.047,0.066-0.07c0.261-0.137,0.543-0.222,0.856-0.26
		c0.629-0.076,1.25,0.066,1.858,0.213c0.306,0.073,0.61,0.151,0.921,0.198c0.183,0.029,0.654,0.157,0.809,0.048
		c-0.01,0.009-0.969-0.626-1.067-0.673C6.861,9.508,7.371,9.685,7.729,9.56C6.718,8.975,5.256,8.937,4.357,8.276
		c0.381-0.648,0.729-1.056,1.695-0.976c3.216,0.268,6.379,1.982,8.97,3.86c0.393,0.285,1.039,1.096,1.65,0.911
		c0.865,0.591,1.729,1.177,2.716,1.62c0.589,0.264,1.194,0.569,1.81,0.766C21.578,14.581,22.278,14.895,22.555,15.287"/>
	<path clip-path="url(#SVGID_8_)" fill="#231F20" d="M24.819,14.037c-0.135,0.074-0.326,0.18-0.574,0.316
		c-2.104-1.152-3.653-2.461-3.979-2.738c-0.953-0.812-2.07-1.512-3.057-2.265c-0.578-0.44-5.416-4.663-5.688-3.542
		c0.227,0.084,0.364,0.256,0.375,0.481c-0.301-0.008-0.541-0.172-0.818-0.059c0.117,0.267,0.427,0.395,0.614,0.603
		c-0.343,0.213-0.627-0.172-0.933-0.074c0.075,0.226-0.136,0.191,0.837,0.851c0.117,0.079-0.301,0.15-0.684,0.093
		c-0.049-0.02-0.099-0.038-0.149-0.057c-0.691-0.262-1.376-0.533-2.078-0.762C8.291,6.752,6.132,5.955,5.77,6.315
		c0,0,0.402-0.399,1.032-0.929C7.476,5.401,8.2,5.516,8.622,5.349C8.538,5.307,8.462,5.225,8.4,5.189
		c0.504-0.599,1.32,0.067,1.888-0.186c-0.148-0.073-0.205-0.193-0.343-0.27c0.33-0.121,0.702-0.047,1.009,0.169
		c-0.377-0.582-1.435-0.677-1.863-1.16c0.995-0.584,2.077-1.028,3.038-0.998c2.174,0.068,3.777,1.442,5.262,3.013
		c0.764,0.808,1.438,1.69,2.142,2.55c0.315,0.386,1.137,1.653,1.809,1.791c0.336,0.399,0.67,0.798,0.999,1.202
		C22.808,11.874,24.313,13.148,24.819,14.037"/>
	<path clip-path="url(#SVGID_8_)" fill="#231F20" d="M15.029,18.77c-0.264-0.115-0.525-0.231-0.788-0.348
		c-0.475-0.208-0.948-0.415-1.427-0.613c-1.216-0.505-2.452-1.005-3.711-1.396c-0.356-0.112-0.713-0.229-1.07-0.332
		c-0.293-0.085-1.015-0.351-1.286-0.246c-0.438,0.17,0.425,0.426,0.472,0.706c-0.302,0.04-0.466-0.039-0.776,0.028
		c-0.196,0.043-0.227,0.311-0.296,0.309c0.943,0.156,1.111,0.346,1.111,0.346l-1.042,0.348C4.438,17.567,1.375,17.809,0,19.396
		c0.434-0.501,0.588-1.23,0.672-2.01c1.365-0.527,4.434-1.345,4.434-1.345c-0.864-0.274-1.561-0.147-1.561-0.147
		c0.731-0.18,1.002-0.218,1.101-0.222c-2.094-0.387-3.216-0.308-3.792-0.169c0.169-1.135,0.573-2.061,1.96-2.156
		c0,0,3.714-0.252,7.483,1.353c0,0,2.267,0.924,2.641,0.9c2.208,1.061,3.772,2.164,4.359,2.604c-0.53,0.292-1.07,0.59-1.621,0.892
		C15.459,19.01,15.12,18.811,15.029,18.77"/>
	<path clip-path="url(#SVGID_8_)" fill="#231F20" d="M16.673,1.361c3.712,2.068,4.429,4.537,4.429,4.537
		c-1.645-2.827-4.092-3.841-4.092-3.841c3.521,2.867,4.222,4.929,4.34,5.852c-1.269-2.022-3.96-4.723-4.328-5.013
		c-0.427-0.337-2.395-1.859-2.979-1.585c0.001-0.001,2.567-1.201,6.014-1.303c0.222,0.001,0.352,0.003,0.352,0.003
		C18.36,0.095,16.673,1.361,16.673,1.361"/>
	<path clip-path="url(#SVGID_8_)" fill="#231F20" d="M29.646,4.951c0.295,0.569,0.041,0.971,0.041,0.971
		c-0.041-0.971-0.59-0.929-0.59-0.929c-0.127,0.465-0.169,0.549-0.169,0.549c0.169-0.549-0.211-0.949-0.211-0.949
		c0.127,0.484-0.379,0.864-0.379,0.864c0.296-0.591-0.105-1.055-0.105-1.055c0.042,0.654-0.443,0.78-0.443,0.78
		c0.401-1.329-0.442-1.856-0.442-1.856c0.779,1.182-0.444,2.68-0.444,2.68c1.009-2.722-1.61-4.851-2.487-5.471
		c0.962,0.275,1.938,0.672,2.903,1.229c0.226,0.131,0.438,0.316,0.643,0.477c0.51,0.403,0.983,0.855,1.39,1.362
		c0.494,0.616,0.899,1.312,1.174,2.053c0.196,0.529,0.312,1.084,0.3,1.639c-0.011,0.052-0.02,0.083-0.02,0.083
		C30.7,5.583,29.646,4.951,29.646,4.951"/>
	<path clip-path="url(#SVGID_8_)" fill="#231F20" d="M0.628,21.724c-0.158-0.846-0.099-1.685,0.61-1.99
		c0.774-0.334,1.994-0.731,2.834-0.886c6.271-0.836,8.513,1.165,9.077,1.644c-1.02,0.562-2.04,1.124-3.026,1.668
		C5.164,20.775,1.147,21.605,0.628,21.724"/>
	<path clip-path="url(#SVGID_8_)" fill="#231F20" d="M2.074,25.854c0.775-0.272,1.807-0.509,1.807-0.509
		c-0.303-0.083-1.237,0.104-1.847,0.244c-0.011-0.052-0.022-0.104-0.035-0.158c0.938-0.425,2.178-0.57,2.178-0.57l0.949-0.107
		c-0.768-0.177-2.265,0.124-3.22,0.359c-0.043-0.129-0.09-0.259-0.14-0.386c1.574-0.612,4.035-0.689,4.035-0.689
		c-1.119-0.52-3.222,0.121-4.135,0.444c-0.062-0.144-0.123-0.28-0.184-0.409c1.273-0.569,4.278-0.9,4.278-0.9
		c-1.642-0.448-3.687,0.172-4.488,0.458c-0.04-0.084-0.075-0.158-0.101-0.218C1.147,23.359,1.122,23.3,1.096,23.24
		c3.453-1.283,7.209-0.381,7.583-0.285c-3.882,2.139-6.939,3.825-6.964,3.838C2.032,26.619,2.115,26.269,2.074,25.854"/>
	<path clip-path="url(#SVGID_8_)" fill="#231F20" d="M19.935,16.631c0,0-0.361-0.299-1.344-0.978c-0.985-0.675-2.58-1.755-5.14-3.15
		c0,0-0.034-0.018-0.095-0.05c-0.062-0.033-0.151-0.077-0.265-0.13c-0.225-0.105-0.536-0.253-0.88-0.416
		c-0.171-0.081-0.35-0.166-0.532-0.252c-0.183-0.081-0.372-0.152-0.555-0.227c-0.363-0.149-0.705-0.289-0.969-0.398
		c0,0,0.453,0.229,1.193,0.585c0.189,0.084,0.386,0.194,0.598,0.313c0.213,0.116,0.441,0.24,0.681,0.372
		c0.487,0.252,1.006,0.563,1.562,0.878c0,0,0.084,0.045,0.232,0.124c0.147,0.079,0.361,0.189,0.612,0.335
		c0.502,0.291,1.187,0.664,1.87,1.081C18.279,15.529,19.69,16.442,19.935,16.631"/>
	<path clip-path="url(#SVGID_8_)" fill="#231F20" d="M16.099,19.285c0,0-0.291-0.184-1.07-0.572
		c-0.782-0.39-2.045-0.995-4.028-1.758c0,0-0.105-0.038-0.279-0.092c-0.172-0.056-0.411-0.133-0.675-0.218
		c-0.131-0.043-0.268-0.087-0.406-0.132C9.5,16.472,9.357,16.431,9.22,16.392c-0.273-0.081-0.531-0.156-0.732-0.215
		c0,0,0.342,0.142,0.902,0.357c0.555,0.227,1.325,0.543,2.187,0.897c0,0,0.262,0.092,0.657,0.244
		c0.393,0.154,0.926,0.352,1.466,0.574C14.782,18.682,15.901,19.172,16.099,19.285"/>
	<path clip-path="url(#SVGID_8_)" fill="#231F20" d="M22.653,4.218c0,0,0.052,0.034,0.146,0.107c0.094,0.076,0.235,0.191,0.41,0.371
		c0.174,0.18,0.39,0.418,0.606,0.751c0.22,0.329,0.452,0.746,0.624,1.273c0.174,0.524,0.307,1.153,0.323,1.88
		c0.016,0.727-0.123,1.53-0.235,2.446c-0.028,0.228-0.058,0.463-0.089,0.703c-0.018,0.241-0.037,0.49-0.057,0.744
		c-0.018,0.255-0.043,0.516-0.055,0.785c-0.01,0.267-0.021,0.542-0.031,0.824l-0.003,0.181c-0.002,0.011,0.002,0.032-0.005,0.031
		l-0.037-0.029c-0.06-0.041-0.119-0.083-0.18-0.126c-0.24-0.17-0.486-0.342-0.738-0.519c-0.502-0.357-1.026-0.729-1.575-1.117
		c0,0-0.233-0.162-0.61-0.423c-0.375-0.263-0.895-0.627-1.468-1.028c-1.138-0.814-2.487-1.79-3.285-2.473c0,0,0.174,0.153,0.49,0.43
		c0.311,0.285,0.795,0.659,1.386,1.138c1.195,0.938,2.887,2.208,4.816,3.582c0,0,0.145,0.1,0.4,0.277
		c0.128,0.088,0.283,0.195,0.462,0.317c0.119,0.082,0.247,0.169,0.38,0.261c0.049,0.034,0.099,0.068,0.149,0.102
		c0.035,0.038,0.024-0.013,0.026-0.042l-0.001-0.093c0.001-0.111,0.002-0.224,0.001-0.339c0.008-1.071,0.092-2.509,0.28-3.971
		c0.087-0.738,0.153-1.502,0.054-2.225c-0.091-0.722-0.302-1.394-0.584-1.948c-0.28-0.554-0.623-0.987-0.92-1.293
		C23.034,4.489,22.787,4.306,22.653,4.218"/>
</g>
<g>
	<defs>
		<rect id="SVGID_9_" y="0" width="33.881" height="31.031"/>
	</defs>
	<clipPath id="SVGID_10_">
		<use xlink:href="#SVGID_9_"  overflow="visible"/>
	</clipPath>
	<path clip-path="url(#SVGID_10_)" fill="#231F20" d="M1.736,26.777c0,0,20.524-11.771,21.349-12.178c0,0,1.569-1.122,1.88-0.756
		c0,0,0.406,0.38-0.662,0.83C24.303,14.674,2.495,26.524,1.736,26.777"/>
</g>
</svg>
