<?xml version="1.0" encoding="utf-8"?>
<!-- Generator: Adobe Illustrator 16.0.0, SVG Export Plug-In . SVG Version: 6.00 Build 0)  -->
<!DOCTYPE svg PUBLIC "-//W3C//DTD SVG 1.1//EN" "http://www.w3.org/Graphics/SVG/1.1/DTD/svg11.dtd">
<svg version="1.1" id="Calque_1" xmlns="http://www.w3.org/2000/svg" xmlns:xlink="http://www.w3.org/1999/xlink" x="0px" y="0px"
	 width="341.005px" height="410.634px" viewBox="0 0 341.005 410.634" enable-background="new 0 0 341.005 410.634"
	 xml:space="preserve">
<g>
	<defs>
		<rect id="SVGID_1_" y="1" width="341.005" height="410.634"/>
	</defs>
	<clipPath id="SVGID_2_">
		<use xlink:href="#SVGID_1_"  overflow="visible"/>
	</clipPath>
	<path clip-path="url(#SVGID_2_)" fill="#005697" d="M255.953,202.465c-1.078-0.829-3.221-1.703-4.76-1.943
		c-1.541-0.241-3.881-0.816-5.201-1.28c-4.109-1.442-12.652-3.343-16-3.561c-5.398-0.35-19.652-6.687-15.199-6.756
		c0.879-0.014,3.219-0.601,5.199-1.303c6.25-2.219,8-2.622,8-1.844c0,0.411-0.527,0.745-1.172,0.745
		c-1.285,0-2.828,2.373-2.828,4.347c0,0.69,0.541,1.253,1.201,1.253s1.199-0.498,1.199-1.106c0-1.454,3.4-2.336,4.113-1.067
		c0.301,0.536,1.299,1.838,2.217,2.896l1.67,1.922l0.004-3.922c0.002-4.684,2.213-8.789,5.381-9.993
		c1.984-0.754,3.371-2.042,3.402-3.159c0.008-0.237-1.518-2.053-3.387-4.038c-1.871-1.983-5.189-6.573-7.377-10.199
		c-2.377-3.939-4.635-6.758-5.611-7.003c-1.541-0.386-7.316,1.778-14.322,5.365c-2.9,1.486-5.643,1.822-12.426,1.525
		c-1.688-0.074-3.615,0.53-5.029,1.574c-2.275,1.683-4.554,1.632-6.785-0.149c-0.521-0.417-1.189-2.803-1.482-5.302
		c-0.295-2.499-1.199-5.703-2.01-7.121c-0.813-1.417-1.699-3.757-1.973-5.2c-0.488-2.568-2.475-6.04-3.068-5.365
		c-0.166,0.188-1.219,1.817-2.342,3.619c-2.041,3.279-6.17,5.923-9.25,5.923c-0.9,0-2.603-0.833-3.785-1.85
		c-1.777-1.528-2.174-2.576-2.283-6.023c-0.112-3.505-0.53-4.569-2.61-6.649c-1.974-1.975-3.199-2.497-6.039-2.577
		c-4.515-0.128-5.593-1.059-7.408-6.395c-1.443-4.25-1.439-4.475,0.266-13.533c0.955-5.067,1.734-10.16,1.734-11.317
		c0-2.848-2.049-3.464-4.345-1.308c-2.302,2.164-8.358,4.052-12.994,4.052c-3.277,0-11.458,3.654-12.708,5.677
		c-0.246,0.397-1.596,0.725-3,0.728c-2.011,0.004-2.849,0.527-3.952,2.465c-1.636,2.873-1.828,6.037-0.4,6.571
		c0.673,0.252,0.302,1.096-1.139,2.587c-2.13,2.204-2.149,2.207-5.009,0.851c-1.578-0.749-3.208-1.154-3.62-0.899
		c-0.413,0.255-2.398,0.049-4.412-0.459c-3.291-0.828-4.063-0.731-7.609,0.952c-2.524,1.199-5.005,3.261-6.879,5.719
		c-2.701,3.542-2.902,4.168-2.536,7.961c0.241,2.511,0.903,4.487,1.699,5.069c0.718,0.525,1.304,1.321,1.304,1.768
		c0,0.448,0.493,1.223,1.094,1.722c0.832,0.69,1.335,0.618,2.099-0.302c0.552-0.665,1.528-1.21,2.17-1.21
		c1.548,0,16.267,6.988,17.987,8.539c0.742,0.67,1.739,0.978,2.215,0.684c0.475-0.294,2.26,0.57,3.965,1.921
		c1.706,1.351,3.436,2.456,3.846,2.456c0.411,0,1.584,0.892,2.609,1.983c1.024,1.09,4.327,3.472,7.34,5.292
		c3.011,1.82,5.926,4.146,6.476,5.17c3.013,5.609,7.263,10.73,10.157,12.239c5.505,2.87,9.642,5.702,9.642,6.603
		c0,2.258-3.115,5.56-9.314,9.877c-6.931,4.824-10.313,8.152-11.526,11.342c-0.376,0.989-1.389,2.175-2.253,2.637
		c-1.33,0.712-2.682-0.019-8.839-4.775c-3.997-3.09-7.267-5.928-7.267-6.309c0-0.38-1.62-2.405-3.601-4.502
		c-1.979-2.095-3.599-4.084-3.599-4.418s-1.247-1.379-2.772-2.32c-1.967-1.216-3.765-1.641-6.199-1.466l-3.43,0.248l0.061,4.4
		c0.034,2.42,0.333,6.333,0.665,8.695c0.582,4.131,0.504,4.399-2.041,7.024c-2.14,2.208-2.481,2.993-1.784,4.106
		c0.473,0.756,1.904,1.498,3.177,1.646c2.064,0.242,3.475,1.28,3.51,2.577c0.032,1.186-6.32,0.15-8.796-1.432
		c-2.525-1.612-2.883-1.66-3.752-0.501c-1.918,2.559,1.131,11.161,4.561,12.866c1.099,0.547,3.564,1,5.475,1.006
		c4.019,0.014,13.707,2.783,17.44,4.985c2.797,1.651,6.689,6.3,6.677,7.974c-0.004,0.58-0.911,2.993-2.015,5.363
		c-1.933,4.153-1.973,4.556-1.076,10.958c0.879,6.281,1.044,6.66,3.009,6.89c1.71,0.199,2.348,0.99,3.588,4.453
		c1.416,3.95,2.658,5.465,9.955,12.144c1.459,1.334,2.413,2.815,2.121,3.288c-0.692,1.117,1.537,3.546,6.026,6.564
		c1.98,1.331,4.912,3.668,6.517,5.188c2.509,2.381,3.271,2.69,5.451,2.211c1.484-0.326,2.869-1.293,3.342-2.332
		c0.445-0.974,2.402-2.644,4.349-3.707c2.869-1.567,3.541-2.353,3.541-4.151c0-2.498,1.268-2.806,5.496-1.332
		c3.256,1.135,4.102,2.797,3.543,6.961c-0.25,1.854-0.119,3.354,0.293,3.354c0.407,0,2.148-1.438,3.867-3.199
		c5.221-5.347,7.344-3.653,4.428,3.529c-0.961,2.372-1.633,5.338-1.488,6.59c0.246,2.147,0.563,2.326,5.449,3.08
		c4.164,0.644,5.25,1.112,5.492,2.37c0.504,2.617-2.232,6.636-5.381,7.906c-1.596,0.64-3.801,2.151-4.9,3.354
		c-1.1,1.205-6.219,5.558-11.375,9.674c-8.906,7.109-9.439,7.701-10.639,11.822c-1.488,5.119-2.15,5.774-6.386,6.293
		c-3.764,0.461-7.231,1.737-7.969,2.931c-0.288,0.469-1.231,0.85-2.093,0.85c-1.246,0-1.471,0.386-1.096,1.88
		c0.26,1.036-0.131,3.959-0.869,6.497c-1.136,3.908-1.179,4.916-0.282,6.593c0.951,1.776,1.391,1.922,4.284,1.418
		c5.474-0.949,14.857-1.093,17.234-0.265c2.427,0.845,3.64,2.705,2.304,3.531c-0.506,0.312-0.265,1.114,0.627,2.1
		c0.951,1.052,1.446,2.863,1.451,5.32c0.008,3.469,0.163,3.744,2.209,3.979c2.469,0.284,2.76,1.392,1.016,3.879
		c-1.072,1.531-0.996,2.041,0.801,5.422c1.092,2.052,1.984,4.421,1.984,5.267c0,0.843,0.879,3.522,1.955,5.957
		c1.075,2.431,2.336,4.422,2.801,4.422c1.32,0,1.014-1.713-1.295-7.262c-1.803-4.33-2.141-6.332-2.152-12.738
		c-0.016-9.963,0.393-15.2,1.186-15.2c0.354,0,1.182-1.813,1.842-4.033c0.735-2.479,2.662-5.75,5-8.485
		c3.785-4.431,3.822-4.449,7.641-4.082c2.111,0.203,4.504,0.969,5.316,1.705c2.313,2.094,3.602-0.047,2.938-4.882
		c-0.492-3.588-0.361-3.978,2.123-6.35c1.455-1.39,4.145-2.968,5.975-3.505c2.973-0.873,3.572-0.807,5.6,0.619
		c3.9,2.74,9.937,5.013,13.316,5.013c1.783,0,4.414,0.424,5.846,0.942c2.059,0.744,2.865,0.724,3.857-0.099
		c1.523-1.265,1.551-1.729,0.199-3.577c-0.725-0.99-3.102-1.769-7.596-2.488c-6.664-1.067-10.707-3.188-11.762-6.166
		c-0.27-0.762-0.49-3.721-0.49-6.573c0-5.761,1.75-10.492,4.164-11.259c0.828-0.264,2.641-2.055,4.025-3.983
		c1.383-1.927,3.016-3.694,3.625-3.929c0.611-0.235,1.463-1.358,1.896-2.495c0.432-1.138,1.104-1.871,1.498-1.63
		c1.176,0.726,2.729-1.789,2.057-3.332c-0.744-1.706-1.836-8.862-2.602-17.049c-0.311-3.323-1.119-6.922-1.799-8
		s-1.697-3.942-2.26-6.362s-1.387-5.356-1.83-6.526c-1.203-3.164,1.043-6.273,4.531-6.273c3.055,0,4.137-1.743,2.252-3.627
		c-1.068-1.069-1.111-1.579-0.264-3.162c0.555-1.038,0.783-2.793,0.504-3.9c-0.277-1.105-0.143-2.235,0.299-2.509
		c1.184-0.731,0.986-3.51-0.557-7.813c-1.168-3.265-1.223-4.345-0.379-7.504c0.83-3.103,0.797-3.98-0.201-5.502
		c-0.652-0.997-1.957-4.101-2.898-6.895c-1.174-3.481-2.848-6.296-5.32-8.938c-3.021-3.231-3.521-4.206-3.08-6.004
		c0.289-1.181,0.596-2.866,0.682-3.746c0.304-3.115,6.451-3.306,9.463-0.293c1.225,1.224,2.674,1.463,8.484,1.399
		c4.813-0.051,7.94,0.328,9.984,1.209c3.891,1.681,9.697,1.687,11.088,0.009C257.758,204.159,257.627,203.751,255.953,202.465"/>
	<path clip-path="url(#SVGID_2_)" fill="#005697" d="M75.507,352.924c-0.915,0-1.115-0.402-0.696-1.4
		c0.504-1.201,0.796-2.215,0.837-3.497l0.27-0.154c-0.014-1.588-0.434-3.217-0.906-4.781c-0.336-1.542-0.807-3.416-1.432-5.784
		c-2.599-9.849-4.131-16.128-5.105-21.638c-0.071-1.969-0.344-3.921-0.749-5.859c-0.075-0.357-0.162-0.71-0.241-1.066
		c-0.292-2.667-0.5-5.439-0.687-8.664c-0.325-5.635-0.17-11.771,0.405-15.955c1.717-12.5,1.781-13.887,0.825-18.157
		c-1.134-5.068-2.396-5.939-7.247-5.005c-1.973,0.382-3.867,0.707-4.208,0.728c-0.34,0.019-0.967,0.951-1.393,2.068
		c-0.577,1.52-0.255,4.207,1.273,10.602c2.921,12.216,2.12,16.939-4.178,24.646c-1.475,1.807-2.682,4.146-2.683,5.2
		c0,1.056-1.08,4.199-2.399,6.988c-3.204,6.772-3.125,10.045,0.377,15.858c2.681,4.45,3.645,7.983,3.901,14.301
		c0.116,2.84,0.31,3.049,3.722,3.99c5.01,1.383,9.054,3.021,10,4.051c1.241,1.349,6.76,4.33,8.021,4.33
		c0.691,0,0.944,0.479,0.652,1.24c-0.274,0.715,0.304,2.069,1.366,3.198c2.457,2.615,4.761,2.597,4.761-0.039
		C79.993,355.868,77.452,352.924,75.507,352.924"/>
	<path clip-path="url(#SVGID_2_)" fill="#005697" d="M78.064,28.201c0.526,0,1.184-0.591,1.461-1.313
		c0.489-1.276-0.046-2.308-3.568-6.883l-1.692-2.196l-2.876,3.655C72.628,23.805,76.984,28.201,78.064,28.201"/>
	<path clip-path="url(#SVGID_2_)" fill="#005697" d="M64.393,34.2c1.32,1.096,3.43,1.994,4.687,1.997
		c2.09,0.003,2.241-0.185,1.756-2.196c-0.946-3.924-4.31-5.307-7.29-2.997C62.036,32.175,62.058,32.262,64.393,34.2"/>
	<path clip-path="url(#SVGID_2_)" fill="#005697" d="M159.967,52.201c0.803,0,2.545-1.236,3.873-2.748
		c4.639-5.284,4.186-8.579-0.947-6.886c-2.631,0.868-6.901,4.852-6.901,6.438C155.992,50.214,158.463,52.201,159.967,52.201"/>
	<path clip-path="url(#SVGID_2_)" fill="#005697" d="M165.947,51.17c0.359,0.938,1.123,1.068,3.453,0.587
		c1.646-0.339,4.85-0.54,7.119-0.445c2.27,0.094,4.361-0.207,4.646-0.67c0.91-1.471,2.705-0.908,2.971,0.931
		c0.316,2.19,4.787,3.778,6.541,2.323c1.477-1.227,3.207-7.543,2.738-10c-0.065-0.34-0.096-0.622-0.1-0.853l-8.523-2.686
		c-1.189,0.439-2.689,0.386-3.965-0.142c-2.91-1.206-7.75-1.247-9.16-0.078C169.646,41.815,165.458,49.895,165.947,51.17"/>
	<path clip-path="url(#SVGID_2_)" fill="#005697" d="M56.735,56.975c3.043,1.562,8.936,1.794,9.409,0.37
		c0.614-1.844-4.64-7.64-8.379-9.242l-3.752-1.608l-1.428,1.764C50.26,51.128,51.851,54.468,56.735,56.975"/>
	<path clip-path="url(#SVGID_2_)" fill="#005697" d="M61.056,47.4c0.619,0,2.792,1.666,4.828,3.702
		c3.094,3.093,3.899,3.537,4.905,2.701c0.663-0.549,1.205-1.871,1.205-2.937c0-2.919-3.589-6.136-6.249-5.601
		c-1.751,0.353-2.606-0.097-4.596-2.427c-2.169-2.538-2.643-2.754-4.2-1.92c-0.966,0.516-1.756,1.398-1.756,1.961
		C55.192,44.104,59.466,47.4,61.056,47.4"/>
	<path clip-path="url(#SVGID_2_)" fill="#005697" d="M196.535,62.633c2.938,3.061,5.91,6.403,6.602,7.428
		c2.813,4.168,7.527,9.35,9.918,10.898c1.395,0.904,4.449,2.859,6.783,4.342c2.336,1.484,6.77,5.437,9.855,8.786
		s7.686,7.544,10.221,9.322c2.535,1.779,5.4,4.304,6.367,5.613c2.172,2.935,2.793,2.959,4.752,0.178
		c4.178-5.93,3.387-8.341-4.816-14.686c-3.629-2.808-9.844-8.203-13.811-11.988c-3.969-3.787-9.824-9.115-13.014-11.842
		c-3.189-2.728-5.801-5.248-5.801-5.603c0-0.983-9.625-10.481-10.621-10.481c-0.48,0-1.754,0.81-2.826,1.8l-1.951,1.8l0.566-1.839
		c0.714-2.325-1.413-5.761-3.564-5.761c-1.467,0-4.002,3.545-4.002,5.594C191.193,56.674,193.597,59.571,196.535,62.633"/>
	<path clip-path="url(#SVGID_2_)" fill="#005697" d="M72.769,32.916c1.35,4.707,4.162,6.827,6.265,4.725
		c1.74-1.741,1.044-4.716-1.761-7.52C72.78,25.628,70.997,26.735,72.769,32.916"/>
	<path clip-path="url(#SVGID_2_)" fill="#005697" d="M88.714,35.724c4.157,3.983,14.455,5.771,19.177,3.329
		c1.22-0.631,2.702-1.729,3.293-2.442c0.676-0.814,6.036,0.146,8.817-0.406c1.599,0.645,3.984,1.911,6.026,3.234
		c6.026,3.905,15.05,7.887,18.595,8.566l0.231,0.156l4.575-0.089c0.441,0.34,0.965,0.13,1.053-0.871
		c0.461-5.195-4.379-10.562-13.874-15.386c-10.284-5.224-17.618-10.992-29.773-23.416c-1.11-1.135-2.139-2.148-3.077-3.038
		l-5.856-4.362c-0.936,0-2.703,0.891-4.06,1.858l-0.012-0.009l-0.133,0.116c-0.523,0.384-0.979,0.775-1.284,1.124L89.336,6.78
		l-0.078,0.338c-2.074,1.719-5.527,7.53-6.24,10.929c-0.862,4.106-0.772,4.823,1.243,9.957
		C85.454,31.047,87.458,34.522,88.714,35.724"/>
	<path clip-path="url(#SVGID_2_)" fill="#005697" d="M75.088,42.112c-1.922,4.217,3.629,9.153,6.459,5.744
		c1.385-1.669,1.291-5.954-0.163-7.407C79.694,38.758,76.194,39.683,75.088,42.112"/>
	<path clip-path="url(#SVGID_2_)" fill="#005697" d="M49.229,70.629c0.964,0.801,5.477,2.36,9.017,3.117
		c0.139,0.029,0.949-0.319,1.8-0.774c3.038-1.626,1.356-5.781-4.084-10.086c-2.515-1.99-3.505-3.361-3.532-4.889
		c-0.026-1.494-0.836-2.663-2.735-3.946c-1.484-1.003-3.014-1.629-3.4-1.391c-1.111,0.688-0.817,3.248,0.498,4.34
		c1.627,1.351,1.508,2.133-0.4,2.632c-0.88,0.229-1.6,0.946-1.6,1.592C44.792,63.035,47.826,69.465,49.229,70.629"/>
	<path clip-path="url(#SVGID_2_)" fill="#005697" d="M319.953,380.086c-1.738-5.164-3.166-10.222-3.17-11.236
		c-0.025-4.522-6.688-25.045-9.951-30.649c-1.09-1.871-2.604-7.019-3.646-12.399c-1.621-8.36-1.746-10.845-1.371-27.199
		c0.409-17.944,0.852-22.651,3.893-41.601c0.883-5.5,1.816-11.43,2.074-13.178c0.268-1.805,1.189-3.767,2.141-4.547
		c1.463-1.201,1.539-1.587,0.617-3.097c-0.902-1.482-0.857-1.867,0.322-2.731c0.963-0.703,1.098-1.175,0.453-1.572
		c-1.395-0.862-1.107-1.908,0.678-2.477c2.641-0.837,1.924-3.401-1.428-5.111c-3.4-1.734-5.771-1.099-5.771,1.553
		c0,0.856-0.541,1.559-1.201,1.559c-0.73,0-1.199,0.746-1.199,1.903c0,1.078-0.781,2.432-1.801,3.124
		c-1.596,1.083-1.68,1.419-0.744,2.975c0.58,0.965,0.941,1.852,0.801,1.969s-1.066,0.636-2.057,1.151
		c-2.201,1.145-2.271,2.462-0.266,5.013c2.647,3.366,2.764,6.867,0.529,15.92c-1.135,4.591-2.063,9.313-2.063,10.494
		c0,1.183-0.422,3.16-0.936,4.401c-0.934,2.25-1.525,13.035-1.416,25.851c0.064,7.627-0.928,14.922-3.326,24.444l-1.623,6.443
		l1.67,4.233c0.918,2.33,2.525,5.371,3.574,6.758c5.463,7.233,11.996,21.216,14.344,30.695c2.627,10.606,2.301,14.771-1.242,15.854
		c-1.016,0.309-3.645,1.385-5.846,2.387c-2.199,1.004-6.488,2.242-9.527,2.75c-3.041,0.509-6.498,1.427-7.682,2.041
		c-3.078,1.59-7.193,6.539-7.174,8.623c0.03,3.051,2.77,5.676,6.928,6.644c4.447,1.033,6.73,0.701,10.518-1.533
		c2.123-1.254,4.033-1.579,8.824-1.508c9.869,0.147,13.908-0.968,17.361-4.791c2.938-3.25,2.947-3.289,2.412-8.517
		C323.357,391.836,321.691,385.247,319.953,380.086"/>
	<path clip-path="url(#SVGID_2_)" fill="#005697" d="M271.992,118.206c0-2.248-2.189-5.205-3.854-5.205
		c-1.426,0-5.746-3.568-5.746-4.747c0-0.375-1.35-1.225-3-1.887c-3.396-1.364-4.08-1.044-6.654,3.121l-1.674,2.708l2.496,2.496
		c2.326,2.326,2.596,2.409,3.928,1.203c2.088-1.89,2.697-1.594,2.121,1.03c-0.559,2.545,0.734,4.045,2.213,2.566
		c1.551-1.551,2.146-0.971,1.635,1.591c-0.328,1.637-0.143,2.7,0.547,3.126c1.166,0.721,3.189,0.184,3.189-0.848
		c0-0.368,1.08-1.306,2.398-2.087C271.025,120.428,271.992,119.189,271.992,118.206"/>
	<path clip-path="url(#SVGID_2_)" fill="#005697" d="M48.995,136.553c0.683-0.574,1.378-1.087,1.937-1.445l3.115-5.66
		c0.213-1.373,0.342-2.885,0.34-4.368c-0.01-7.007-1.5-14.491-3.687-18.509C46.138,98.189,34.355,85.8,30.945,85.8
		c-0.554,0-3.493,3.33-6.531,7.4c-3.038,4.07-7.978,10.28-10.976,13.8c-2.999,3.52-7.251,9.265-9.449,12.767
		c-5.474,8.723-5.407,10.323,0.777,18.513c12.261,16.234,13.289,17.439,15.315,17.972c1.148,0.303,4.388,1.665,7.199,3.029
		c2.813,1.363,5.332,2.488,5.6,2.499c0.268,0.011,2.711-2.217,5.427-4.951c2.718-2.734,5.126-5.884,5.35-7.001
		C45.086,142.744,46.849,138.359,48.995,136.553"/>
	<path clip-path="url(#SVGID_2_)" fill="#005697" d="M338.342,159.783c-4.367-6.102-10.785-10.745-20.197-14.611
		c-7.688-3.159-22.713-11.883-26.586-15.439c-0.898-0.825-2.85-1.924-4.332-2.44c-2.428-0.847-2.84-0.766-4.121,0.816
		c-1.418,1.751-1.422,1.747-0.967-1.059c0.396-2.438,0.109-3.142-2.129-5.233c-3.471-3.242-6.186-3.157-9.535,0.299
		c-3.049,3.146-3.02,5.319,0.084,6.149c1.193,0.319,3.281,1.372,4.641,2.34c1.402,0.999,3.146,1.585,4.029,1.355
		c1.309-0.343,1.479-0.1,1.07,1.527c-0.564,2.247,0.846,4.314,2.943,4.314c0.801,0,3.758,1.765,6.574,3.923
		c2.814,2.158,7.422,5.086,10.236,6.506c2.814,1.421,7.32,3.976,10.016,5.677c2.693,1.701,5.488,3.094,6.211,3.094
		c0.752,0,1.313,0.642,1.313,1.502c0,2.011,1.852,3.453,6.293,4.897c2.945,0.959,4.051,1.863,5.498,4.495
		c1.678,3.048,1.73,3.529,0.707,6.43c-1.328,3.763-6.885,13.039-10.469,17.476c-1.863,2.308-2.74,4.39-3.143,7.473
		c-0.67,5.102,0.195,6.527,3.957,6.527c2.01,0,3.047-0.561,4.303-2.324c1.941-2.727,2.143-5.876,0.463-7.269
		c-1.455-1.207-0.852-2.407,1.207-2.407c1.394,0,3.015-1.299,5.219-4.25l9.378-24.114
		C340.809,163.421,340.145,162.301,338.342,159.783"/>
	<path clip-path="url(#SVGID_2_)" fill="#005697" d="M307.904,214.375c-3.146-0.135-4.299,0.147-4.996,1.226
		c-2.01,3.103,3.266,5.982,11.242,6.135c3.256,0.063,3.42-0.059,5.4-4.001c2.566-5.109,2.563-6.608-0.023-8.643
		c-2.965-2.331-5.053-2.805-7.23-1.64c-1.947,1.041-2.627,4.207-1.104,5.148C313.098,213.777,311.693,214.536,307.904,214.375"/>
	<path clip-path="url(#SVGID_2_)" fill="#005697" d="M32.747,190.314c-1.623-1.837-3.933,8.385-2.331,10.314
		c1.411,1.701,2.964,1.442,4.39-0.734c1.136-1.736,1.128-2.22-0.103-5.4C33.96,192.573,33.08,190.692,32.747,190.314"/>
	<path clip-path="url(#SVGID_2_)" fill="#005697" d="M47.965,83.453c1.193-2.23,1.02-4.498-0.439-5.708
		c-2.691-2.232-5.959,2.52-3.828,5.563C45.176,85.418,46.882,85.476,47.965,83.453"/>
	<path clip-path="url(#SVGID_2_)" fill="#005697" d="M51.29,89.22c2.391,2.392,2.54,2.432,3.599,0.984
		c0.607-0.83,1.104-1.801,1.104-2.157c0-1.231-3.206-3.847-4.715-3.847C48.616,84.2,48.622,86.552,51.29,89.22"/>
	<path clip-path="url(#SVGID_2_)" fill="#005697" d="M204.235,391.03c-2.296,0-3.008,1.464-1.593,3.253
		c1.42,1.785,4.454,3.249,6.75,3.249c2.29,0,3.008-1.464,1.588-3.249C209.565,392.494,206.531,391.03,204.235,391.03"/>
	<path clip-path="url(#SVGID_2_)" fill="#005697" d="M230.011,395.79c-1.996-1.283-5.616-1.759-8.047-1.054
		c-2.432,0.705-2.776,2.33-0.78,3.614c2.001,1.278,5.621,1.752,8.052,1.047C231.66,398.694,232.012,397.067,230.011,395.79"/>
	<path clip-path="url(#SVGID_2_)" fill="#005697" d="M28.114,249.941c-0.87,0.688-1.842,1.681-2.202,2.757
		c-0.697,2.08,2.229,1.223,2.97,0.481C29.965,252.098,30.506,248.045,28.114,249.941"/>
</g>
<g>
	<path id="Facebook_Places" fill="#FFFFFF" d="M173.012,267.537c-0.107-0.404-0.327-0.835-0.49-1.212
		c-1.938-4.656-6.17-6.325-9.589-6.325c-4.577,0-9.617,3.068-10.29,9.394v1.293c0,0.054,0.019,0.538,0.045,0.78
		c0.377,3.015,2.756,6.219,4.532,9.233c1.912,3.229,3.895,6.406,5.859,9.582c1.211-2.072,2.419-4.172,3.603-6.19
		c0.323-0.593,0.697-1.185,1.02-1.751c0.215-0.376,0.626-0.753,0.814-1.104c1.912-3.499,4.988-7.024,4.988-10.497v-1.427
		C173.504,268.938,173.037,267.618,173.012,267.537z M163.016,274.024c-1.345,0-2.818-0.673-3.544-2.53
		c-0.108-0.296-0.1-0.889-0.1-0.942v-0.835c0-2.368,2.011-3.444,3.76-3.444c2.154,0,3.819,1.723,3.819,3.876
		S165.169,274.024,163.016,274.024z"/>
</g>
<text transform="matrix(1 0 0 1 146 246.6338)" fill="#FFFFFF" font-family="'Ubuntu-Bold'" font-size="12">  Nunue</text>
</svg>
