<?xml version="1.0" encoding="utf-8"?>
<!-- Generator: Adobe Illustrator 16.0.0, SVG Export Plug-In . SVG Version: 6.00 Build 0)  -->
<!DOCTYPE svg PUBLIC "-//W3C//DTD SVG 1.1//EN" "http://www.w3.org/Graphics/SVG/1.1/DTD/svg11.dtd">
<svg version="1.1" id="Calque_1" xmlns="http://www.w3.org/2000/svg" xmlns:xlink="http://www.w3.org/1999/xlink" x="0px" y="0px"
	 width="426.859px" height="319.867px" viewBox="0 0 426.859 319.867" enable-background="new 0 0 426.859 319.867"
	 xml:space="preserve">
<g>
	<g>
		<g>
			<defs>
				<rect id="SVGID_1_" x="0" width="426.859" height="319.867"/>
			</defs>
			<clipPath id="SVGID_2_">
				<use xlink:href="#SVGID_1_"  overflow="visible"/>
			</clipPath>
			<path clip-path="url(#SVGID_2_)" fill="#005697" d="M15.254,50.318c-8.708,0.52-7.404,10.722-7.086,19.439
				C8.487,78.474,8.111,89.565,0,92.775c11.558,9.665,10.608,27.824,18.649,40.565c3.888,6.163,9.833,10.939,13.042,17.479
				c1.801,3.669,2.651,7.729,4.265,11.483c10.238,23.855,45.028,26.347,60.02,47.541c3.835,5.425,6.41,12.111,12.007,15.689
				c2.095,1.34,4.523,2.166,6.408,3.788c2.209,1.902,3.426,4.683,4.531,7.378c6.336,15.452,13.587,33.639,29.729,37.924
				c3.981,1.058,8.225,1.123,12.05,2.649c8.041,3.213,12.5,13.369,9.424,21.463c5.896,4.584,13.426-6.438,20.716-4.813
				c9.064,2.021,4.825,18.285,12.672,23.252c1.992,1.265,4.44,1.517,6.791,1.707c23.938,1.957,48.114,0.994,71.821-2.858
				c2.87-4.603-0.684-11.668,3.055-15.601c1.883-1.979,4.871-2.26,7.493-3.024c8.021-2.349,13.467-9.953,16.277-17.82
				c2.814-7.869,3.612-16.313,5.941-24.337c2.384-8.218,6.387-15.964,11.711-22.661c1.929-2.428,4.157-5.086,3.909-8.178
				c-0.282-3.51-3.566-5.853-5.954-8.437c-2.388-2.586-3.762-7.282-0.818-9.211c8.191,2.192,16.437-2.983,22.936-8.432
				c7.15-5.996,13.879-12.813,17.963-21.205c6.034-12.402,5.52-27.77-1.328-39.739c-3.672-0.565-7.482-1.411-10.319-3.809
				c-2.838-2.398-4.309-6.795-2.34-9.945c2.518-4.028,8.333-3.659,12.92-4.888c8.75-2.347,13.771-11.272,17.824-19.374
				c4.291-8.576,8.582-17.153,12.873-25.731c2.463-4.923,5.243-10.173,10.175-12.624c3.995-1.984,8.687-1.752,13.06-2.635
				c4.371-0.883,9.072-3.726,9.36-8.178c-13.51-3.038-25.271-12.981-30.519-25.796c-2.304-5.627-3.497-11.881-7.325-16.603
				c-5.535-6.83-15.383-8.736-24.07-7.393c-8.687,1.343-16.687,5.36-24.883,8.539c-13.868,5.377-28.636,8.424-43.5,8.974
				c-13.66,0.506-30.557,0.659-36.699,12.871c-2.501,4.969-2.385,10.798-2.215,16.359c0.223,7.194,0.455,14.471,2.378,21.407
				c0.558,2.004,1.258,4.023,1.154,6.1c-0.147,2.92-1.851,5.5-3.496,7.916c-3.051,4.477-9.017,9.414-13.009,5.754
				c-1.389-1.274-1.889-3.224-2.321-5.059c-4.127-17.464-8.255-34.927-12.382-52.391c2.495-2.628-1.299-7.061-4.919-6.899
				c-3.621,0.161-6.666,2.661-10.074,3.895c-8.99,3.252-19.694-2.499-28.285,1.695c-4.267,2.083-7.079,6.227-9.691,10.191
				c-8.738,13.253-17.799,29.644-11.229,44.096c2.289,5.033,6.303,9.177,8.271,14.345c1.969,5.167,0.818,12.355-4.396,14.197
				c-6.803,2.404-12.287-5.778-14.896-12.506c-1.337-3.451-2.675-6.901-4.013-10.352c-4.337-11.189-8.949-22.793-17.779-30.92
				c-5.056-4.652-11.349-7.946-18.053-9.45c-3.783-0.849-7.67-1.133-11.537-1.415c-15.688-1.146-31.377-2.291-47.064-3.436
				c-12.321-0.899-21.217,0.652-33.557,1.231L15.254,50.318z"/>
		</g>
	</g>
</g>
<text transform="matrix(1 0 0 1 264.9998 94.8652)" fill="#FFFFFF" font-family="'Ubuntu-Bold'" font-size="13">Paopao</text>
<g>
	<path id="Facebook_Places_1_" fill="#FFFFFF" d="M259.38,60.452c-0.162-0.61-0.494-1.264-0.738-1.832
		c-2.933-7.047-9.339-9.571-14.511-9.571c-6.924,0-14.549,4.642-15.568,14.213v1.956c0,0.08,0.027,0.814,0.068,1.181
		c0.572,4.561,4.169,9.407,6.857,13.967c2.891,4.889,5.891,9.693,8.865,14.5c1.833-3.137,3.659-6.314,5.45-9.367
		c0.489-0.896,1.057-1.793,1.544-2.646c0.326-0.57,0.949-1.139,1.232-1.67c2.892-5.293,7.546-10.63,7.546-15.884v-2.158
		C260.126,62.571,259.421,60.576,259.38,60.452z M244.259,70.266c-2.036,0-4.263-1.018-5.362-3.826
		c-0.164-0.447-0.151-1.345-0.151-1.428V63.75c0-3.582,3.042-5.212,5.688-5.212c3.259,0,5.779,2.605,5.779,5.864
		S247.515,70.266,244.259,70.266z"/>
</g>
</svg>
