<?xml version="1.0" encoding="utf-8"?>
<!-- Generator: Adobe Illustrator 16.0.0, SVG Export Plug-In . SVG Version: 6.00 Build 0)  -->
<!DOCTYPE svg PUBLIC "-//W3C//DTD SVG 1.1//EN" "http://www.w3.org/Graphics/SVG/1.1/DTD/svg11.dtd">
<svg version="1.1" id="Calque_1" xmlns="http://www.w3.org/2000/svg" xmlns:xlink="http://www.w3.org/1999/xlink" x="0px" y="0px"
	 width="426.859px" height="319.867px" viewBox="0 0 426.859 319.867" enable-background="new 0 0 426.859 319.867"
	 xml:space="preserve">
<g>
	<g>
		<defs>
			<rect id="SVGID_1_" x="0" width="426.859" height="319.867"/>
		</defs>
		<clipPath id="SVGID_2_">
			<use xlink:href="#SVGID_1_"  overflow="visible"/>
		</clipPath>
		<path clip-path="url(#SVGID_2_)" fill="#005697" d="M15.254,50.318c-8.708,0.52-7.405,10.722-7.086,19.439
			C8.487,78.474,8.111,89.565,0,92.775c11.557,9.665,10.608,27.824,18.649,40.565c3.888,6.163,9.833,10.939,13.042,17.479
			c1.801,3.669,2.652,7.729,4.265,11.483c10.238,23.855,45.028,26.346,60.019,47.541c3.835,5.424,6.41,12.111,12.007,15.689
			c2.095,1.34,4.524,2.166,6.408,3.788c2.209,1.902,3.426,4.683,4.532,7.378c6.336,15.452,13.587,33.639,29.728,37.924
			c3.982,1.057,8.225,1.123,12.05,2.65c8.041,3.213,12.5,13.369,9.424,21.463c5.896,4.584,13.426-6.439,20.716-4.814
			c9.064,2.021,4.825,18.285,12.671,23.252c1.993,1.264,4.441,1.516,6.791,1.707c23.938,1.957,48.115,0.994,71.822-2.859
			c2.87-4.602-0.684-11.668,3.054-15.6c1.883-1.98,4.872-2.26,7.494-3.025c8.02-2.348,13.466-9.953,16.277-17.82
			c2.814-7.869,3.612-16.313,5.941-24.337c2.384-8.218,6.387-15.963,11.711-22.661c1.929-2.428,4.157-5.086,3.909-8.178
			c-0.282-3.509-3.566-5.852-5.954-8.436c-2.388-2.586-3.762-7.282-0.818-9.211c8.191,2.192,16.436-2.983,22.935-8.432
			c7.151-5.996,13.879-12.813,17.963-21.205c6.034-12.402,5.52-27.77-1.328-39.739c-3.672-0.565-7.482-1.411-10.319-3.809
			c-2.838-2.398-4.309-6.795-2.34-9.945c2.517-4.028,8.333-3.659,12.92-4.888c8.75-2.347,13.771-11.272,17.824-19.374
			c4.291-8.576,8.582-17.153,12.873-25.731c2.463-4.923,5.243-10.173,10.175-12.624c3.995-1.984,8.686-1.752,13.059-2.635
			c4.372-0.883,9.073-3.726,9.361-8.178c-13.51-3.038-25.271-12.981-30.519-25.796c-2.303-5.627-3.497-11.881-7.325-16.603
			c-5.535-6.83-15.383-8.736-24.07-7.393c-8.687,1.343-16.687,5.36-24.883,8.539c-13.868,5.377-28.636,8.424-43.5,8.974
			c-13.66,0.506-30.556,0.659-36.699,12.871c-2.501,4.969-2.385,10.798-2.215,16.359c0.223,7.194,0.455,14.471,2.378,21.407
			c0.558,2.004,1.258,4.023,1.154,6.1c-0.147,2.92-1.85,5.5-3.496,7.916c-3.05,4.477-9.016,9.414-13.008,5.754
			c-1.389-1.274-1.889-3.224-2.322-5.059c-4.127-17.464-8.255-34.927-12.382-52.391c2.496-2.628-1.298-7.061-4.919-6.899
			c-3.621,0.161-6.666,2.661-10.074,3.895c-8.99,3.252-19.694-2.499-28.285,1.695c-4.266,2.083-7.079,6.227-9.691,10.191
			c-8.739,13.253-17.799,29.644-11.229,44.096c2.289,5.033,6.303,9.177,8.271,14.345c1.968,5.167,0.818,12.355-4.396,14.197
			c-6.803,2.404-12.287-5.778-14.895-12.506c-1.337-3.451-2.675-6.901-4.013-10.352c-4.337-11.189-8.949-22.793-17.779-30.92
			c-5.056-4.652-11.349-7.946-18.053-9.45c-3.783-0.849-7.67-1.133-11.537-1.415c-15.688-1.146-31.377-2.291-47.065-3.436
			c-12.321-0.899-21.216,0.652-33.556,1.231L15.254,50.318z"/>
	</g>
</g>
<g>
	<g>
		<defs>
			<rect id="SVGID_3_" x="227.95" y="53.866" width="27.05" height="41"/>
		</defs>
		<clipPath id="SVGID_4_">
			<use xlink:href="#SVGID_3_"  overflow="visible"/>
		</clipPath>
		<path clip-path="url(#SVGID_4_)" fill="#FFFFFF" d="M241.48,53.866c-7.54,0-13.528,6.355-13.528,14.355
			c0,10.66,13.528,26.646,13.528,26.646s13.521-15.986,13.521-26.646C255.001,60.221,249.01,53.866,241.48,53.866 M241.48,73.347
			c-2.71,0-4.83-2.264-4.83-5.125c0-2.875,2.12-5.125,4.83-5.125c2.699,0,4.831,2.25,4.831,5.125
			C246.312,71.083,244.18,73.347,241.48,73.347"/>
	</g>
</g>
<text transform="matrix(1 0 0 1 265.0002 94.8657)" fill="#FFFFFF" font-family="'Ubuntu-Bold'" font-size="13">Paopao</text>
</svg>
