<?xml version="1.0" encoding="utf-8"?>
<!-- Generator: Adobe Illustrator 16.0.0, SVG Export Plug-In . SVG Version: 6.00 Build 0)  -->
<!DOCTYPE svg PUBLIC "-//W3C//DTD SVG 1.1//EN" "http://www.w3.org/Graphics/SVG/1.1/DTD/svg11.dtd">
<svg version="1.1" id="Calque_1" xmlns="http://www.w3.org/2000/svg" xmlns:xlink="http://www.w3.org/1999/xlink" x="0px" y="0px"
	 width="273.785px" height="347.895px" viewBox="0 0 273.785 347.895" enable-background="new 0 0 273.785 347.895"
	 xml:space="preserve">
<g>
	<g>
		<defs>
			<rect id="SVGID_1_" y="0" width="273.785" height="347.895"/>
		</defs>
		<clipPath id="SVGID_2_">
			<use xlink:href="#SVGID_1_"  overflow="visible"/>
		</clipPath>
		<path clip-path="url(#SVGID_2_)" fill="#005697" d="M272.392,203.807v-0.704c-0.65-7.512-21.428,6.582-23.479-0.705
			c-0.502-1.776,19.207-10.321,11.358-17.63c-3.771-3.512-29.069,13.271-32.567,4.229c-1.826-4.724,11.957-5.797,8.332-11.282
			c-2.339-3.541-4.791-1.117-12.119-2.822c-4.875-1.133-6.289-4.379-9.088-4.23c-3.902,0.207-4.517,4.669-8.332,7.053
			c-0.403,0.252-6.406,3.321-8.33,2.115c-2.676-1.681,0.623-12.526-5.303-14.105c-1.225-0.328-5.542,6.124-9.088,2.82
			c-1.057-0.982,3.533-8.792,3.029-7.049c0.148-0.518,1.643-6.478,0.757-8.465c-2.171-4.887-13.229-4.618-15.905-2.117
			c-0.117,0.111,0.074,4.643-0.757,6.349c-1.89,3.886-3.979,2.376-6.815,5.642c-1.182,1.359-11.127,23.684-15.147,10.579
			c-1.733-5.648,4.233-9.454,6.815-12.693c4.811-6.037,6.121-14.459,11.363-20.452c0.371-0.429,10.775-6.187,6.814-9.874
			c-0.837-0.778-12.32,2.777-12.118,2.82c-1.987-0.431-6.415-5.349-6.815-7.05c-1.235-5.242,4-7-0.758-9.875
			c-0.959-0.578-7.854,1.108-6.816,1.411c-7.342-2.138,0.794-7.88-0.758-12.693c-3.653-11.335-15.145,7.831-21.207,2.113
			c-2.089-1.968,2.493-9.017,2.271-14.103c-0.171-3.925-3.359-9.23-4.544-10.578c-0.599-0.683-1.89-0.028-3.786-1.411
			c-1.148-0.838-1.338-3.415-1.516-3.526c-1.749-1.094-3.304,0.577-4.542-0.704c-1.275-1.317-1.275-4.645-3.03-6.349
			c-2.13-2.061-6.326-2.042-7.575-3.524c-2.311-2.745,0.773-7.246-4.544-8.462c-0.501-0.115-5.934,1.537-6.815,0.704
			c-0.698-0.659-1.154-5.723-0.759-7.759c0.548-2.817,4.481-3.71,3.029-7.051c-1.358-3.128-5.402-0.625-7.573-2.117
			c-1.232-0.845-1.416-4.486-3.03-6.346c-2.804-3.229-17.11-12.792-19.692-9.167c-2.268,3.184-2.701-2.287-8.332-2.822
			c-3.223-0.305-9.642,3.189-12.117,4.231c-3.831,1.614-12.999,2.875-16.663,4.936c-2.49,1.403-9.574,5.899-9.089,8.464
			c1.034,5.45-3.24-0.195-6.059,1.411c-3.875,2.208-0.315,7.339-0.756,9.167c-1.12,4.636-6.184,6.222-6.06,9.874
			c0.135,3.992,9.494,9.563,12.875,11.989c2.515,1.803,3.412,7.384-4.542,3.524c-2.29-1.11-1.8-4.418-3.031-4.936
			C-2.448,67.592,2.657,84.36,1.247,91.678c-0.182,0.952-2.139,5.06-0.756,6.346c1.201,1.119,16.269-7.987,10.602-1.408
			c-1.753,2.036-7.02,6.006-5.3,12.692c0.109,0.43,2.277,2.197,2.271,2.822c-0.026,2.366-2.447,4.22-2.271,4.937
			c0.632,2.597,2.292,0.794,3.786,2.821c0.889,1.206,0.63,4.595,1.514,6.348c2.161,4.277,5.075,4.982,5.303,10.577
			c0.108,2.652,0.5,9.302,0,13.4c-0.229,1.88-1.905,2.083-1.514,4.23c0.785,4.332,4.44,5.024,6.058,8.462
			c0.567,1.203-0.407,3.212,0,4.938c1.273,5.399,9.517,10.035,11.361,13.4c2.53,4.614-0.63,7.5,3.03,8.463
			c3.104,0.813,4.734-5.901,7.573-4.938c1.498,0.508,1.979,5.89,1.515,4.938c1.87,3.853,4.199,3.361,4.544,5.64
			c0.813,5.363-6.549,8.868-6.817,11.283c-0.287,2.604,3.654,4.012,3.787,6.349c0.25,4.329-5.287,7.837-5.3,11.283
			c-0.016,3.479,3.032,4.238,5.3,7.758c1.689,2.622,1.621,5.521,3.03,7.054c3.809,4.146,10.208,3.457,4.546,10.577
			c-3.515,15.722,11.951,7.223,15.905,1.409c6.693-1.393,13.411,2.904,12.874,7.055c-0.697,5.374-9.994,2.776-12.118,7.758
			c-2.735,6.41,4.14,9.014,7.574,14.104c0.292,0.436-0.416,2.799,0,3.524c0.497,0.87,2.307,1.631,3.029,2.82
			c2.612,4.301,4.974,9.754,9.088,11.988c3.147,1.71,5.994-1.712,6.817,3.527c0.734,4.671-5.596,7.42-6.817,11.283
			c-0.422,1.339,1.109,4.487,0.758,7.758c-0.567,5.256-5.323,10.821-4.544,12.694c0.855,2.054,13.873,5.587,17.42,5.641
			c6.124,0.095,8.287-2.967,4.544,4.229c-0.165,6.071,6.042,2.84,9.845,4.234c16.006,2.244,13.828-13.328,22.722-18.338
			c0.974-0.547,4.813-0.437,6.06-1.41c2.221-1.736,2.356-7.332,4.545-10.578c1.539-2.286,2.771-0.457,3.029-2.821
			c0.36-3.294-6.277-8.985-5.303-11.283c1.623-3.818,10.538,0.314,12.118-2.819c1.433-2.847-3.272-8.238-3.786-9.17
			c-2.197-3.979-7.011-11.647-0.759-14.809c9.957-5.034,8.155,10.736,11.36,16.22c2.248,3.845,11.028,11.738,12.119,11.284
			c3.133-1.31-1.273-3.924,1.514-7.758c2.084-2.866,13.072-3.363,21.207-4.938c2.146-0.413,3.354-1.994,4.545-2.115
			c1.668-0.169,3.715,1.613,5.303,0.706c3.439-1.97,5.902-13.58,11.359-16.221c3.662-1.771,7.299,1.648,9.846-2.116
			c1.488-2.199-1.064-4.915,0-7.051c2.695-5.408,14.195-2.054,17.42-5.644c2.386-2.654-1.374-8.592,1.516-10.577
			c0.312-0.215,4.674,2.183,5.303,2.114c4.3-0.445,4.666-8.058,8.33-13.398c1.047-1.528,3.983-3.1,4.545-4.23
			C273.656,227.103,274.983,209.205,272.392,203.807 M83.884,170.682c-0.002-0.029-0.009-0.061-0.012-0.09
			C83.875,170.621,83.882,170.652,83.884,170.682 M81.595,166.195c-0.014,0.006-0.026,0.013-0.041,0.02
			C81.569,166.207,81.581,166.2,81.595,166.195 M85.317,157.969c-0.16,0.205-0.287,0.438-0.402,0.681
			C85.03,158.407,85.157,158.174,85.317,157.969 M84.83,158.837c-0.1,0.238-0.189,0.487-0.262,0.749
			C84.64,159.323,84.73,159.075,84.83,158.837 M84.516,159.796c-0.049,0.196-0.094,0.396-0.135,0.602
			C84.422,160.192,84.468,159.992,84.516,159.796 M83.866,170.977c-0.005,0.035-0.003,0.073-0.011,0.11
			C83.863,171.05,83.861,171.012,83.866,170.977 M83.762,171.344c-0.016,0.037-0.024,0.077-0.044,0.113
			C83.738,171.421,83.746,171.381,83.762,171.344 M83.53,171.693c-0.028,0.031-0.045,0.064-0.077,0.095
			C83.485,171.757,83.502,171.724,83.53,171.693 M83.802,170.198c0.004,0.017,0.01,0.033,0.014,0.049
			C83.812,170.23,83.806,170.213,83.802,170.198 M82.899,165.252L82.899,165.252L82.899,165.252L82.899,165.252z M98.108,162.747
			c-0.115,0.027-0.243,0.051-0.364,0.078C97.865,162.798,97.993,162.775,98.108,162.747 M97.081,162.96
			c-0.126,0.022-0.26,0.043-0.391,0.064C96.821,163.003,96.955,162.983,97.081,162.96 M95.922,163.146
			c-0.118,0.019-0.24,0.032-0.361,0.049C95.682,163.178,95.804,163.163,95.922,163.146 M94.629,163.312
			c-0.074,0.008-0.149,0.018-0.223,0.024C94.48,163.329,94.555,163.32,94.629,163.312 M98.989,162.495
			c-0.084,0.027-0.184,0.053-0.272,0.08C98.805,162.548,98.906,162.524,98.989,162.495"/>
	</g>
</g>
<text transform="matrix(1 0 0 1 107 27.8948)" fill="#FFFFFF" font-family="'Ubuntu-Bold'" font-size="14">Uturoa</text>
<g>
	<path id="Facebook_Places_1_" fill="#FFFFFF" d="M97.555,25.439c-0.162-0.61-0.494-1.264-0.738-1.832
		c-2.934-7.047-9.339-9.571-14.511-9.571c-6.923,0-14.549,4.642-15.568,14.213v1.956c0,0.08,0.027,0.814,0.067,1.181
		c0.573,4.561,4.169,9.407,6.858,13.967c2.89,4.889,5.891,9.693,8.865,14.5c1.834-3.137,3.66-6.314,5.451-9.367
		c0.488-0.896,1.057-1.793,1.543-2.646c0.327-0.57,0.949-1.139,1.233-1.67c2.892-5.293,7.546-10.63,7.546-15.884v-2.158
		C98.301,27.558,97.596,25.563,97.555,25.439z M82.433,35.254c-2.037,0-4.263-1.018-5.363-3.826
		c-0.164-0.447-0.151-1.345-0.151-1.428v-1.262c0-3.582,3.042-5.212,5.689-5.212c3.259,0,5.779,2.605,5.779,5.864
		S85.69,35.254,82.433,35.254z"/>
</g>
</svg>
