<?xml version="1.0" encoding="utf-8"?>
<!-- Generator: Adobe Illustrator 16.0.0, SVG Export Plug-In . SVG Version: 6.00 Build 0)  -->
<!DOCTYPE svg PUBLIC "-//W3C//DTD SVG 1.1//EN" "http://www.w3.org/Graphics/SVG/1.1/DTD/svg11.dtd">
<svg version="1.1" id="Calque_1" xmlns="http://www.w3.org/2000/svg" xmlns:xlink="http://www.w3.org/1999/xlink" x="0px" y="0px"
	 width="273.784px" height="347.895px" viewBox="0 0 273.784 347.895" enable-background="new 0 0 273.784 347.895"
	 xml:space="preserve">
<g>
	<defs>
		<rect id="SVGID_1_" width="273.784" height="347.895"/>
	</defs>
	<clipPath id="SVGID_2_">
		<use xlink:href="#SVGID_1_"  overflow="visible"/>
	</clipPath>
	<path clip-path="url(#SVGID_2_)" fill-rule="evenodd" clip-rule="evenodd" fill="#005697" d="M272.392,203.807v-0.704
		c-0.65-7.512-21.428,6.582-23.479-0.705c-0.501-1.777,19.208-10.322,11.359-17.63c-3.77-3.512-29.069,13.27-32.567,4.229
		c-1.827-4.723,11.956-5.797,8.332-11.282c-2.339-3.541-4.791-1.117-12.119-2.822c-4.876-1.133-6.29-4.379-9.089-4.231
		c-3.902,0.207-4.516,4.669-8.331,7.053c-0.404,0.252-6.407,3.321-8.33,2.115c-2.677-1.68,0.622-12.526-5.303-14.105
		c-1.225-0.328-5.542,6.124-9.088,2.82c-1.057-0.982,3.533-8.792,3.029-7.049c0.149-0.517,1.642-6.477,0.757-8.465
		c-2.171-4.886-13.23-4.618-15.905-2.117c-0.117,0.112,0.074,4.643-0.757,6.349c-1.89,3.886-3.979,2.376-6.815,5.641
		c-1.182,1.36-11.128,23.684-15.148,10.58c-1.733-5.649,4.234-9.455,6.815-12.694c4.811-6.037,6.121-14.459,11.363-20.452
		c0.372-0.429,10.776-6.186,6.815-9.874c-0.837-0.778-12.32,2.777-12.118,2.82c-1.987-0.43-6.415-5.348-6.816-7.049
		c-1.235-5.243,4.001-7-0.757-9.875c-0.959-0.579-7.855,1.108-6.817,1.411c-7.342-2.138,0.794-7.88-0.758-12.694
		c-3.653-11.335-15.144,7.831-21.206,2.114c-2.089-1.968,2.493-9.017,2.271-14.103c-0.171-3.925-3.359-9.23-4.544-10.578
		c-0.599-0.683-1.89-0.028-3.786-1.411c-1.148-0.838-1.338-3.415-1.516-3.527c-1.749-1.093-3.304,0.578-4.542-0.704
		c-1.275-1.317-1.275-4.644-3.03-6.348c-2.13-2.061-6.326-2.042-7.575-3.525c-2.311-2.745,0.773-7.246-4.544-8.462
		c-0.501-0.115-5.934,1.537-6.815,0.704c-0.698-0.659-1.154-5.722-0.759-7.758c0.548-2.818,4.481-3.71,3.029-7.051
		c-1.358-3.128-5.402-0.625-7.573-2.117c-1.232-0.845-1.416-4.487-3.03-6.346c-2.804-3.229-17.11-12.792-19.692-9.167
		c-2.268,3.184-2.701-2.287-8.332-2.822c-3.223-0.305-9.642,3.189-12.117,4.231c-3.831,1.614-12.999,2.875-16.663,4.936
		c-2.49,1.403-9.574,5.899-9.089,8.464c1.034,5.45-3.24-0.196-6.059,1.411c-3.875,2.208-0.315,7.339-0.756,9.167
		c-1.12,4.635-6.184,6.221-6.06,9.874c0.135,3.992,9.494,9.562,12.875,11.989c2.515,1.803,3.412,7.384-4.542,3.524
		c-2.29-1.11-1.8-4.418-3.031-4.935c-12.027-5.045-6.922,11.723-8.332,19.041c-0.182,0.952-2.139,5.059-0.756,6.346
		c1.201,1.119,16.269-7.988,10.602-1.409c-1.753,2.037-7.02,6.006-5.3,12.693c0.109,0.429,2.277,2.197,2.271,2.822
		c-0.026,2.366-2.447,4.22-2.271,4.937c0.632,2.596,2.292,0.794,3.786,2.821c0.889,1.206,0.63,4.595,1.514,6.348
		c2.161,4.277,5.075,4.982,5.303,10.577c0.108,2.652,0.5,9.301,0,13.4c-0.229,1.88-1.905,2.083-1.514,4.231
		c0.785,4.332,4.44,5.024,6.058,8.461c0.567,1.204-0.407,3.212,0,4.938c1.273,5.399,9.517,10.035,11.361,13.4
		c2.53,4.615-0.63,7.5,3.03,8.463c3.104,0.814,4.734-5.901,7.573-4.937c1.498,0.508,1.979,5.889,1.515,4.937
		c1.87,3.853,4.199,3.362,4.544,5.64c0.813,5.363-6.549,8.868-6.817,11.283c-0.287,2.604,3.654,4.012,3.787,6.349
		c0.25,4.329-5.287,7.837-5.3,11.283c-0.016,3.478,3.032,4.238,5.3,7.758c1.689,2.622,1.621,5.52,3.03,7.053
		c3.809,4.147,10.208,3.457,4.546,10.578c-3.515,15.721,11.951,7.222,15.905,1.409c6.693-1.393,13.411,2.904,12.874,7.054
		c-0.697,5.374-9.994,2.777-12.118,7.758c-2.735,6.41,4.14,9.014,7.574,14.105c0.292,0.435-0.416,2.799,0,3.524
		c0.497,0.87,2.307,1.631,3.029,2.82c2.612,4.301,4.974,9.754,9.088,11.989c3.147,1.71,5.994-1.712,6.817,3.527
		c0.734,4.671-5.596,7.42-6.817,11.283c-0.422,1.339,1.109,4.488,0.758,7.758c-0.567,5.256-5.323,10.821-4.544,12.694
		c0.855,2.054,13.873,5.587,17.42,5.641c6.124,0.095,8.287-2.967,4.544,4.23c-0.165,6.071,6.042,2.839,9.845,4.234
		c16.006,2.244,13.828-13.328,22.722-18.338c0.974-0.547,4.813-0.436,6.059-1.41c2.221-1.736,2.357-7.332,4.546-10.578
		c1.539-2.286,2.771-0.457,3.029-2.821c0.36-3.294-6.277-8.986-5.303-11.284c1.623-3.818,10.538,0.315,12.118-2.819
		c1.432-2.847-3.273-8.238-3.786-9.17c-2.197-3.979-7.011-11.647-0.759-14.809c9.957-5.034,8.155,10.737,11.361,16.22
		c2.248,3.845,11.028,11.738,12.118,11.284c3.133-1.309-1.273-3.923,1.515-7.757c2.083-2.867,13.072-3.364,21.207-4.938
		c2.146-0.413,3.353-1.994,4.544-2.115c1.668-0.169,3.715,1.613,5.303,0.706c3.439-1.97,5.903-13.58,11.359-16.221
		c3.662-1.771,7.299,1.649,9.846-2.116c1.489-2.199-1.064-4.915,0-7.051c2.695-5.408,14.196-2.054,17.42-5.643
		c2.386-2.655-1.374-8.592,1.515-10.578c0.312-0.214,4.674,2.183,5.303,2.115c4.3-0.446,4.666-8.058,8.33-13.399
		c1.048-1.528,3.984-3.099,4.546-4.23C273.656,227.103,274.983,209.205,272.392,203.807 M83.884,170.682
		c-0.002-0.029-0.009-0.061-0.012-0.09C83.875,170.621,83.882,170.652,83.884,170.682 M81.595,166.195
		c-0.014,0.005-0.026,0.012-0.041,0.019C81.569,166.207,81.581,166.2,81.595,166.195 M85.317,157.969
		c-0.16,0.205-0.287,0.438-0.402,0.681C85.03,158.407,85.157,158.174,85.317,157.969 M84.83,158.837
		c-0.1,0.238-0.189,0.487-0.262,0.749C84.64,159.323,84.73,159.075,84.83,158.837 M84.516,159.796
		c-0.049,0.196-0.094,0.396-0.135,0.602C84.422,160.192,84.468,159.992,84.516,159.796 M83.866,170.977
		c-0.005,0.035-0.003,0.073-0.011,0.11C83.863,171.05,83.861,171.012,83.866,170.977 M83.762,171.344
		c-0.016,0.037-0.024,0.077-0.044,0.113C83.738,171.421,83.746,171.381,83.762,171.344 M83.53,171.693
		c-0.028,0.031-0.045,0.064-0.077,0.094C83.485,171.757,83.502,171.724,83.53,171.693 M83.802,170.197
		c0.004,0.017,0.01,0.034,0.014,0.049C83.812,170.23,83.806,170.213,83.802,170.197 M82.899,165.252L82.899,165.252L82.899,165.252
		L82.899,165.252z M98.108,162.747c-0.115,0.028-0.243,0.051-0.364,0.078C97.865,162.798,97.993,162.775,98.108,162.747
		 M97.081,162.96c-0.126,0.023-0.26,0.043-0.391,0.065C96.821,163.003,96.955,162.983,97.081,162.96 M95.922,163.146
		c-0.118,0.018-0.24,0.032-0.361,0.049C95.682,163.178,95.804,163.163,95.922,163.146 M94.629,163.312
		c-0.074,0.008-0.149,0.017-0.223,0.024C94.48,163.329,94.555,163.32,94.629,163.312 M98.989,162.495
		c-0.084,0.028-0.184,0.053-0.272,0.08C98.805,162.548,98.906,162.524,98.989,162.495"/>
</g>
<g>
	<path id="Facebook_Places" fill="#FFFFFF" d="M96.978,32.731c-0.13-0.489-0.396-1.011-0.592-1.467
		c-2.348-5.642-7.477-7.664-11.619-7.664c-5.544,0-11.651,3.718-12.466,11.381v1.566c0,0.065,0.022,0.652,0.054,0.946
		c0.458,3.652,3.339,7.534,5.491,11.186c2.315,3.913,4.718,7.762,7.099,11.609c1.468-2.511,2.93-5.055,4.365-7.5
		c0.391-0.718,0.845-1.435,1.236-2.12c0.261-0.456,0.759-0.912,0.987-1.337c2.315-4.239,6.042-8.511,6.042-12.718v-1.729
		C97.575,34.428,97.01,32.83,96.978,32.731z M84.869,40.591c-1.63,0-3.414-0.815-4.294-3.065c-0.131-0.358-0.121-1.077-0.121-1.142
		v-1.011c0-2.869,2.436-4.174,4.556-4.174c2.609,0,4.627,2.087,4.627,4.696C89.637,38.504,87.478,40.591,84.869,40.591z"/>
</g>
<text transform="matrix(1 0 0 1 107 27.895)" fill="#FFFFFF" font-family="'Ubuntu-Bold'" font-size="14">Uturoa</text>
</svg>
