<?xml version="1.0" encoding="utf-8"?>
<!-- Generator: Adobe Illustrator 16.0.0, SVG Export Plug-In . SVG Version: 6.00 Build 0)  -->
<!DOCTYPE svg PUBLIC "-//W3C//DTD SVG 1.1//EN" "http://www.w3.org/Graphics/SVG/1.1/DTD/svg11.dtd">
<svg version="1.1" id="Calque_1" xmlns="http://www.w3.org/2000/svg" xmlns:xlink="http://www.w3.org/1999/xlink" x="0px" y="0px"
	 width="513.191px" height="418.082px" viewBox="0 0 513.191 418.082" enable-background="new 0 0 513.191 418.082"
	 xml:space="preserve">
<g>
	<g>
		<defs>
			<rect id="SVGID_1_" x="73.2" y="46.395" width="434.896" height="361.146"/>
		</defs>
		<clipPath id="SVGID_2_">
			<use xlink:href="#SVGID_1_"  overflow="visible"/>
		</clipPath>
		<path clip-path="url(#SVGID_2_)" fill="#005697" d="M503.162,341.523c1.009-0.018,2.033-0.231,2.273-0.475
			c0.237-0.239,0.486-2.913,0.555-5.936c0.082-3.654,0.456-5.902,1.116-6.715c0.772-0.948,0.994-3.409,0.988-10.963
			c-0.007-8.328-0.204-10.143-1.356-12.505c-1.717-3.52-4.214-3.845-5.675-0.738l-0.953,2.031l-1.596-1.896
			c-2.109-2.498-2.021-3.045,0.604-3.738c1.359-0.36,2.202-1.018,2.202-1.719c0-1.731-9.193-12.64-11.718-13.901
			c-2.876-1.439-3.481-1.405-5.253,0.289c-1.32,1.263-1.557,1.297-2.35,0.326c-0.683-0.844-0.703-1.467-0.089-2.839
			c0.883-1.981,0.788-2.231-2.444-6.331c-2.65-3.365-4.743-4.633-8.772-5.315c-4.264-0.721-5.806,0.396-5.528,3.998
			c0.218,2.793,0.156,2.89-1.94,3.098c-1.826,0.18-2.333-0.116-3.235-1.892c-0.586-1.163-2.255-2.726-3.706-3.48
			c-5.305-2.759-13.022-5.554-15.339-5.554c-1.308,0-3.495-0.476-4.862-1.058c-2.981-1.271-4.246-0.912-4.261,1.209
			c-0.019,2.586-0.95,3.569-2.554,2.693c-0.93-0.506-1.265-1.206-1.028-2.135c1.032-4.017-2.4-6.931-8.167-6.931
			c-2.321,0-3.314,0.345-4.04,1.397c-1.012,1.471-3.185,1.248-3.185-0.326c0-1.414-2.394-3.178-4.863-3.585
			c-3.166-0.524-7.163,1.231-7.454,3.275c-0.287,2.001-3.718,3.113-5.279,1.711c-0.575-0.518-2.726-1.16-4.776-1.428
			c-3.924-0.512-15.153-3.781-23.728-6.906c-3.396-1.237-5.936-2.706-7.646-4.422l-2.564-2.565l0.677-6.187
			c0.703-6.396,0.523-22.46-0.266-23.761c-0.729-1.199-2.25-0.849-3.364,0.774c-0.573,0.833-1.189,1.36-1.373,1.175
			c-0.185-0.187-0.541-2.19-0.794-4.45c-0.455-4.057-0.444-4.095,0.88-2.902c1.733,1.563,2.713,1.528,3.58-0.127
			c1.832-3.489-0.329-11.847-3.31-12.813c-2.087-0.675-5.367-4.932-5.858-7.599c-0.586-3.194,1.065-7.543,2.979-7.837
			c1.488-0.23,5.579-6.351,7.94-11.878c1.079-2.533,1.305-4.496,1.207-10.581c-0.123-7.727-1.068-10.842-3.288-10.842
			c-0.615,0-1-0.664-1-1.728c0-1.361,0.344-1.728,1.622-1.728c1.771,0,2.446-1.137,2.446-4.117c0-2.724-1.86-6.939-3.061-6.939
			c-1.591,0-1.179-1.535,0.854-3.188l1.862-1.514l-1.567-3.29c-0.863-1.811-1.744-4.872-1.958-6.806
			c-0.464-4.211-1.091-5.592-3.178-6.985c-2.072-1.383-3.612-0.699-4.162,1.848c-0.674,3.125-1.96,3.076-5.71-0.215
			c-3.994-3.506-4.299-4.96-1.228-5.858c1.224-0.358,2.627-1.438,3.185-2.453c0.937-1.695,0.88-1.963-0.856-4.124
			c-5.684-7.067-7.792-11.389-9.966-20.45c-0.387-1.613-1.375-3.57-2.196-4.348c-1.291-1.228-1.983-1.346-5.229-0.903
			c-2.058,0.283-4.501,0.433-5.435,0.334c-0.932-0.098-4.135-0.272-7.117-0.388c-2.983-0.116-7.326-0.451-9.647-0.744
			c-5.379-0.682-6.238-0.061-5.774,4.16c0.281,2.527,0.144,3.096-0.747,3.096c-1.44,0-3.298-2.959-2.756-4.396
			c0.928-2.471-0.357-4.545-3.967-6.391c-1.952-0.999-5.036-2.894-6.854-4.214c-3.199-2.323-3.448-2.385-7.796-1.951
			c-4.684,0.467-10.479-0.875-18.729-4.338c-1.865-0.782-6.732-2.127-10.818-2.988c-7.054-1.485-7.61-1.73-11.008-4.867
			c-1.967-1.816-4.347-3.499-5.286-3.739c-1.974-0.505-5.412,0.021-10.024,1.538c-2.03,0.667-4.637,0.945-6.978,0.744
			c-3.182-0.274-4.104-0.695-6.195-2.827c-2.129-2.169-2.883-2.504-5.65-2.504c-1.949,0-3.509-0.387-4.002-0.991
			c-1.975-2.427-8.44-1.824-11.487,1.069c-1.391,1.321-1.514,1.891-1.114,5.157c0.261,2.122,0.16,4.227-0.241,4.989
			c-0.732,1.395-8.12,7.739-12.542,10.772c-3.201,2.196-6.788,2.356-10.393,0.462c-2.342-1.232-3.204-1.29-10.02-0.683
			c-7.737,0.688-9.153,1.343-9.153,4.235c0,0.688-0.305,1.25-0.677,1.25c-0.375,0-0.679-0.363-0.679-0.809s-0.505-1.379-1.121-2.074
			c-2.624-2.954-9.405-0.494-14.281,5.181c-1.201,1.397-2.362,2.539-2.58,2.539c-0.624,0-8.326,5.443-8.794,6.212
			c-0.228,0.38,0.363,1.732,1.315,3.005c2.181,2.914,2.179,3.771-0.012,4.333c-2.764,0.707-4.908-0.673-5.159-3.321l-0.214-2.282
			l-5.197-0.202c-3.958-0.154-6.138,0.146-9.152,1.256c-2.176,0.802-5.848,2.035-8.161,2.74c-5.354,1.632-5.324,1.61-9.905,6.737
			c-3.416,3.82-3.856,4.646-3.856,7.239c0,3.149,1.205,9.911,3.729,20.926c0.872,3.801,1.781,8.466,2.022,10.366
			c0.239,1.9,0.741,4.647,1.113,6.105c0.674,2.648,0.678,2.65,3.854,2.418c2.768-0.201,3.204-0.049,3.376,1.174
			c0.15,1.065-0.34,1.565-2.034,2.072c-2.066,0.62-2.223,0.872-2.135,3.434c0.206,5.875,1.351,11.208,2.818,13.109
			c2.332,3.022,2.008,6.353-0.88,9.049c-2.121,1.979-2.374,2.593-2.374,5.749c0,3.944,0.023,3.976,6.559,8.713
			c4.652,3.374,7.199,7.151,8.345,12.374c0.407,1.861,1.361,4.274,2.12,5.36c1.834,2.623,4.512,9.429,5.43,13.796
			c0.908,4.313,2.754,6.489,4.638,5.462c1.876-1.023,2.061-0.914,2.061,1.212c0,1.105-0.612,2.456-1.444,3.182
			c-1.277,1.115-1.396,1.736-1.027,5.342c0.298,2.9,0.102,5.031-0.676,7.36c-0.92,2.753-0.969,3.936-0.312,7.423
			c0.431,2.279,0.699,7.721,0.596,12.095c-0.178,7.549-0.093,8.128,1.709,11.614c1.751,3.387,2.064,3.653,4.068,3.455
			c1.741-0.17,2.212-0.558,2.375-1.939c0.379-3.23,0.711-3.714,1.879-2.724c0.838,0.709,0.961,1.746,0.604,5.127
			c-0.413,3.938-0.312,4.403,1.401,6.477c3.106,3.762,10.863,7.038,23.228,9.805c5.422,1.213,9.312,1.511,22.098,1.681l15.515,0.208
			l1.651,2.151c2.193,2.858,5.983,3.085,6.977,0.424c0.354-0.952,1.035-1.728,1.509-1.728c1.043,0,4.353,4.102,5.252,6.515
			c0.356,0.954,2.565,3.039,4.909,4.634c2.344,1.596,5.396,4.385,6.782,6.199c3.741,4.896,10.893,8.227,17.629,8.206
			c5.471-0.018,8.854-1.23,12.67-4.543c1.271-1.105,3.559-2.629,5.085-3.392c1.524-0.759,2.864-1.888,2.975-2.508
			c0.113-0.619-1.031-2.582-2.542-4.36c-1.509-1.779-2.745-3.547-2.745-3.925c0-0.381,1.143-0.595,2.542-0.478
			c2.1,0.179,2.583,0.506,2.773,1.886c0.128,0.916,0.972,2.859,1.873,4.317l1.642,2.65h5.663c4.774,0,5.954-0.235,7.524-1.493
			c1.67-1.342,1.812-1.781,1.388-4.319c-0.912-5.475-0.812-6.264,0.832-6.502c1.369-0.198,1.524,0.069,1.524,2.623
			c0,2.104,0.438,3.288,1.681,4.556l1.679,1.709l12.369-0.187l12.368-0.189l3.134-4.832c3.358-5.179,3.512-6.664,0.887-8.418
			c-0.88-0.588-1.431-1.346-1.226-1.683c0.713-1.174,2.326-0.605,4.13,1.457c2.154,2.464,3.084,2.525,6.673,0.431
			c2.285-1.332,2.744-1.979,2.923-4.114c0.112-1.396,0.385-2.537,0.599-2.537c0.215,0,1.134,0.817,2.036,1.814
			c1.434,1.576,2.045,1.767,4.688,1.463c3.743-0.429,3.964-0.647,3.765-3.701c-0.136-2.026,0.046-2.408,1.047-2.213
			c0.972,0.188,1.309,1.222,1.702,5.228c0.268,2.744,1.077,6.164,1.795,7.601c0.719,1.438,1.972,4.849,2.787,7.582
			c1.595,5.352,4.518,10.417,7.298,12.647c1.638,1.311,1.833,1.324,3.495,0.25c0.969-0.63,2.373-1.898,3.121-2.82
			c2.417-2.979,4.835-0.515,4.287,4.367c-0.155,1.352-0.654,2.043-1.579,2.183c-5.294,0.805-5.647,1.591-3.67,8.161
			c1.844,6.116,2.223,6.549,5.62,6.332c2.777-0.172,2.795-0.156,2.795,2.246c0,1.818-0.287,2.422-1.16,2.428
			c-0.637,0.004-1.539,0.395-2,0.866c-1.53,1.558,1.992,11.148,7.416,20.2c4.231,7.062,4.665,7.52,9.238,9.742
			c4.568,2.216,6.145,1.891,7.31-1.517c0.797-2.33,3.118-3.996,3.556-2.551c0.15,0.489,0.443,2.135,0.648,3.655
			c0.208,1.534,0.968,3.258,1.707,3.874c1.721,1.434,10.014,2.358,11.313,1.259c1.811-1.53,3.052-0.229,2.59,2.714
			c-0.407,2.59-0.305,2.777,2.624,4.835c3.645,2.554,8.734,3.917,10.678,2.855c0.728-0.395,1.518-1.521,1.759-2.501
			c0.392-1.598,0.688-1.743,2.805-1.392c3.069,0.508,3.339,0.856,1.908,2.468c-3.172,3.572,1.286,6.529,10.226,6.783
			c5.081,0.146,6.835,0.497,9.652,1.938c1.893,0.972,4.962,1.948,6.82,2.171c3.246,0.393,3.426,0.323,4.586-1.754
			c1.341-2.397,2.307-2.699,3.598-1.114c0.685,0.844,0.689,1.435,0.025,2.923c-0.767,1.712-0.668,2.008,1.201,3.608
			c5.015,4.289,8.039,6.21,9.781,6.222c1.62,0.011,2.093-0.498,3.521-3.787c1.016-2.339,2.248-4.05,3.211-4.448
			c11.021-4.597,14.962-6.644,16.528-8.586c2.58-3.199,7.898-12.318,11.494-19.708c3.667-7.54,5.679-9.76,8.845-9.76
			c2.361,0,4.358-1.477,4.358-3.225c0-0.58-0.458-2.656-1.016-4.617c-0.561-1.96-0.94-4.785-0.849-6.277
			c0.149-2.388-0.036-2.768-1.528-3.142C500.701,343.41,500.809,341.566,503.162,341.523"/>
	</g>
</g>
<g>
	<g>
		<defs>
			<rect id="SVGID_3_" x="117.627" y="38.403" width="31.071" height="43.387"/>
		</defs>
		<clipPath id="SVGID_4_">
			<use xlink:href="#SVGID_3_"  overflow="visible"/>
		</clipPath>
		<path clip-path="url(#SVGID_4_)" fill="#FFFFFF" d="M133.168,38.403c-8.661,0-15.539,6.725-15.539,15.19
			c0,11.281,15.539,28.197,15.539,28.197s15.531-16.917,15.531-28.197C148.698,45.128,141.818,38.403,133.168,38.403
			 M133.168,59.018c-3.113,0-5.548-2.396-5.548-5.423c0-3.042,2.435-5.424,5.548-5.424c3.101,0,5.548,2.382,5.548,5.424
			C138.718,56.623,136.269,59.018,133.168,59.018"/>
	</g>
	<text transform="matrix(1 0 0 1 148.698 38.4033)" fill="#FFFFFF" font-family="'Ubuntu-Bold'" font-size="12">Prince Hinoi</text>
	<text transform="matrix(1 0 0 1 36.804 64.8486)" fill="#FFFFFF" font-family="'Ubuntu-Bold'" font-size="12">Fare tony</text>
	<text transform="matrix(1 0 0 1 4.0959 90.541)"><tspan x="0" y="0" fill="#FFFFFF" font-family="'Ubuntu-Bold'" font-size="12">Carrefour</tspan><tspan x="0" y="14.4" fill="#FFFFFF" font-family="'Ubuntu-Bold'" font-size="12">Punauuia</tspan></text>
</g>
<g>
	<g>
		<defs>
			<rect id="SVGID_5_" x="73.2" y="85.032" width="17.53" height="27.403"/>
		</defs>
		<clipPath id="SVGID_6_">
			<use xlink:href="#SVGID_5_"  overflow="visible"/>
		</clipPath>
		<path clip-path="url(#SVGID_6_)" fill="#FFFFFF" d="M81.968,85.032c-4.886,0-8.767,4.248-8.767,9.595
			c0,7.125,8.767,17.81,8.767,17.81s8.763-10.685,8.763-17.81C90.731,89.279,86.848,85.032,81.968,85.032 M81.968,98.052
			c-1.756,0-3.129-1.513-3.129-3.425c0-1.922,1.374-3.425,3.129-3.425c1.75,0,3.131,1.503,3.131,3.425
			C85.099,96.539,83.718,98.052,81.968,98.052"/>
	</g>
</g>
<g>
	<path id="Facebook_Places" fill="#52B8E9" d="M115.595,73.282c-0.121-0.452-0.365-0.934-0.547-1.355
		c-2.168-5.21-6.905-7.078-10.731-7.078c-5.121,0-10.761,3.434-11.514,10.511v1.446c0,0.061,0.021,0.603,0.051,0.874
		c0.421,3.373,3.083,6.958,5.071,10.331c2.138,3.614,4.357,7.169,6.556,10.723c1.355-2.319,2.706-4.668,4.031-6.927
		c0.361-0.663,0.78-1.326,1.142-1.958c0.241-0.421,0.701-0.843,0.912-1.235c2.139-3.915,5.581-7.861,5.581-11.746V75.27
		C116.147,74.849,115.625,73.373,115.595,73.282z M104.411,80.541c-1.505,0-3.153-0.752-3.966-2.831
		c-0.122-0.331-0.111-0.994-0.111-1.055v-0.934c0-2.65,2.25-3.854,4.208-3.854c2.409,0,4.273,1.928,4.273,4.337
		S106.821,80.541,104.411,80.541z"/>
</g>
</svg>
