<?xml version="1.0" encoding="utf-8"?>
<!-- Generator: Adobe Illustrator 16.0.0, SVG Export Plug-In . SVG Version: 6.00 Build 0)  -->
<!DOCTYPE svg PUBLIC "-//W3C//DTD SVG 1.1//EN" "http://www.w3.org/Graphics/SVG/1.1/DTD/svg11.dtd">
<svg version="1.1" id="Calque_1" xmlns="http://www.w3.org/2000/svg" xmlns:xlink="http://www.w3.org/1999/xlink" x="0px" y="0px"
	 width="513.191px" height="418.082px" viewBox="0 0 513.191 418.082" enable-background="new 0 0 513.191 418.082"
	 xml:space="preserve">
<g>
	<path id="Facebook_Places_6_" fill="#52B8E9" d="M151.052,47.376c-0.162-0.61-0.494-1.264-0.738-1.832
		c-2.934-7.047-9.339-9.571-14.511-9.571c-6.923,0-14.549,4.642-15.568,14.213v1.956c0,0.08,0.027,0.814,0.067,1.181
		c0.573,4.561,4.169,9.407,6.858,13.968c2.89,4.889,5.891,9.693,8.865,14.5c1.834-3.137,3.66-6.314,5.451-9.367
		c0.488-0.896,1.057-1.793,1.543-2.646c0.327-0.57,0.949-1.139,1.233-1.67c2.892-5.293,7.546-10.631,7.546-15.885v-2.158
		C151.799,49.496,151.094,47.5,151.052,47.376z M135.931,57.191c-2.037,0-4.263-1.018-5.363-3.826
		c-0.164-0.447-0.151-1.345-0.151-1.428v-1.262c0-3.582,3.042-5.212,5.689-5.212c3.259,0,5.779,2.605,5.779,5.864
		S139.188,57.191,135.931,57.191z"/>
</g>
<g>
	<path id="Facebook_Places_5_" fill="#52B8E9" d="M96.959,86.41c-0.162-0.61-0.494-1.264-0.738-1.832
		c-2.934-7.047-9.339-9.571-14.511-9.571c-6.923,0-14.549,4.642-15.568,14.213v1.956c0,0.08,0.027,0.814,0.067,1.181
		c0.573,4.561,4.169,9.407,6.858,13.968c2.89,4.889,5.891,9.693,8.865,14.5c1.834-3.137,3.66-6.314,5.451-9.367
		c0.488-0.896,1.057-1.793,1.543-2.646c0.327-0.57,0.949-1.139,1.233-1.67c2.892-5.293,7.546-10.631,7.546-15.885v-2.158
		C97.705,88.529,97,86.534,96.959,86.41z M81.837,96.224c-2.037,0-4.263-1.018-5.363-3.826c-0.164-0.447-0.151-1.345-0.151-1.428
		v-1.262c0-3.582,3.042-5.212,5.689-5.212c3.259,0,5.779,2.605,5.779,5.864S85.094,96.224,81.837,96.224z"/>
</g>
<g>
	<g>
		<g>
			<defs>
				<rect id="SVGID_1_" x="73.2" y="46.395" width="434.896" height="361.146"/>
			</defs>
			<clipPath id="SVGID_2_">
				<use xlink:href="#SVGID_1_"  overflow="visible"/>
			</clipPath>
			<path clip-path="url(#SVGID_2_)" fill="#005697" d="M503.162,341.523c1.01-0.019,2.033-0.231,2.273-0.476
				c0.237-0.239,0.486-2.913,0.555-5.937c0.082-3.653,0.456-5.901,1.116-6.715c0.772-0.947,0.994-3.408,0.988-10.963
				c-0.007-8.328-0.204-10.143-1.356-12.505c-1.717-3.52-4.214-3.845-5.675-0.737l-0.953,2.031l-1.596-1.896
				c-2.109-2.498-2.021-3.045,0.604-3.738c1.359-0.359,2.202-1.018,2.202-1.719c0-1.73-9.192-12.641-11.718-13.901
				c-2.876-1.438-3.481-1.405-5.253,0.289c-1.32,1.263-1.557,1.297-2.351,0.326c-0.683-0.844-0.702-1.467-0.089-2.839
				c0.884-1.98,0.788-2.23-2.443-6.331c-2.65-3.365-4.743-4.633-8.772-5.315c-4.264-0.721-5.806,0.396-5.527,3.998
				c0.218,2.793,0.155,2.891-1.94,3.098c-1.826,0.181-2.333-0.115-3.235-1.892c-0.586-1.163-2.255-2.726-3.706-3.479
				c-5.305-2.76-13.021-5.555-15.339-5.555c-1.308,0-3.495-0.476-4.861-1.058c-2.981-1.271-4.246-0.912-4.262,1.209
				c-0.019,2.586-0.949,3.569-2.554,2.692c-0.93-0.506-1.265-1.205-1.028-2.135c1.032-4.017-2.399-6.931-8.167-6.931
				c-2.32,0-3.313,0.345-4.04,1.397c-1.012,1.471-3.185,1.248-3.185-0.326c0-1.414-2.395-3.178-4.863-3.585
				c-3.166-0.524-7.163,1.23-7.454,3.274c-0.287,2.002-3.718,3.113-5.278,1.711c-0.575-0.518-2.727-1.16-4.776-1.428
				c-3.924-0.512-15.153-3.781-23.728-6.906c-3.396-1.236-5.937-2.705-7.646-4.422l-2.563-2.564l0.677-6.188
				c0.703-6.396,0.522-22.46-0.267-23.761c-0.729-1.199-2.25-0.849-3.363,0.774c-0.573,0.832-1.189,1.359-1.373,1.175
				c-0.186-0.188-0.541-2.19-0.794-4.45c-0.455-4.057-0.444-4.096,0.88-2.902c1.732,1.563,2.713,1.528,3.58-0.127
				c1.832-3.489-0.329-11.847-3.311-12.813c-2.087-0.675-5.367-4.932-5.857-7.599c-0.586-3.194,1.064-7.543,2.979-7.837
				c1.488-0.229,5.579-6.351,7.94-11.878c1.079-2.533,1.305-4.496,1.207-10.581c-0.123-7.727-1.068-10.842-3.288-10.842
				c-0.615,0-1-0.664-1-1.728c0-1.361,0.344-1.728,1.622-1.728c1.771,0,2.445-1.137,2.445-4.117c0-2.724-1.859-6.938-3.061-6.938
				c-1.591,0-1.179-1.535,0.854-3.188l1.862-1.514l-1.566-3.29c-0.863-1.811-1.744-4.872-1.958-6.806
				c-0.465-4.211-1.092-5.592-3.179-6.985c-2.071-1.383-3.611-0.699-4.162,1.848c-0.674,3.125-1.96,3.076-5.71-0.215
				c-3.993-3.506-4.299-4.96-1.228-5.858c1.224-0.358,2.627-1.438,3.185-2.453c0.938-1.695,0.88-1.963-0.855-4.124
				c-5.685-7.067-7.792-11.389-9.966-20.45c-0.388-1.613-1.375-3.57-2.196-4.348c-1.291-1.228-1.983-1.346-5.229-0.903
				c-2.058,0.283-4.501,0.433-5.435,0.334c-0.932-0.098-4.135-0.272-7.117-0.388c-2.982-0.116-7.326-0.451-9.647-0.744
				c-5.379-0.682-6.237-0.062-5.773,4.16c0.281,2.527,0.144,3.096-0.747,3.096c-1.44,0-3.298-2.959-2.756-4.396
				c0.928-2.471-0.357-4.545-3.968-6.391c-1.951-0.999-5.035-2.894-6.854-4.214c-3.199-2.323-3.448-2.385-7.796-1.951
				c-4.685,0.467-10.479-0.875-18.729-4.338c-1.864-0.782-6.731-2.127-10.817-2.988c-7.055-1.485-7.61-1.73-11.008-4.867
				c-1.968-1.816-4.348-3.499-5.286-3.739c-1.975-0.505-5.412,0.021-10.024,1.538c-2.03,0.667-4.637,0.945-6.978,0.744
				c-3.183-0.274-4.104-0.695-6.195-2.827c-2.129-2.169-2.883-2.504-5.65-2.504c-1.948,0-3.509-0.387-4.002-0.991
				c-1.975-2.427-8.439-1.824-11.486,1.069c-1.392,1.321-1.515,1.891-1.114,5.157c0.261,2.122,0.16,4.227-0.241,4.989
				c-0.731,1.395-8.12,7.739-12.542,10.772c-3.201,2.196-6.788,2.356-10.393,0.462c-2.343-1.232-3.204-1.29-10.021-0.683
				c-7.736,0.688-9.152,1.343-9.152,4.235c0,0.688-0.306,1.25-0.678,1.25c-0.375,0-0.679-0.363-0.679-0.809
				c0-0.446-0.505-1.379-1.121-2.074c-2.624-2.954-9.405-0.494-14.281,5.181c-1.2,1.397-2.361,2.539-2.58,2.539
				c-0.624,0-8.325,5.443-8.794,6.212c-0.228,0.38,0.363,1.732,1.315,3.005c2.181,2.914,2.179,3.771-0.012,4.333
				c-2.765,0.707-4.908-0.673-5.159-3.321l-0.214-2.282l-5.197-0.202c-3.958-0.154-6.138,0.146-9.152,1.256
				c-2.176,0.802-5.848,2.035-8.161,2.74c-5.354,1.632-5.323,1.61-9.904,6.737c-3.416,3.82-3.856,4.646-3.856,7.239
				c0,3.149,1.205,9.911,3.729,20.926c0.872,3.801,1.78,8.466,2.021,10.366c0.239,1.9,0.741,4.647,1.113,6.105
				c0.674,2.648,0.678,2.65,3.854,2.418c2.769-0.201,3.204-0.049,3.376,1.174c0.15,1.065-0.34,1.565-2.033,2.072
				c-2.066,0.62-2.224,0.872-2.136,3.434c0.206,5.875,1.352,11.208,2.818,13.109c2.332,3.022,2.008,6.353-0.88,9.049
				c-2.121,1.979-2.374,2.593-2.374,5.749c0,3.944,0.022,3.976,6.559,8.713c4.652,3.374,7.199,7.151,8.346,12.374
				c0.406,1.861,1.36,4.274,2.119,5.36c1.835,2.623,4.513,9.429,5.431,13.796c0.908,4.313,2.754,6.488,4.638,5.461
				c1.876-1.022,2.062-0.914,2.062,1.213c0,1.104-0.612,2.455-1.444,3.182c-1.277,1.115-1.396,1.736-1.027,5.342
				c0.298,2.9,0.103,5.031-0.676,7.36c-0.92,2.753-0.969,3.937-0.312,7.423c0.431,2.279,0.698,7.721,0.596,12.096
				c-0.178,7.549-0.093,8.127,1.709,11.613c1.751,3.387,2.063,3.653,4.068,3.455c1.74-0.17,2.212-0.559,2.375-1.939
				c0.379-3.229,0.711-3.713,1.879-2.724c0.838,0.709,0.961,1.746,0.604,5.127c-0.413,3.938-0.312,4.403,1.401,6.478
				c3.105,3.762,10.862,7.037,23.228,9.805c5.422,1.213,9.313,1.511,22.099,1.681l15.515,0.208l1.651,2.151
				c2.192,2.858,5.982,3.085,6.977,0.424c0.354-0.952,1.035-1.728,1.509-1.728c1.043,0,4.354,4.102,5.252,6.515
				c0.356,0.954,2.565,3.039,4.909,4.634c2.344,1.596,5.396,4.385,6.782,6.199c3.741,4.896,10.893,8.227,17.629,8.206
				c5.471-0.019,8.854-1.229,12.67-4.543c1.271-1.104,3.559-2.629,5.085-3.392c1.524-0.76,2.864-1.889,2.975-2.509
				c0.113-0.618-1.03-2.581-2.542-4.36c-1.509-1.778-2.744-3.547-2.744-3.924c0-0.382,1.143-0.596,2.542-0.479
				c2.1,0.179,2.583,0.506,2.772,1.886c0.128,0.916,0.972,2.859,1.873,4.317l1.643,2.65h5.662c4.774,0,5.954-0.235,7.524-1.494
				c1.67-1.342,1.812-1.78,1.388-4.318c-0.912-5.475-0.812-6.264,0.832-6.502c1.369-0.198,1.524,0.068,1.524,2.623
				c0,2.104,0.438,3.287,1.681,4.556l1.679,1.709l12.369-0.187l12.368-0.189l3.134-4.832c3.358-5.179,3.513-6.664,0.888-8.418
				c-0.88-0.588-1.432-1.346-1.227-1.683c0.713-1.175,2.326-0.605,4.13,1.456c2.154,2.465,3.084,2.525,6.674,0.432
				c2.285-1.332,2.744-1.979,2.923-4.114c0.112-1.396,0.385-2.536,0.599-2.536c0.215,0,1.134,0.816,2.036,1.813
				c1.435,1.576,2.045,1.767,4.688,1.463c3.742-0.429,3.964-0.647,3.765-3.701c-0.136-2.026,0.046-2.407,1.047-2.213
				c0.972,0.188,1.31,1.222,1.702,5.228c0.268,2.744,1.077,6.164,1.795,7.602c0.719,1.438,1.972,4.85,2.787,7.582
				c1.595,5.352,4.518,10.417,7.298,12.646c1.638,1.312,1.833,1.324,3.495,0.25c0.969-0.629,2.373-1.897,3.121-2.819
				c2.417-2.979,4.835-0.515,4.287,4.366c-0.155,1.353-0.654,2.043-1.579,2.184c-5.294,0.805-5.647,1.591-3.67,8.161
				c1.844,6.116,2.223,6.549,5.62,6.332c2.776-0.172,2.795-0.156,2.795,2.246c0,1.817-0.287,2.422-1.16,2.428
				c-0.637,0.004-1.539,0.396-2,0.866c-1.53,1.559,1.992,11.148,7.416,20.199c4.23,7.063,4.665,7.521,9.238,9.742
				c4.567,2.217,6.145,1.892,7.31-1.517c0.797-2.33,3.118-3.996,3.556-2.551c0.15,0.489,0.443,2.135,0.648,3.655
				c0.208,1.533,0.968,3.258,1.707,3.873c1.721,1.435,10.014,2.358,11.313,1.26c1.812-1.53,3.053-0.229,2.591,2.714
				c-0.407,2.59-0.306,2.776,2.624,4.835c3.645,2.554,8.733,3.917,10.678,2.855c0.728-0.396,1.518-1.521,1.759-2.502
				c0.392-1.598,0.688-1.742,2.805-1.392c3.069,0.508,3.339,0.856,1.908,2.468c-3.172,3.572,1.286,6.529,10.227,6.783
				c5.08,0.146,6.835,0.497,9.651,1.938c1.894,0.973,4.962,1.948,6.82,2.172c3.246,0.393,3.426,0.322,4.586-1.754
				c1.341-2.397,2.307-2.699,3.598-1.114c0.686,0.844,0.689,1.435,0.025,2.923c-0.768,1.712-0.668,2.008,1.201,3.608
				c5.015,4.288,8.039,6.21,9.78,6.222c1.62,0.011,2.094-0.498,3.521-3.787c1.016-2.339,2.248-4.05,3.211-4.448
				c11.021-4.597,14.962-6.644,16.528-8.586c2.58-3.198,7.897-12.317,11.494-19.708c3.667-7.54,5.679-9.76,8.845-9.76
				c2.36,0,4.357-1.477,4.357-3.225c0-0.58-0.458-2.656-1.016-4.617c-0.561-1.961-0.94-4.785-0.849-6.277
				c0.148-2.388-0.036-2.768-1.528-3.143C500.701,343.41,500.809,341.566,503.162,341.523"/>
		</g>
	</g>
</g>
<g>
	<text transform="matrix(1 0 0 1 148.698 38.4033)" fill="#FFFFFF" font-family="'Ubuntu-Bold'" font-size="12">Prince Hinoi</text>
	<text transform="matrix(1 0 0 1 36.8044 64.8486)" fill="#FFFFFF" font-family="'Ubuntu-Bold'" font-size="12">Fare tony</text>
	<text transform="matrix(1 0 0 1 4.0959 90.541)" fill="#FFFFFF" font-family="'Ubuntu-Bold'" font-size="12">Carrefour</text>
	<text transform="matrix(1 0 0 1 4.0959 104.9414)" fill="#FFFFFF" font-family="'Ubuntu-Bold'" font-size="12">Punauuia</text>
</g>
<g>
	<path id="Facebook_Places_1_" fill="#52B8E9" d="M121.548,70.285c-0.162-0.61-0.494-1.264-0.738-1.832
		c-2.934-7.047-9.339-9.571-14.511-9.571c-6.923,0-14.549,4.642-15.568,14.213v1.956c0,0.08,0.027,0.814,0.067,1.181
		c0.573,4.561,4.169,9.407,6.858,13.967c2.89,4.889,5.891,9.693,8.865,14.5c1.834-3.137,3.66-6.314,5.451-9.367
		c0.488-0.896,1.057-1.793,1.543-2.646c0.327-0.57,0.949-1.139,1.233-1.67c2.892-5.293,7.546-10.63,7.546-15.884v-2.158
		C122.294,72.404,121.589,70.409,121.548,70.285z M106.426,80.1c-2.037,0-4.263-1.018-5.363-3.826
		c-0.164-0.447-0.151-1.345-0.151-1.428v-1.262c0-3.582,3.042-5.212,5.689-5.212c3.259,0,5.779,2.605,5.779,5.864
		S109.683,80.1,106.426,80.1z"/>
</g>
<g>
	<path id="Facebook_Places_2_" fill="#FFFFFF" d="M93.092,95.261c-0.12-0.454-0.367-0.939-0.548-1.361
		c-2.179-5.235-6.937-7.11-10.779-7.11c-5.143,0-10.807,3.448-11.564,10.558v1.453c0,0.06,0.021,0.605,0.05,0.877
		c0.426,3.388,3.097,6.987,5.094,10.375c2.147,3.631,4.376,7.201,6.585,10.771c1.362-2.33,2.719-4.69,4.049-6.958
		c0.363-0.666,0.785-1.332,1.146-1.966c0.243-0.424,0.705-0.846,0.916-1.241c2.148-3.932,5.605-7.896,5.605-11.799v-1.604
		C93.646,96.835,93.122,95.353,93.092,95.261z M81.859,102.551c-1.513,0-3.167-0.756-3.983-2.842
		c-0.122-0.333-0.112-0.999-0.112-1.061v-0.938c0-2.661,2.26-3.872,4.226-3.872c2.42,0,4.293,1.936,4.293,4.356
		C86.282,100.616,84.279,102.551,81.859,102.551z"/>
</g>
<g>
	<path id="Facebook_Places_3_" fill="#FFFFFF" d="M147.185,55.335c-0.12-0.454-0.367-0.939-0.549-1.361
		c-2.179-5.235-6.937-7.11-10.779-7.11c-5.143,0-10.807,3.448-11.564,10.558v1.453c0,0.06,0.021,0.605,0.05,0.877
		c0.426,3.388,3.097,6.987,5.094,10.375c2.147,3.631,4.376,7.201,6.585,10.771c1.362-2.33,2.719-4.691,4.049-6.959
		c0.363-0.666,0.785-1.332,1.146-1.965c0.242-0.424,0.705-0.846,0.916-1.241c2.148-3.932,5.605-7.896,5.605-11.799v-1.604
		C147.74,56.91,147.217,55.428,147.185,55.335z M135.953,62.626c-1.513,0-3.167-0.756-3.983-2.842
		c-0.122-0.333-0.112-0.999-0.112-1.061v-0.938c0-2.661,2.26-3.872,4.226-3.872c2.42,0,4.293,1.936,4.293,4.356
		C140.377,60.691,138.373,62.626,135.953,62.626z"/>
</g>
<g>
	<path id="Facebook_Places_4_" fill="#FFFFFF" d="M117.68,78.244c-0.12-0.454-0.367-0.939-0.549-1.361
		c-2.179-5.235-6.937-7.11-10.779-7.11c-5.143,0-10.807,3.448-11.564,10.558v1.453c0,0.06,0.021,0.605,0.05,0.877
		c0.426,3.388,3.097,6.987,5.094,10.375c2.147,3.631,4.376,7.201,6.585,10.771c1.362-2.33,2.719-4.691,4.049-6.959
		c0.363-0.666,0.785-1.332,1.146-1.965c0.242-0.424,0.705-0.846,0.916-1.241c2.148-3.932,5.605-7.896,5.605-11.799V80.24
		C118.235,79.818,117.712,78.336,117.68,78.244z M106.448,85.534c-1.513,0-3.167-0.756-3.983-2.842
		c-0.122-0.333-0.112-0.999-0.112-1.061v-0.938c0-2.661,2.26-3.872,4.226-3.872c2.42,0,4.293,1.936,4.293,4.356
		C110.872,83.599,108.868,85.534,106.448,85.534z"/>
</g>
</svg>
