<?xml version="1.0" encoding="utf-8"?>
<!-- Generator: Adobe Illustrator 16.0.0, SVG Export Plug-In . SVG Version: 6.00 Build 0)  -->
<!DOCTYPE svg PUBLIC "-//W3C//DTD SVG 1.1//EN" "http://www.w3.org/Graphics/SVG/1.1/DTD/svg11.dtd">
<svg version="1.1" id="Capa_1" xmlns="http://www.w3.org/2000/svg" xmlns:xlink="http://www.w3.org/1999/xlink" x="0px" y="0px"
	 width="142.945px" height="233.5px" viewBox="184.528 86 142.945 233.5" enable-background="new 184.528 86 142.945 233.5"
	 xml:space="preserve">
<g>
	<path id="Facebook_Places" fill="#FFFFFF" d="M324.096,137.645c-0.739-2.768-2.238-5.718-3.349-8.3
		C307.47,97.436,278.459,86,255.034,86c-31.358,0-65.896,21.027-70.507,64.369v8.855c0,0.37,0.127,3.689,0.308,5.35
		c2.585,20.656,18.884,42.608,31.057,63.264c13.096,22.13,26.685,43.901,40.148,65.662c8.302-14.2,16.573-28.589,24.686-42.421
		c2.212-4.06,4.778-8.117,6.991-11.992c1.475-2.58,4.293-5.16,5.581-7.561c13.096-23.977,34.175-48.138,34.175-71.932v-9.775
		C327.473,147.238,324.276,138.201,324.096,137.645z M255.609,182.097c-9.218,0-19.308-4.609-24.288-17.338
		c-0.742-2.026-0.682-6.087-0.682-6.458v-5.718c0-16.227,13.778-23.606,25.765-23.606c14.757,0,26.169,11.806,26.169,26.563
		S270.365,182.097,255.609,182.097z"/>
</g>
<rect x="184.528" y="304.434" fill="#FFFFFF" width="142.945" height="12.445"/>
</svg>
