<?xml version="1.0" encoding="utf-8"?>
<!-- Generator: Adobe Illustrator 16.0.0, SVG Export Plug-In . SVG Version: 6.00 Build 0)  -->
<!DOCTYPE svg PUBLIC "-//W3C//DTD SVG 1.1//EN" "http://www.w3.org/Graphics/SVG/1.1/DTD/svg11.dtd">
<svg version="1.1" id="Calque_1" xmlns="http://www.w3.org/2000/svg" xmlns:xlink="http://www.w3.org/1999/xlink" x="0px" y="0px"
	 width="30px" height="52.5px" viewBox="0 0 30 52.5" enable-background="new 0 0 30 52.5" xml:space="preserve">
<g>
	<defs>
		<rect id="SVGID_1_" width="30" height="52.5"/>
	</defs>
	<clipPath id="SVGID_2_">
		<use xlink:href="#SVGID_1_"  overflow="visible"/>
	</clipPath>
	<path clip-path="url(#SVGID_2_)" fill="none" stroke="#FFFFFF" stroke-width="3" stroke-miterlimit="10" d="M23.166,51H6.834
		C3.9,51,1.5,48.6,1.5,45.666V6.834C1.5,3.9,3.9,1.5,6.834,1.5h16.332C26.1,1.5,28.5,3.9,28.5,6.834v38.832
		C28.5,48.6,26.1,51,23.166,51z"/>
	
		<line clip-path="url(#SVGID_2_)" fill="none" stroke="#FFFFFF" stroke-width="3" stroke-miterlimit="10" x1="1.333" y1="10" x2="28.666" y2="10"/>
	
		<line clip-path="url(#SVGID_2_)" fill="none" stroke="#FFFFFF" stroke-width="3" stroke-miterlimit="10" x1="1.667" y1="41.166" x2="28.334" y2="41.166"/>
	
		<line clip-path="url(#SVGID_2_)" fill="none" stroke="#FFFFFF" stroke-width="3" stroke-miterlimit="10" x1="12.25" y1="5.75" x2="17.75" y2="5.75"/>
	<path clip-path="url(#SVGID_2_)" fill="#FFFFFF" d="M12.149,45.916c0,1.575,1.276,2.852,2.851,2.852
		c1.574,0,2.852-1.276,2.852-2.852c0-1.573-1.277-2.851-2.852-2.851C13.425,43.065,12.149,44.343,12.149,45.916"/>
</g>
</svg>
