<?xml version="1.0" encoding="utf-8"?>
<!-- Generator: Adobe Illustrator 16.0.0, SVG Export Plug-In . SVG Version: 6.00 Build 0)  -->
<!DOCTYPE svg PUBLIC "-//W3C//DTD SVG 1.1//EN" "http://www.w3.org/Graphics/SVG/1.1/DTD/svg11.dtd">
<svg version="1.1" id="Capa_1" xmlns="http://www.w3.org/2000/svg" xmlns:xlink="http://www.w3.org/1999/xlink" x="0px" y="0px"
	 width="230.938px" height="459.544px" viewBox="111.031 0 230.938 459.544" enable-background="new 111.031 0 230.938 459.544"
	 xml:space="preserve">
<g>
	<path fill="#52B8E9" d="M312.291,0H140.708c-16.422,0-29.678,13.315-29.678,29.707v348.429c0,16.376,13.256,29.677,29.678,29.677
		h171.583c16.393,0,29.678-13.301,29.678-29.677V29.707C341.969,13.315,328.684,0,312.291,0z M184.161,18.041h84.707
		c2.14,0,3.878,3.195,3.878,7.148c0,3.953-1.738,7.163-3.878,7.163h-84.707c-2.155,0-3.864-3.21-3.864-7.163
		C180.297,21.236,182.006,18.041,184.161,18.041z M226.515,378.491c-10.447,0-18.947-8.5-18.947-18.962s8.5-18.933,18.947-18.933
		c10.417,0,18.918,8.471,18.918,18.933S236.932,378.491,226.515,378.491z M319.737,313.564H133.278V50.125h186.459V313.564
		L319.737,313.564z"/>
</g>
<rect x="111.031" y="440.505" fill="#52B8E9" width="230.938" height="19.039"/>
</svg>
