<svg xmlns="http://www.w3.org/2000/svg" xmlns:xlink="http://www.w3.org/1999/xlink" width="33.881" height="31.03" viewBox="0 0 33.881 31.03"><defs><path id="a" d="M0 0h33.881v31.031H0z"/></defs><clipPath id="b"><use xlink:href="#a" overflow="visible"/></clipPath><path clip-path="url(#b)" fill="#e9e8e8" d="M1.712 26.792c.867-.479 2.024-.054 2.777.42 1.23.769 2.164 1.912 3.7 2.055.369.034.747-.044 1.061-.25.399-.262.813-.488 1.191-.783 1.137-.889 1.943-2.108 2.555-3.401.24-.506.452-1.024.653-1.549.105-.274.207-.553.306-.83.065-.182.154-.733.3-.848.457-.36.667.447.581.746 0 0-1.831 6.54-5.741 7.748.044-.014.369.2.419.221a4.62 4.62 0 0 0 1.116.302c1.259.185 2.573-.099 3.549-.942.963-.833 1.575-1.987 2.147-3.103a36.49 36.49 0 0 0 1.49-3.256c.228-.578.463-1.175.593-1.785.05-.238.36-.587.608-.617.435-.056.299.573.235.828 0 0-2.422 8.072-5.306 9.197 1.932.191 3.941.058 5.836-.347 1.598-.341 2.406-1.624 2.76-3.124 0 0 .844-3.587-.041-7.23 0 0-.098-.999.731-1.041 0 0 .689-.043.984 1.618 0 0 1.18 6.709-1.437 9.198 0 0 4.571-.42 8.904-5.426 0 0 4.825-6.624.171-10.325 0 0-2.095-1.576-6.356.196 0 0-.423.14-.563-.282-.14-.421-.074-.152-.074-.152S1.728 26.782 1.712 26.792"/><defs><path id="c" d="M25.499 14.463s-.423.139-.564-.282c-.139-.421-.072-.151-.072-.151S1.728 26.782 1.712 26.792c.867-.478 2.024-.053 2.777.419 1.23.771 2.165 1.913 3.699 2.056.369.033.747-.044 1.062-.25.399-.263.813-.487 1.192-.782 1.137-.89 1.942-2.109 2.554-3.401.24-.506.453-1.025.652-1.549.106-.276.207-.553.307-.831.064-.181.154-.733.3-.849.457-.359.667.448.581.746 0 0-1.831 6.541-5.742 7.748.045-.014.37.2.42.223.355.148.734.245 1.116.301 1.259.185 2.573-.099 3.549-.942.963-.833 1.575-1.986 2.147-3.102a36.467 36.467 0 0 0 1.49-3.256c.227-.578.462-1.176.593-1.786.049-.239.359-.587.607-.617.435-.055.301.574.235.828 0 0-2.422 8.073-5.306 9.198 1.932.19 3.941.056 5.836-.348 1.598-.342 2.407-1.624 2.76-3.124 0 0 .844-3.587-.041-7.229 0 0-.097-1 .732-1.042 0 0 .688-.043.983 1.618 0 0 1.18 6.71-1.437 9.198 0 0 4.571-.42 8.903-5.427 0 0 4.825-6.623.172-10.325 0 0-.858-.646-2.594-.646-.973 0-2.226.204-3.76.842"/></defs><clipPath id="d"><use xlink:href="#c" overflow="visible"/></clipPath><path clip-path="url(#d)" fill="#e9e8e8" d="M1.712 26.792c.867-.479 2.024-.054 2.777.42 1.23.769 2.164 1.912 3.7 2.055.369.034.747-.044 1.061-.25.399-.262.813-.488 1.191-.783 1.137-.889 1.943-2.108 2.555-3.401.24-.506.452-1.024.653-1.549.105-.274.207-.553.306-.83.065-.182.154-.733.3-.848.457-.36.667.447.581.746 0 0-1.831 6.54-5.741 7.748.044-.014.369.2.419.221a4.62 4.62 0 0 0 1.116.302c1.259.185 2.573-.099 3.549-.942.963-.833 1.575-1.987 2.147-3.103a36.49 36.49 0 0 0 1.49-3.256c.228-.578.463-1.175.593-1.785.05-.238.36-.587.608-.617.435-.056.299.573.235.828 0 0-2.422 8.072-5.306 9.197 1.932.191 3.941.058 5.836-.347 1.598-.341 2.406-1.624 2.76-3.124 0 0 .844-3.587-.041-7.23 0 0-.098-.999.731-1.041 0 0 .689-.043.984 1.618 0 0 1.18 6.709-1.437 9.198 0 0 4.571-.42 8.904-5.426 0 0 4.825-6.624.171-10.325 0 0-2.095-1.576-6.356.196 0 0-.423.14-.563-.282-.14-.421-.074-.152-.074-.152S1.728 26.782 1.712 26.792"/><path clip-path="url(#d)" fill="#e9e8e8" d="M9.514 30.32c-.05-.021-.375-.234-.419-.222 1.841-.569 3.22-2.319 4.165-4.012.075-.027.116.033.099.242.263-.563.481-1.146.722-1.717.1-.233.225-.442.328-.675.109-.25.167-.536.378-.727.203.119-.034.412.019.589.127-.063.376-.979.471-.481.108.566-.553 1.134-.451 1.66.364-.208.447-1.206.816-1.219.153.427-.239.686-.161 1.102.206-.084.366-.512.468-.701.298.183-.472 1.302-.586 1.528-.33.661-.595 1.317-1.013 1.926-.253.365-.839 1.044-.664 1.533.294-.079.508-.433.669-.667.213-.311.401-.642.643-.932.061-.073.195-.264.304-.249.175.021-.006.309-.028.391.204-.033.355-.322.435-.484.124-.253.205-.526.337-.775.148-.274.437-.973.712-1.083.091-.034.149-.041.186-.027-.201.422-.406.843-.618 1.258-.572 1.114-1.184 2.268-2.147 3.101-.976.845-2.29 1.127-3.549.944a4.668 4.668 0 0 1-1.116-.303m20.232-4.38c.107.062.173.234.26.366-3.757 3.392-7.226 3.711-7.226 3.711 2.271-2.16 1.683-7.497 1.487-8.869 1.219 1.47 1.193 3.788 1.225 5.591.014.791.02 1.647-.086 2.405.441.097.843-2.034 1.019-2.292.179.11-.141 1.326-.219 1.523.276-.566.471-1.108.688-1.694.146-.396.278-1.168.619-1.428.602.344-.386 1.533.348 1.692.296-.26.275-.716.431-1.038.286.091.193.385.479.487.134-.371.596-.671.975-.454"/><path clip-path="url(#d)" fill="#e9e8e8" d="M4.489 27.211a62.412 62.412 0 0 0-.157-.095 5.17 5.17 0 0 0 .293-.181c.362-.248.955-.937 1.407-.942.49-.007.186.349.158.657.325-.051.487-.416.812-.487.042.13.106.274.105.421.582-.053.817-1.16 1.443-1.111-.091.501-.511 1.395-.16 1.811.641.76.883-.631 1.299-.607-.042.12.003.217-.043.334-.029.07.249.017.264.014.148-.051.262-.211.368-.315.241-.23.422-.503.572-.806.081-.161.15-.358.254-.505.28-.396.159.145.175.352.086-.099.348-.904.512-.831.139.064-.167.669.134.581.109-.03.128-.277.245-.336.136.192-.04.575-.103.765-.048.144-.106.284-.154.429-.031.09-.03.368-.068.419a7.632 7.632 0 0 1-1.404 1.458c-.379.295-.793.521-1.191.783a1.66 1.66 0 0 1-1.062.25c-1.535-.145-2.47-1.288-3.699-2.058m15.23-1.689c-.563 1.234-1.145 2.384-1.508 3.669-.114.408-.327 1.093-.18 1.5.259-.095 1.066-1.08 1.048-.33.84-.704 1.115-2.282 1.339-3.282.179-.803.459-1.585.58-2.401.071-.478.029-1.03.275-1.465.177.114.402.542.357.747.208-.209.307-.486.414-.751.342.318.08.914.166 1.317.008.034.172.396.186.372.38-.667.199-1.03.247-1.723.021-.302.097-.642.185-.966.277 2.866-.286 5.263-.286 5.263-.354 1.5-1.162 2.783-2.76 3.124a19.285 19.285 0 0 1-5.835.349c1.341-.524 2.582-2.548 3.525-4.566.104-.223.328-.422.443-.658.135-.274.242-.563.37-.841.255-.547.56-1.072.776-1.639.131-.347.165-.716.258-1.076.07-.273.097-.737.247-.968.271.062.027 1.339.11 1.604.194-.185.089-.513.217-.729.149.073.132.359.144.511.014.193.119.528.235.154.225.11.111.677.087.875-.085.685-.352 1.28-.64 1.91m14.153-7.351c-.342-1.086-1.029-2.818-1.762-2.744.057.266.288.567.101.821-.42-.193-.521-.884-.943-1.142-.057.327.446.58.204.932-.378-.283-.627-.777-.97-1.124-.4-.404-.932-.647-1.465-.824-.419-.138-.834-.228-1.284-.215-.335.01-.755.129-1.16.19 3.526-1.103 5.263.202 5.263.202 1.41 1.122 1.949 2.512 2.016 3.904m-5.441-1.857c.629-.04 1.354.538 1.825.902.601.466 1.146.998 1.653 1.564.218.243.521.826.882.831-.078-.178-.148-.392-.111-.582.313.227.541 1.097.979 1.25-.56 2.369-1.975 4.313-1.975 4.313-.106.122-.214.241-.319.359a1.095 1.095 0 0 1-.01-.312c.05-.572.684-2.769.101-3.056-.066.21-.029.447-.178.638-.452-1.373-.681-2.584-1.479-3.925-.337-.567-1.292-1.356-1.368-1.982M6.533 25.248a1.283 1.283 0 0 0-.156-.316.993.993 0 0 1 .156.316m-.156-.316c-.01-.015-.021-.028-.031-.04 0 0 .012.013.031.04"/><path clip-path="url(#d)" fill="#e9e8e8" d="M3.992 26.382c.243.135.457.331.633.554 0 0 .096.359.264.076 0 0 .191-.223.223-.918-.008.153.067.339.074.5.007.196-.139.74.073.876.273.173.522-.658.57-.807.079-.236.13-.486.154-.734.023-.218.07-.652-.049-.849 0 .001.433.718-.105 2.373-.079.242.017.633.358.508.282-.103.331-.952.368-1.216.068-.467.144-1.041-.022-1.497.136.374.283 1.092.203 2.396-.015.222-.091.684.237.718.535.055.344-.886.362-1.171.038-.597.087-1.194.105-1.791.008-.29.058-.657-.008-.942.085.353.136.712.181 1.07.085.658.185 1.384.071 2.042-.029.171-.097.338-.108.513-.007.103.011.399.112.461.605.372 1.081-3.011 1.098-3.269.017-.261.018-.523.01-.785-.009-.243.018-.57-.055-.801.114.357.152.731.203 1.104.054.394.047.769.011 1.161-.041.458-.06.914-.232 1.348-.107.27-.657 1.129-.352 1.401.118.105.368-.092.438-.18.229-.29.344-.809.467-1.156.294-.831.502-1.703.589-2.579.048-.479.128-1.139-.026-1.604.345 1.039.233 2.298-.013 3.338-.065.276-.139.552-.208.829-.035.143-.236.627-.178.758.134.298.454-.144.536-.261.215-.311.345-.671.492-1.018a8.331 8.331 0 0 0 .56-1.885c.063-.364.091-.736.091-1.105.001-.481-.049-.962-.1-1.439.094.285.112.602.141.898.075.747.068 1.487-.091 2.226-.077.353-.163.705-.274 1.049-.034.105-.632 1.15-.298 1.165.323.015.475-.352.607-.584.491-.868.919-1.708 1.139-2.69.062-.273.107-.552.139-.831.064-.599.097-1.353-.118-1.927.281.748.386 1.579.323 2.373-.014.167-.033.333-.055.5-.011.087-.178.594.049.56.147-.023.227-.353.285-.468l.266-.535c.214-.438.424-.875.625-1.318.091-.204.217-.423.272-.64a4.384 4.384 0 0 1-.074.275c-.1.278-.201.555-.307.83-.2.524-.412 1.043-.652 1.549-.612 1.293-1.418 2.513-2.555 3.402-.379.294-.793.52-1.191.782a1.665 1.665 0 0 1-1.062.25c-1.535-.143-2.469-1.285-3.699-2.056-.753-.473-1.91-.896-2.777-.419.001-.001.173-.097.482-.266.309-.149.638-.277.98-.315.297-.033.573.036.818.171"/><path clip-path="url(#d)" fill="#e9e8e8" d="M14.197 24.136c-.658 1.595-1.319 3.136-2.396 4.506-.152.192-.306.39-.476.565-.118.125-.321.268-.347.452-.029.228.57-.174.587-.188.2-.171.403-.34.591-.523a8.356 8.356 0 0 0 1.479-1.975 7.94 7.94 0 0 0 .665-1.653c-.021.071-.002.164-.006.237-.014.24-.074.475-.141.706a6.366 6.366 0 0 1-1.269 2.323c-.213.255-.437.502-.662.746l-.316.343c-.09.099-.287.192-.288.339 0 .059.465-.12.502-.142.238-.139.411-.361.6-.558.583-.606 1.074-1.354 1.472-2.089.305-.564.565-1.146.769-1.752-.105.309-.178.637-.281.949a9.054 9.054 0 0 1-.978 2.04c-.12.19-.242.377-.365.564-.082.126-.315.364-.333.509-.036.275.443-.165.467-.187.168-.156.333-.311.493-.478a8.64 8.64 0 0 0 1.272-1.679c.218-.383.44-.811.54-1.242-.131.32-.188.673-.316.997-.27.681-.579 1.348-1.044 1.919-.124.154-.256.3-.389.446-.038.042-.3.271-.291.323.02.113.51-.235.547-.279.143-.17.295-.334.441-.502.494-.565.921-1.206 1.31-1.847.296-.485.572-.985.819-1.5-.172.358-.347.716-.527 1.068-.398.774-.817 1.563-1.355 2.253L13.85 29.93c-.93.645-2.097.853-3.22.689a4.592 4.592 0 0 1-1.117-.301c-.049-.022-.375-.236-.419-.222 2.589-.797 4.264-3.932 5.103-5.96m3.098.395l-.035.104a49.42 49.42 0 0 1-.265.578c.102-.221.202-.446.3-.682m1.202 4.489s-.327.97.147.549c0 0 1.192-1.436 1.583-3.693 0 0-.391 2.521-1.467 4.251 0 0-.422.687.253.179.151-.112.236-.171.279-.194.38-.505 1.188-1.85 1.789-4.73 0 0-.433 3.08-1.171 4.399 0 0-.201.61.348.042 0 0 1.002-1.16 1.277-3.713 0 0-.17 2.394-.581 3.218 0 0-.296.8.284.062 0 0 .687-.737.94-2.034 0 0-.1 1.171-.743 2.333a3.14 3.14 0 0 1-1.654.91 19.29 19.29 0 0 1-5.836.349c1.329-.52 2.56-2.512 3.5-4.51-.345 1.006-1.004 2.734-1.713 3.574 0 0-.507.59.106.21 0 0 1.308-.821 2.691-4.957 0 0-.56 2.542-1.7 4.451 0 0-.2.612.222.139 0 0 .622-.877 1.361-2.827 0 0-.464 1.931-1.172 2.974 0 0-.084.539.338.116 0 0 .749-1.286 1.267-3.217.001-.003-.041 1.347-.348 2.119m15.384-10.534a4.469 4.469 0 0 1-.039.182l.006-.829c.022.215.033.432.033.647"/><path clip-path="url(#d)" fill="#e9e8e8" d="M31.685 24.592c-4.333 5.007-8.904 5.427-8.904 5.427 2.449-2.329 1.571-8.358 1.45-9.118.341 1.203.938 3.866.533 6.7 0 0-.437 1.294.436.533 0 0 1.702-2.138.228-7.903 0 0 1.63 3.207.532 7.089 0 0-.099 1.392.759.239 0 0 1.929-4.276.003-7.947 0 0 1.954 3.544.982 6.892 0 0 .085.605.661.226 0 0 .45-.197.466-.929 0 0 .295-2.419-1.448-6.033 0 0 1.363 1.913 1.995 5.289 0 0 .169.435.479.099 0 0 .422-.211.295-.662 0 0-.533-3.572-2.698-5.711 0 0 2.109 1.266 3.205 5.613 0 0 .437.465.675-.506 0 0 .24-3.08-3.106-6.232 0 0 1.871.971 3.347 5.05 0 0 .618.661.646-.591 0 0-.097-2.896-3.865-5.275 0 0 2.812 1.056 4.063 4.39 0 0 .52.577.464-.438 0 0-.8-2.826-2.488-3.882 0 0 1.701.817 2.572 2.87 0 0 .268.31.437-.168 0 0 .289-.344.44-.946l-.005.58c-.309 2.809-2.154 5.344-2.154 5.344"/><path clip-path="url(#d)" fill="#e9e8e8" d="M23.237 14.853s3.333 2.405 4.208 6.984c0 0-1.434-5.148-4.693-6.542l.485-.442zm-2.648 1.269s1.435 4.164-.902 10.661c0 0 1.984-6.265.593-10.243l.309-.418zm-3.998 2.461s.368 3.528-1.546 7.144c0 0 2.168-3.488 1.845-7.201l-.31-.085"/><defs><path id="e" d="M0 0h33.881v31.031H0z"/></defs><clipPath id="f"><use xlink:href="#e" overflow="visible"/></clipPath><path clip-path="url(#f)" fill="#e9e8e8" d="M1.715 26.794c.977-.54-.258-2.729-.544-3.382-.425-.967-1.174-3.143.067-3.68 1.051-.454 2.229-.696 3.357-.852 1.165-.16 2.366-.209 3.536-.086.319.034 1.166.29 1.444.036.765-.694-1.732-1.172-2.007-1.207 0 0-5.57-.534-7.568 1.771 1.444-1.667-.216-5.842 2.815-6.048 0 0 3.713-.252 7.482 1.352 0 0 2.278.93 2.645.902 0 0 .814.337.9-.394.137-1.18-3.339-2.072-4.176-2.357-1.82-.621-3.721-1.215-5.655-1.3-.588-.026-2.015-.084-2.434.474.001 0 .845-1.125 1.492-1.997.385-.392.762-.833 1.036-1.311.513-.895.777-1.511 1.947-1.415 3.216.268 6.379 1.982 8.97 3.86.443.321 1.205 1.311 1.878.794.643-.492-.252-1.304-.653-1.612-1.594-1.226-3.624-1.989-5.483-2.696-.692-.263-1.376-.534-2.078-.763-.396-.131-2.553-.928-2.916-.568.001-.001 3.659-3.656 6.359-3.571 2.175.069 3.777 1.443 5.263 3.013.764.808 1.438 1.69 2.142 2.55.358.438 1.369 2.013 2.072 1.782 1.989-.652-4.021-6.75-4.584-7.193-.427-.337-2.395-1.86-2.979-1.585.002-.001 6.894-3.233 13.277.453.226.131.438.315.643.476.51.404.983.855 1.39 1.363a7.45 7.45 0 0 1 1.175 2.052c.305.826.418 1.708.154 2.561-.358 1.161-.979 2.114-1.891 2.873-.633.527-1.138.737-1.689 1.03-.364.195-.729.42-1.106.587 0 0-1.859.819-1.129 1.325L1.715 26.794"/><defs><path id="g" d="M1.577 12.025l.002-.002a.002.002 0 0 0-.002.002M20.405 0c-3.606.026-6.336 1.298-6.363 1.311.585-.274 2.553 1.248 2.98 1.585.562.443 6.571 6.54 4.583 7.193-.703.231-1.714-1.344-2.071-1.782-.704-.86-1.378-1.742-2.143-2.55-1.484-1.57-3.087-2.945-5.263-3.013-2.7-.085-6.357 3.571-6.358 3.572.363-.362 2.52.437 2.916.567.702.23 1.386.5 2.078.762 1.859.708 3.889 1.472 5.483 2.697.4.308 1.296 1.12.652 1.612-.672.517-1.434-.472-1.877-.793-2.591-1.879-5.755-3.592-8.97-3.861-1.17-.097-1.434.521-1.947 1.416-.274.478-.651.919-1.037 1.312-.63.85-1.448 1.94-1.489 1.995.421-.557 1.844-.499 2.431-.473 1.935.085 3.835.679 5.656 1.3.837.285 4.313 1.177 4.176 2.357-.086.731-.901.393-.901.393-.366.029-2.644-.901-2.644-.901-3.768-1.604-7.483-1.352-7.483-1.352-3.03.206-1.369 4.381-2.814 6.048 1.998-2.307 7.567-1.771 7.567-1.771.276.036 2.773.513 2.008 1.207-.278.253-1.125-.001-1.444-.037-1.17-.123-2.371-.073-3.537.086-1.127.157-2.305.399-3.356.853-1.241.537-.492 2.714-.067 3.68.286.654 1.52 2.841.543 3.381l23.151-12.761c-.731-.506 1.129-1.326 1.129-1.326.378-.166.741-.392 1.106-.587.552-.292 1.057-.503 1.689-1.03.912-.759 1.532-1.712 1.891-2.873.264-.852.15-1.735-.155-2.561a7.43 7.43 0 0 0-1.174-2.053 8.646 8.646 0 0 0-1.39-1.361c-.204-.161-.418-.347-.642-.477C25.043.449 22.702.015 20.632 0h-.227z"/></defs><clipPath id="h"><use xlink:href="#g" overflow="visible"/></clipPath><path clip-path="url(#h)" fill="#e9e8e8" d="M1.715 26.794c.977-.54-.258-2.729-.544-3.382-.425-.967-1.174-3.143.067-3.68 1.051-.454 2.229-.696 3.357-.852 1.165-.16 2.366-.209 3.536-.086.319.034 1.166.29 1.444.036.765-.694-1.732-1.172-2.007-1.207 0 0-5.57-.534-7.568 1.771 1.444-1.667-.216-5.842 2.815-6.048 0 0 3.713-.252 7.482 1.352 0 0 2.278.93 2.645.902 0 0 .814.337.9-.394.137-1.18-3.339-2.072-4.176-2.357-1.82-.621-3.721-1.215-5.655-1.3-.588-.026-2.015-.084-2.434.474.001 0 .845-1.125 1.492-1.997.385-.392.762-.833 1.036-1.311.513-.895.777-1.511 1.947-1.415 3.216.268 6.379 1.982 8.97 3.86.443.321 1.205 1.311 1.878.794.643-.492-.252-1.304-.653-1.612-1.594-1.226-3.624-1.989-5.483-2.696-.692-.263-1.376-.534-2.078-.763-.396-.131-2.553-.928-2.916-.568.001-.001 3.659-3.656 6.359-3.571 2.175.069 3.777 1.443 5.263 3.013.764.808 1.438 1.69 2.142 2.55.358.438 1.369 2.013 2.072 1.782 1.989-.652-4.021-6.75-4.584-7.193-.427-.337-2.395-1.86-2.979-1.585.002-.001 6.894-3.233 13.277.453.226.131.438.315.643.476.51.404.983.855 1.39 1.363a7.45 7.45 0 0 1 1.175 2.052c.305.826.418 1.708.154 2.561-.358 1.161-.979 2.114-1.891 2.873-.633.527-1.138.737-1.689 1.03-.364.195-.729.42-1.106.587 0 0-1.859.819-1.129 1.325L1.715 26.794"/><path clip-path="url(#h)" fill="#e9e8e8" d="M22.555 15.287l-2.271 1.255c-.677-.189-1.643-.896-2.157-1.16-.897-.46-1.71-1.039-2.577-1.571-1.242-.759-2.633-1.394-3.973-1.991-.74-.33-2.991-1.735-3.744-1.18.118.081.187.247.316.324-.18.18-.555-.023-.663.217-.187.413 1.354.884 1.095 1.309-1.485-.474-3.017-.871-4.57-.939-.588-.026-2.015-.084-2.434.474.001 0 .845-1.125 1.492-1.997l.066-.07c.261-.137.543-.222.856-.26.629-.076 1.25.066 1.858.213.306.073.61.151.921.198.183.029.654.157.809.048-.01.009-.969-.626-1.067-.673.349.024.859.201 1.217.076-1.011-.585-2.473-.623-3.372-1.284.381-.648.729-1.056 1.695-.976 3.216.268 6.379 1.982 8.97 3.86.393.285 1.039 1.096 1.65.911.865.591 1.729 1.177 2.716 1.62.589.264 1.194.569 1.81.766.38.124 1.08.438 1.357.83"/><path clip-path="url(#h)" fill="#e9e8e8" d="M24.819 14.037l-.574.316a24.643 24.643 0 0 1-3.979-2.738c-.953-.812-2.07-1.512-3.057-2.265-.578-.44-5.416-4.663-5.688-3.542.227.084.364.256.375.481-.301-.008-.541-.172-.818-.059.117.267.427.395.614.603-.343.213-.627-.172-.933-.074.075.226-.136.191.837.851.117.079-.301.15-.684.093-.049-.02-.099-.038-.149-.057-.691-.262-1.376-.533-2.078-.762-.394-.132-2.553-.929-2.915-.569 0 0 .402-.399 1.032-.929.674.015 1.398.13 1.82-.037-.084-.042-.16-.124-.222-.16.504-.599 1.32.067 1.888-.186-.148-.073-.205-.193-.343-.27.33-.121.702-.047 1.009.169-.377-.582-1.435-.677-1.863-1.16.995-.584 2.077-1.028 3.038-.998 2.174.068 3.777 1.442 5.262 3.013.764.808 1.438 1.69 2.142 2.55.315.386 1.137 1.653 1.809 1.791.336.399.67.798.999 1.202.467.574 1.972 1.848 2.478 2.737m-9.79 4.733c-.264-.115-.525-.231-.788-.348a74.678 74.678 0 0 0-1.427-.613c-1.216-.505-2.452-1.005-3.711-1.396-.356-.112-.713-.229-1.07-.332-.293-.085-1.015-.351-1.286-.246-.438.17.425.426.472.706-.302.04-.466-.039-.776.028-.196.043-.227.311-.296.309.943.156 1.111.346 1.111.346l-1.042.348c-1.778-.005-4.841.237-6.216 1.824.434-.501.588-1.23.672-2.01 1.365-.527 4.434-1.345 4.434-1.345-.864-.274-1.561-.147-1.561-.147.731-.18 1.002-.218 1.101-.222-2.094-.387-3.216-.308-3.792-.169.169-1.135.573-2.061 1.96-2.156 0 0 3.714-.252 7.483 1.353 0 0 2.267.924 2.641.9 2.208 1.061 3.772 2.164 4.359 2.604-.53.292-1.07.59-1.621.892-.217-.086-.556-.285-.647-.326m1.644-17.409c3.712 2.068 4.429 4.537 4.429 4.537-1.645-2.827-4.092-3.841-4.092-3.841 3.521 2.867 4.222 4.929 4.34 5.852-1.269-2.022-3.96-4.723-4.328-5.013-.427-.337-2.395-1.859-2.979-1.585C14.044 1.31 16.61.11 20.057.008l.352.003c-2.049.084-3.736 1.35-3.736 1.35m12.973 3.59c.295.569.041.971.041.971-.041-.971-.59-.929-.59-.929-.127.465-.169.549-.169.549.169-.549-.211-.949-.211-.949.127.484-.379.864-.379.864a.984.984 0 0 0-.105-1.055c.042.654-.443.78-.443.78.401-1.329-.442-1.856-.442-1.856.779 1.182-.444 2.68-.444 2.68 1.009-2.722-1.61-4.851-2.487-5.471.962.275 1.938.672 2.903 1.229.226.131.438.316.643.477.51.403.983.855 1.39 1.362a7.44 7.44 0 0 1 1.174 2.053c.196.529.312 1.084.3 1.639-.011.052-.02.083-.02.083-.107-1.795-1.161-2.427-1.161-2.427"/><path clip-path="url(#h)" fill="#e9e8e8" d="M.628 21.724c-.158-.846-.099-1.685.61-1.99.774-.334 1.994-.731 2.834-.886 6.271-.836 8.513 1.165 9.077 1.644l-3.026 1.668c-4.959-1.385-8.976-.555-9.495-.436m1.446 4.13a20.304 20.304 0 0 1 1.807-.509c-.303-.083-1.237.104-1.847.244-.011-.052-.022-.104-.035-.158.938-.425 2.178-.57 2.178-.57l.949-.107c-.768-.177-2.265.124-3.22.359a7.74 7.74 0 0 0-.14-.386c1.574-.612 4.035-.689 4.035-.689-1.119-.52-3.222.121-4.135.444-.062-.144-.123-.28-.184-.409 1.273-.569 4.278-.9 4.278-.9-1.642-.448-3.687.172-4.488.458a7.307 7.307 0 0 1-.101-.218l-.075-.173c3.453-1.283 7.209-.381 7.583-.285l-6.964 3.838c.317-.174.4-.524.359-.939m17.861-9.223s-.361-.299-1.344-.978a55.331 55.331 0 0 0-5.14-3.15l-.095-.05a5.756 5.756 0 0 0-.265-.13c-.225-.105-.536-.253-.88-.416l-.532-.252c-.183-.081-.372-.152-.555-.227l-.969-.398s.453.229 1.193.585c.189.084.386.194.598.313l.681.372c.487.252 1.006.563 1.562.878l.232.124c.147.079.361.189.612.335.502.291 1.187.664 1.87 1.081 1.376.811 2.787 1.724 3.032 1.913m-3.836 2.654s-.291-.184-1.07-.572a44.385 44.385 0 0 0-4.028-1.758s-.105-.038-.279-.092l-.675-.218-.406-.132a78.257 78.257 0 0 0-.421-.121l-.732-.215s.342.142.902.357l2.187.897s.262.092.657.244c.393.154.926.352 1.466.574 1.082.433 2.201.923 2.399 1.036m6.554-15.067s.052.034.146.107a4.846 4.846 0 0 1 1.016 1.122c.22.329.452.746.624 1.273.174.524.307 1.153.323 1.88.016.727-.123 1.53-.235 2.446l-.089.703-.057.744c-.018.255-.043.516-.055.785l-.031.824-.003.181c-.002.011.002.032-.005.031l-.037-.029-.18-.126-.738-.519c-.502-.357-1.026-.729-1.575-1.117l-.61-.423-1.468-1.028c-1.138-.814-2.487-1.79-3.285-2.473l.49.43c.311.285.795.659 1.386 1.138 1.195.938 2.887 2.208 4.816 3.582l.4.277.462.317.38.261.149.102c.035.038.024-.013.026-.042l-.001-.093c.001-.111.002-.224.001-.339a34.57 34.57 0 0 1 .28-3.971c.087-.738.153-1.502.054-2.225a5.997 5.997 0 0 0-.584-1.948 5.311 5.311 0 0 0-.92-1.293 4.246 4.246 0 0 0-.68-.577"/><defs><path id="i" d="M0 0h33.881v31.031H0z"/></defs><clipPath id="j"><use xlink:href="#i" overflow="visible"/></clipPath><path clip-path="url(#j)" fill="#e9e8e8" d="M1.736 26.777S22.26 15.006 23.085 14.599c0 0 1.569-1.122 1.88-.756 0 0 .406.38-.662.83 0 .001-21.808 11.851-22.567 12.104"/></svg>