<svg xmlns="http://www.w3.org/2000/svg" xmlns:xlink="http://www.w3.org/1999/xlink" width="30.295" height="34.553" viewBox="0 0 30.295 34.553"><defs><path id="a" d="M0 0h30.295v34.553H0z"/></defs><clipPath id="b"><use xlink:href="#a" overflow="visible"/></clipPath><path clip-path="url(#b)" fill="#e9e8e8" d="M23.142 1.624c-.026-.363-.377-.475-.292-.83.049-.199.304-.567.081-.739-.309-.238-.475.364-.537.553-.237.705-1.273.65-1.896.677-.941.042-1.887.008-2.828-.041a67.236 67.236 0 0 1-3.108-.233C13.214.877 11.876.67 10.526.565 9.852.513 9.173.467 8.497.485c-.117.003-.23.012-.345.021-.481-.062-.464.154-.464.154-.057.099 1.394.363 1.483.377.777.126 1.562.244 2.345.327.503.054 1.004.175 1.505.251.423.064.849.117 1.276.153.79.065 1.583.07 2.375.082.803.013 1.606.021 2.41.002.613-.015 1.226-.044 1.839-.065.271-.01.543-.008.813-.035l.031-.003-.271.685c-.129.098-.378.099-.53.118-.353.044-.709.071-1.064.094-.894.059-1.788.092-2.684.124-.552.019-1.105.052-1.656.045-.348-.004-.705-.087-1.053-.114a9.46 9.46 0 0 0-.876-.027 40.61 40.61 0 0 0-3.652.237c-.476.049-.95.096-1.423.156-.204.027-.408.06-.612.083a.169.169 0 0 1-.025.002c-.936.076-.953.461-.953.461.014.168 4.28-.098 4.28-.098 2.775.106 10.057-.522 10.057-.522l-.513 1.106c-.084.103-.389.113-.506.135-.371.07-.745.121-1.116.173a87.26 87.26 0 0 1-2.741.342c-1.346.143-2.704.166-4.053.225a43.654 43.654 0 0 0-3.152.259c-.193.023-.388.036-.58.059-2.678.333-2.876.912-2.876.912.002-.003.178.012.197.011.202-.011.404-.03.605-.05.549-.053 1.097-.11 1.645-.174.3-.034.591-.084.895-.089.333-.004.667.016 1 .003.434-.017.869-.055 1.304-.091.922-.072 1.842-.184 2.763-.286.96-.105 1.918-.234 2.877-.355.772-.098 1.544-.203 2.316-.31.356-.049.717-.09 1.072-.15l.021-.004-.42 1.102c-.103.089-.36.084-.485.102-.354.051-.71.09-1.066.129-.914.1-1.829.184-2.745.265-.511.045-1.021.099-1.534.131-.328.022-.678-.036-1.009-.044a15.335 15.335 0 0 0-1.006.005c-.66.027-1.317.103-1.97.201-.615.091-1.226.197-1.835.314-.463.09-.925.188-1.383.297-.189.045-.378.093-.564.14a.266.266 0 0 0-.033.008c-.7.208-.429.426-.429.426-.05.255 3.774-.355 3.774-.355 2.795-.139 10.038-1.132 10.038-1.132l-.35.902c-.126.135-.447.159-.612.189a19.05 19.05 0 0 1-1.256.175c-1.047.121-2.096.196-3.146.275-.851.063-1.706.083-2.559.134-.69.041-1.364.149-2.032.325-.686.181-1.363.405-2.03.649-.518.19-1.028.4-1.533.624-.224.1-.448.199-.667.308l-.026.013c-2.534 1.07-2.423 1.283-2.423 1.283-.08.172 3.097-1.04 3.097-1.04.634-.326 1.353-.514 2.037-.701a55.845 55.845 0 0 1 2.348-.581c.717-.162 1.489-.214 2.223-.237.666-.022 1.327-.043 1.99-.123.672-.081 1.341-.187 2.012-.281a33.631 33.631 0 0 0 1.548-.241c.229-.042.455-.1.685-.128l.024-.004-.368.847c-.076.113-.346.152-.46.18-.337.087-.68.151-1.021.215a67.56 67.56 0 0 1-2.649.423c-.464.068-.925.159-1.392.216-.449.055-.889.032-1.34.043-.298.007-.595.02-.892.045-.565.046-1.124.139-1.674.272-.899.216-1.785.507-2.654.818-.168.06-.329.128-.492.198-2.276 1.166-3.272 2.463-3.272 2.463-.307.414.005.187.005.187.563-.582 1.196-1.133 1.899-1.542a6.412 6.412 0 0 1 2.449-.824c.784-.102 1.557-.276 2.334-.414l1.959-.348.388-.068c2.112-.363 6.529-1.254 6.529-1.254l-.327 1.005c-.038.084-.178.132-.254.166a5.014 5.014 0 0 1-.519.191c-.348.114-.696.236-1.055.319-.367.085-.742.089-1.113.156-.24.042-.472.119-.709.173-.294.066-.589.133-.882.205-.59.14-1.178.293-1.762.461a27.162 27.162 0 0 0-3.412 1.231c-.993.438-1.959.938-2.886 1.504-.609.372-1.22.768-1.764 1.233-.057.05-.499.402-.288.436.111.018.292-.094.387-.137.231-.103.456-.219.682-.338.678-.353 1.352-.721 2.037-1.068a37.778 37.778 0 0 1 2.698-1.239 40.87 40.87 0 0 1 3.227-1.155 90.551 90.551 0 0 1 3.61-1.035c.397-.106.796-.212 1.194-.316.111-.029.225-.062.339-.084.011-.002.098-.008.105-.016-.056.068-.396.905-.396.905-.094.132-.334.209-.474.265-.316.13-.643.243-.968.352-.793.264-1.598.491-2.402.723-.739.214-1.493.372-2.239.563-.62.159-1.219.39-1.813.626-.62.246-1.234.509-1.84.787a56.505 56.505 0 0 0-2.12 1.023l-.023.012c-.96.454-1.869 1.047-2.736 1.657-.077.056-.157.11-.235.163a.975.975 0 0 0-.181.17c.517-.092 1.02-.354 1.503-.553.685-.285 1.365-.58 2.045-.878l.544-.239c.536-.229 1.071-.461 1.604-.695.801-.35 1.61-.685 2.407-1.041.551-.246 1.149-.424 1.721-.616.572-.192 1.15-.368 1.729-.542.867-.26 1.73-.527 2.588-.813.153-.05.309-.094.461-.144l-.358.875c-.181.24-3.148 1.248-3.148 1.248-.801.313-1.621.58-2.429.871-.558.201-1.152.324-1.719.499-.524.162-1.042.34-1.551.546a21.16 21.16 0 0 0-2.354 1.15c-.144.08-.287.161-.427.246-.623.314-1.279.664-1.742 1.198-.074.087-.162.204-.167.325.106-.01.225-.059.323-.102.263-.112.522-.232.779-.354.568-.267 1.124-.556 1.688-.828.436-.209.925-.344 1.378-.515.4-.15.799-.306 1.193-.471.698-.291 1.388-.603 2.079-.911.14-.061.279-.125.418-.189 2.78-1.002 5.365-1.887 5.365-1.887l-.443.858c-.135.287-2.577 1.213-2.577 1.213-.69.327-1.431.556-2.165.763-.398.112-.805.162-1.208.25-.42.09-.833.216-1.238.359-.229.081-.456.169-.681.261-.574.233-1.161.418-1.733.653-.46.19-.913.393-1.366.6-.889.407-1.832.666-2.737 1.04-.082.034-.348.134-.207.235.124.091.392-.009.518-.045.508-.143 1.009-.297 1.516-.442.781-.224 1.561-.393 2.315-.7.628-.256 1.248-.534 1.867-.81.162-.071.323-.153.488-.214.816-.298 1.619-.625 2.477-.778.775-.137 1.493-.393 2.221-.681.59-.232 1.174-.474 1.756-.724.044-.02.326-.097.346-.149-.069.199-.486 1.047-.486 1.047-.979.264-6.723 2.669-6.723 2.669-1.367.5-6.042 1.549-6.042 1.549-.457.089-.285.216-.285.216.848.369 4.496-.763 4.496-.763 3.813-.986 8.253-3.071 8.253-3.071-.11.088-.28.704-.28.704-.138.445-.406.622-.406.622-1.044.904-6.677 2.574-6.677 2.574-3.714.869-6.359.384-6.359.384-.465-.146-.223.082-.223.082.474.328 1.118.418 1.676.482.514.06 1.031.08 1.547.078.917-.002 1.84-.006 2.742-.194.799-.169 1.573-.453 2.344-.718.765-.263 1.528-.53 2.272-.853.57-.248 1.129-.521 1.693-.783.243-.113.503-.211.733-.352l.029-.018c-.193.166-.38.819-.38.819-1.903 1.408-5.785 2.293-5.785 2.293-1.179.238-2.406.243-3.598.119a17.622 17.622 0 0 1-2.8-.506 9.293 9.293 0 0 1-.919-.285c-.078-.03-.353-.123-.217.049 5.641 3.657 12.947-.917 12.947-.917-.082.077-.412.988-.412.988-.253.323-.744.506-1.097.683-.521.261-1.056.488-1.589.719-.867.376-1.801.517-2.732.639-.266.034-.533.064-.8.086-.719.06-1.452.097-2.174.071a12.553 12.553 0 0 1-1.606-.184c-.388-.065-.751-.193-1.12-.322-.316-.11-.59-.279-.877-.45-.05-.029-.187-.162-.254-.126-.041.024-.016.066.024.092 5.76 3.55 11.754-.29 11.754-.29l-.58 1.051C4.872 26.596.735 23.89.735 23.89c4.44 3.402 10.482.903 10.482.903l-.387.585c-5.101 1.916-9.149-.285-9.149-.285-.61-.329-.091.096-.091.096 3.623 2.769 8.871.735 8.871.735-3.657 3.096-7.801.504-7.801.504-.604-.396-.476-.222-.476-.222 4.606 3.316 7.958.356 7.958.356s-1.791 4.264 1.156 7.99c0 0-2.115-3.873-.752-8.311 0 0 .374-.358.472-.567 0 0-.207 4.787 1.41 8.638 0 0-1.172-7.232-1.148-8.854l.451-.9s.516 5.551 1.977 8.763c0 0-1.614-6.998-1.513-9.313l.627-1.202s-.005 1.283.263 2.275c.082.624.209 1.244.401 1.844.195.611.471 1.194.656 1.81.197.659.374 1.328.509 2.006.127.636.156 1.271.236 1.911 0 0 .048.646.199.093-.01-.419-.046-.837-.081-1.255-.082-.934-.178-1.866-.383-2.782-.217-.972-.536-1.913-.811-2.869-.252-.874-.481-1.761-.615-2.662-.057-.375-.112-.776-.045-1.155l.424-.914c.058.428.13.854.197 1.281.121.771.272 1.547.462 2.306.154.618.46 1.202.722 1.78.187.407.363.82.549 1.228.219.477.435.953.661 1.426.194.402.387.806.601 1.197.092.169.196.449.368.556.005.003.02.014.025.014 0 0 .209-.076-.043-.506 0 0-3.382-8.13-3.177-9.771 0 0 .366-.94.474-1.099.106.367.21.735.315 1.104.198.695.394 1.393.593 2.089.13.459.251.919.402 1.371.116.345.237.687.361 1.028.168.465.338.928.519 1.387.176.445.358.888.559 1.322.111.239.221.482.367.701.034.052.149.232.221.188.092-.058-.032-.399-.05-.481l-.139-.476c-.114-.389-.231-.778-.347-1.166-.148-.498-.304-.995-.459-1.492a48.834 48.834 0 0 0-.48-1.46 18.998 18.998 0 0 0-.475-1.22c-.306-.703-.607-1.43-.771-2.181a1.899 1.899 0 0 1-.059-.492s-.164-.771-.185-1.023c0 0 .507-.945.545-1.032.041-.084 1.151 4.11 1.545 5.507 0 0 1.087 4.844 1.288 6.95 0 0 .101.985.215.065 0 0 .279-3.446-1.426-9.131 0 0-1.397-3.947-1.265-4.232l.422-.986s.49 1.338.765 2.021c.073.338.168.671.263 1.003.189.659.451 1.298.748 1.916.209.435.44.873.622 1.325.185.463.28.948.429 1.423.063.207.139.414.194.622 0 0 .854 3.174.89 3.397 0 0 .17.982.262.261.02-.158-.028-.355-.044-.513a23.067 23.067 0 0 0-.176-1.334c-.232-1.445-.637-2.841-1.162-4.205-.755-1.96-1.627-3.856-2.197-5.885-.058-.213-.194-.563-.137-.791l.272-.811s1.014 2.83 1.604 4.701c0 0 2.57 7.858 2.809 7.795 0 0 .185.051-.106-.743 0 0-2.585-8.802-2.992-9.72 0 0-1.047-2.534-.917-2.89l.369-.871s.785 2.725 2.02 4.929c.09.163.181.324.27.487.219.4.442.796.663 1.196.283.511.569 1.021.854 1.531.279.5.557.999.84 1.495.229.402.441.808.699 1.192.04.061.148.286.25.205.099-.078-.062-.356-.097-.431-.134-.276-.261-.555-.392-.832-.32-.681-.639-1.361-.956-2.041-.395-.844-.785-1.689-1.176-2.533-.362-.789-.726-1.578-1.076-2.372-.232-.528-.444-1.064-.68-1.59-.245-.548-.523-1.082-.792-1.618l-.077-.151s.291-.629.379-1.039c0 0 1.579 3.405 1.818 4.315l.303.756c.247.619.5 1.237.751 1.854.322.792.648 1.583.977 2.372.319.771.643 1.539.976 2.305.253.582.502 1.164.794 1.729.039.073.114.328.233.316.113-.012.1-.26.094-.334-.021-.265-.188-.559-.287-.807-.1-.246-.188-.496-.286-.743-.258-.656-.504-1.318-.76-1.977-.296-.761-.588-1.524-.882-2.287l-.839-2.171c-.209-.543-.42-1.085-.631-1.629a10.86 10.86 0 0 1-.057-.144s-2.047-3.97-1.848-4.399l.381-.898s2.33 6.357 2.943 7.579c0 0 2.474 5.973 2.825 5.962 0 0 .44.1-.734-2.459 0 0-4.209-10.839-4.658-11.742l.416-1.195c.15.495.313.987.481 1.474.335.97.684 1.94 1.108 2.873.128.28.265.557.405.832.185.362.402.709.553 1.087.069.173.119.354.186.528.215.554.422 1.11.636 1.664.244.631.478 1.267.72 1.9.209.548.413 1.097.618 1.644.111.296.226.59.325.887a.62.62 0 0 0 .013.04l.956 2.805s.604.869-.347-2.696c-.047-.172-.07-.354-.112-.527a35.982 35.982 0 0 0-.344-1.329 32.766 32.766 0 0 0-.619-2.015 24.272 24.272 0 0 0-.934-2.3 50.638 50.638 0 0 0-1.248-2.46c-.38-.711-.718-1.446-1.057-2.178-.326-.708-.656-1.421-.911-2.159-.049-.141-.209-.471-.137-.627l.357-.772c.213.546.444 1.085.678 1.622a30.459 30.459 0 0 0 1.563 3.138c.449.776 1.012 1.488 1.518 2.227.326.476.651.951.985 1.423.403.569.811 1.136 1.232 1.693.367.484.739.969 1.146 1.42.182.201.443.57.735.613.015.002.04.009.054.004 0 0 .164-.131-.698-1.191 0 0-4.832-6.65-5.042-7.546 0 0-2.057-3.801-1.966-4.071l.357-.771c.073.171.147.342.224.512.203.452.409.902.616 1.352.274.599.562 1.191.864 1.776.319.618.636 1.237.974 1.845.427.769.884 1.517 1.49 2.158.194.203.396.401.573.621.093.116.183.236.279.351.307.366.606.738.915 1.104.351.419.704.837 1.062 1.25.313.361.628.721.96 1.066.179.187.37.422.604.543.012.007.025.017.041.021 0 0 .543.252-.185-.503a78.442 78.442 0 0 1-.504-.638c-.407-.522-.815-1.046-1.221-1.572-.512-.661-1.014-1.33-1.516-2.001a44.769 44.769 0 0 1-1.395-1.949 16.07 16.07 0 0 1-1.009-1.707c-.378-.753-.795-1.488-1.182-2.238-.373-.722-.757-1.449-1.054-2.206-.055-.139-.227-.457-.153-.614l.276-.67s2.86 5.735 5.579 8.559c0 0 2.52 3.252 2.909 3.085 0 0 .358.2-.577-.928 0 0-4.908-6.338-5.166-6.978 0 0-2.447-4.155-2.384-4.369l.29-.699s.833 1.498 3.063 4.997l.418.582a89.713 89.713 0 0 0 2.316 3.065c.393.497.796.992 1.227 1.456.146.156.309.291.458.439.107.103.292.324.345.069.069-.346-.397-.589-.561-.837-.287-.434-.62-.834-.918-1.261-.453-.651-.935-1.281-1.391-1.929-.507-.722-1.019-1.439-1.514-2.168a55.068 55.068 0 0 1-1.29-1.981c-.043-.069-.091-.137-.131-.208.007.001-1.25-2.178-1.265-2.395"/><defs><path id="c" d="M22.394.609c-.237.704-1.273.649-1.896.676-.943.043-1.888.008-2.829-.041a64.605 64.605 0 0 1-3.109-.233C13.213.877 11.875.67 10.525.565 9.85.513 9.172.467 8.495.485a7.888 7.888 0 0 0-.343.021c-.48-.061-.464.155-.464.155-.056.098 1.394.363 1.484.376.777.126 1.561.245 2.344.328.504.054 1.005.174 1.505.251.423.063.849.117 1.276.152.79.066 1.583.07 2.375.082a58.72 58.72 0 0 0 2.411.001c.613-.014 1.225-.044 1.838-.063.271-.01.543-.008.813-.036.011 0 .021-.002.031-.003l-.271.685c-.129.099-.378.1-.53.118-.353.044-.709.072-1.064.095-.895.059-1.787.092-2.684.123-.551.019-1.105.053-1.657.045-.347-.003-.704-.086-1.052-.114a9.822 9.822 0 0 0-.876-.027 39.297 39.297 0 0 0-3.653.238c-.474.048-.949.095-1.423.155-.204.027-.406.06-.611.083a.093.093 0 0 1-.024.003c-.937.075-.953.461-.953.461.013.167 4.28-.099 4.28-.099 2.774.106 10.057-.521 10.057-.521l-.513 1.105c-.084.103-.39.113-.507.136-.37.069-.744.12-1.116.172-.912.127-1.826.244-2.741.343-1.345.142-2.705.165-4.053.224a42.573 42.573 0 0 0-3.153.26c-.193.022-.388.035-.579.058-2.677.333-2.877.912-2.877.912.001-.001.051.003.1.005.044.003.089.007.097.006.203-.011.404-.03.605-.05a89.82 89.82 0 0 0 1.645-.174c.3-.034.592-.083.895-.089.137-.001.275.002.412.004.196.004.392.007.588-.001.435-.017.869-.055 1.304-.09.923-.073 1.842-.185 2.764-.286.959-.106 1.918-.235 2.876-.356.773-.098 1.545-.203 2.317-.309.355-.05.717-.09 1.072-.151l.021-.004-.419 1.102c-.103.09-.362.084-.487.102-.353.051-.709.09-1.064.129-.915.1-1.83.184-2.746.264-.511.045-1.022.1-1.533.133-.328.021-.679-.036-1.01-.045a15.335 15.335 0 0 0-1.006.005c-.66.027-1.316.103-1.969.201-.616.092-1.227.197-1.836.314-.464.09-.926.188-1.384.297-.188.045-.376.093-.563.14l-.034.009c-.7.207-.429.425-.429.425-.049.255 3.776-.355 3.776-.355 2.794-.139 10.037-1.132 10.037-1.132l-.349.902c-.127.135-.447.16-.612.189a19.68 19.68 0 0 1-1.257.176c-1.047.119-2.096.195-3.146.274-.852.063-1.707.083-2.56.134-.689.041-1.363.15-2.031.325-.687.181-1.364.405-2.031.649-.517.19-1.027.4-1.532.625-.224.099-.449.199-.668.307l-.025.013c-2.535 1.07-2.424 1.283-2.424 1.283-.079.172 3.098-1.04 3.098-1.04.633-.327 1.353-.514 2.037-.701a55.878 55.878 0 0 1 2.349-.58c.716-.162 1.489-.215 2.222-.237.666-.023 1.327-.043 1.99-.123.673-.082 1.341-.188 2.012-.282a32.758 32.758 0 0 0 1.549-.241c.227-.042.454-.099.684-.128l.025-.004-.369.848c-.076.113-.346.151-.46.179-.337.087-.68.15-1.021.215-.881.163-1.765.295-2.649.423-.465.069-.926.16-1.392.216-.449.056-.89.033-1.341.043-.297.007-.594.02-.891.045-.566.046-1.124.14-1.675.272-.899.216-1.784.507-2.653.818-.168.061-.329.129-.493.198-2.276 1.166-3.272 2.463-3.272 2.463-.306.414.006.187.006.187.563-.582 1.195-1.132 1.898-1.542a6.41 6.41 0 0 1 2.45-.824c.784-.102 1.556-.276 2.334-.414l1.959-.348.387-.068c2.112-.364 6.53-1.254 6.53-1.254l-.326 1.005c-.039.084-.179.132-.256.166a4.98 4.98 0 0 1-.517.191c-.349.114-.697.236-1.056.319-.367.085-.742.09-1.112.156-.24.042-.473.119-.71.173-.295.067-.59.134-.883.205a40.01 40.01 0 0 0-1.762.461 27.22 27.22 0 0 0-3.412 1.231c-.992.438-1.959.938-2.885 1.504-.609.373-1.221.768-1.764 1.234-.058.05-.499.401-.288.436.111.017.292-.095.387-.137.23-.104.455-.22.681-.339.679-.353 1.353-.721 2.037-1.068a37.802 37.802 0 0 1 2.699-1.239 41.12 41.12 0 0 1 3.227-1.154 93.187 93.187 0 0 1 3.608-1.036l1.195-.316c.111-.03.225-.061.339-.084.011-.002.098-.008.105-.016-.057.068-.397.905-.397.905-.092.133-.333.209-.473.265-.317.13-.644.243-.968.352-.792.265-1.597.492-2.401.724-.739.213-1.494.372-2.24.562-.62.16-1.218.39-1.812.626a38.7 38.7 0 0 0-1.841.787 53.39 53.39 0 0 0-2.119 1.024c-.009.003-.016.008-.023.011-.96.455-1.869 1.047-2.737 1.657-.076.056-.156.11-.235.164a.938.938 0 0 0-.181.169c.518-.092 1.021-.354 1.503-.553.686-.285 1.366-.58 2.045-.878.182-.079.363-.16.544-.238.536-.23 1.072-.462 1.605-.696.801-.35 1.609-.685 2.407-1.04.551-.247 1.148-.424 1.721-.617.572-.192 1.15-.368 1.728-.542.867-.26 1.729-.527 2.59-.812.152-.051.308-.095.461-.145l-.359.875c-.181.241-3.147 1.248-3.147 1.248-.801.314-1.621.58-2.43.871-.558.202-1.152.325-1.719.5-.523.162-1.041.339-1.55.545-.81.328-1.593.724-2.355 1.151a11.21 11.21 0 0 0-.426.246c-.623.313-1.28.664-1.743 1.197-.074.087-.162.204-.166.325.106-.009.224-.06.323-.102.263-.112.521-.232.779-.354.567-.266 1.124-.556 1.688-.828.435-.209.924-.344 1.378-.515.4-.15.798-.306 1.193-.47.698-.291 1.388-.604 2.079-.911.14-.062.278-.125.418-.19 2.779-1.002 5.364-1.886 5.364-1.886l-.443.857c-.134.286-2.578 1.213-2.578 1.213-.69.328-1.43.556-2.164.764-.399.111-.805.162-1.209.249-.419.09-.832.216-1.237.36-.229.081-.457.168-.682.26-.574.233-1.161.419-1.733.654-.46.19-.913.393-1.365.6-.89.407-1.832.666-2.737 1.04-.082.034-.348.134-.207.236.124.089.391-.01.517-.046.508-.143 1.01-.297 1.517-.442.78-.224 1.56-.393 2.314-.7.628-.256 1.248-.534 1.867-.81.163-.071.324-.154.489-.215.815-.298 1.619-.626 2.477-.778.775-.137 1.493-.393 2.221-.681a56.84 56.84 0 0 0 1.756-.724c.044-.019.327-.097.345-.149-.068.199-.486 1.048-.486 1.048-.978.263-6.723 2.668-6.723 2.668-1.367.499-6.041 1.549-6.041 1.549-.458.089-.286.216-.286.216.848.369 4.497-.763 4.497-.763 3.813-.986 8.253-3.072 8.253-3.072-.111.088-.281.705-.281.705-.138.444-.405.623-.405.623-1.044.904-6.678 2.573-6.678 2.573-3.714.87-6.359.384-6.359.384-.464-.145-.223.083-.223.083.474.326 1.118.417 1.677.481.514.061 1.03.08 1.547.078.917-.002 1.84-.006 2.742-.195.799-.167 1.573-.452 2.344-.717.764-.263 1.528-.53 2.271-.852.57-.249 1.129-.522 1.693-.784.243-.113.503-.211.734-.352l.028-.018c-.192.166-.38.82-.38.82-1.903 1.406-5.785 2.292-5.785 2.292-1.178.237-2.405.244-3.598.12-.941-.1-1.885-.259-2.799-.507-.311-.085-.619-.169-.919-.284-.062-.023-.249-.087-.255-.025v.006c.001.016.013.038.037.069 5.642 3.657 12.947-.917 12.947-.917-.082.077-.412.987-.412.987-.253.324-.743.507-1.096.684-.521.261-1.056.488-1.589.719-.867.376-1.801.516-2.733.638-.265.036-.532.065-.8.087-.718.06-1.452.097-2.174.071a12.553 12.553 0 0 1-1.606-.184c-.388-.065-.751-.193-1.12-.322-.315-.111-.59-.28-.877-.449-.05-.031-.186-.164-.254-.126-.041.024-.015.065.024.091 5.76 3.551 11.754-.291 11.754-.291l-.579 1.053C4.872 26.598.734 23.892.734 23.892c4.441 3.403 10.483.903 10.483.903l-.387.585c-5.101 1.916-9.15-.285-9.15-.285-.61-.329-.091.096-.091.096 3.624 2.769 8.872.735 8.872.735-3.657 3.096-7.801.503-7.801.503-.604-.395-.477-.222-.477-.222 4.607 3.317 7.958.357 7.958.357s-1.791 4.263 1.157 7.989c0 0-2.115-3.873-.752-8.311 0 0 .374-.358.472-.567 0 0-.207 4.788 1.409 8.639 0 0-1.172-7.233-1.148-8.854l.452-.901s.516 5.552 1.977 8.764c0 0-1.615-6.999-1.514-9.313l.627-1.202s-.005 1.284.264 2.275c.082.624.209 1.244.401 1.844.195.611.471 1.195.656 1.809.197.661.373 1.33.508 2.008.127.635.157 1.271.237 1.909 0 0 .048.647.199.094-.01-.419-.045-.836-.081-1.256-.081-.933-.179-1.864-.383-2.781-.218-.973-.536-1.913-.811-2.869-.252-.874-.481-1.761-.616-2.662-.057-.375-.111-.777-.045-1.155l.424-.914c.058.428.131.854.198 1.281.12.772.272 1.548.462 2.305.153.62.459 1.204.722 1.781.187.407.362.82.549 1.228.219.477.435.952.662 1.426.193.401.386.806.599 1.198.093.168.197.448.369.555.005.003.02.014.025.014 0 0 .209-.076-.043-.506 0 0-3.382-8.13-3.177-9.771 0 0 .366-.94.475-1.1.106.368.21.736.314 1.106.198.693.395 1.392.593 2.089.13.459.252.918.402 1.37.116.345.237.688.361 1.028.168.465.338.928.518 1.387.178.444.359.888.561 1.322.111.238.219.482.366.702.034.051.149.231.221.187.091-.058-.033-.399-.05-.48l-.138-.476c-.115-.39-.231-.779-.348-1.167a91.305 91.305 0 0 0-.459-1.492c-.155-.488-.31-.977-.479-1.46a18.765 18.765 0 0 0-.477-1.219c-.304-.704-.605-1.432-.771-2.182a1.94 1.94 0 0 1-.059-.491s-.163-.771-.185-1.024c0 0 .508-.945.547-1.031.041-.086 1.151 4.109 1.544 5.507 0 0 1.087 4.844 1.289 6.951 0 0 .1.984.214.065 0 0 .279-3.448-1.425-9.132 0 0-1.398-3.947-1.265-4.232l.421-.985s.489 1.337.765 2.02c.073.338.168.671.263 1.003.189.66.451 1.298.748 1.916.208.435.44.873.621 1.325.186.463.282.948.431 1.423.063.207.138.414.192.622 0 0 .855 3.174.891 3.397 0 0 .17.982.262.261.019-.158-.028-.355-.044-.513a24.256 24.256 0 0 0-.175-1.335c-.233-1.444-.639-2.84-1.163-4.204-.754-1.961-1.626-3.856-2.196-5.886-.059-.213-.195-.563-.138-.792l.272-.81s1.013 2.83 1.605 4.702c0 0 2.569 7.858 2.808 7.795 0 0 .184.051-.106-.743 0 0-2.585-8.801-2.992-9.72 0 0-1.047-2.534-.917-2.89l.37-.871s.783 2.726 2.019 4.93l.269.487c.22.399.443.795.664 1.195.282.511.569 1.021.854 1.532.279.499.557.999.84 1.495.229.401.441.807.699 1.191.04.061.147.286.25.205.099-.077-.062-.355-.096-.431-.135-.276-.262-.555-.394-.831l-.955-2.042c-.395-.844-.785-1.688-1.175-2.533-.363-.789-.726-1.578-1.077-2.372-.231-.527-.445-1.063-.68-1.59-.244-.548-.524-1.082-.792-1.618-.025-.05-.052-.1-.076-.151 0 0 .291-.629.378-1.039 0 0 1.58 3.406 1.818 4.315l.304.757c.247.618.499 1.236.751 1.853.321.793.648 1.584.975 2.373.32.77.644 1.539.977 2.305.253.582.502 1.164.795 1.729.038.073.113.327.232.316.113-.012.1-.259.094-.334-.021-.265-.188-.559-.287-.807-.101-.246-.188-.495-.285-.743-.259-.656-.505-1.319-.761-1.977-.296-.761-.587-1.524-.882-2.286l-.839-2.171c-.209-.544-.421-1.086-.631-1.629a8.634 8.634 0 0 1-.056-.145s-2.048-3.97-1.849-4.398l.381-.899s2.33 6.358 2.943 7.579c0 0 2.474 5.973 2.825 5.962 0 0 .44.1-.733-2.459 0 0-4.21-10.839-4.659-11.742l.416-1.195c.149.495.313.987.48 1.475.335.969.685 1.939 1.11 2.872.128.28.264.557.404.832.185.362.402.709.554 1.087.068.173.118.354.184.529.215.553.422 1.109.638 1.663.242.632.476 1.267.719 1.901.21.547.413 1.096.618 1.644.11.294.226.589.326.886a.252.252 0 0 0 .012.039l.956 2.806s.604.869-.347-2.696c-.047-.172-.07-.354-.112-.527a34.106 34.106 0 0 0-.345-1.329 32.313 32.313 0 0 0-.618-2.016 24.272 24.272 0 0 0-.934-2.3 50.198 50.198 0 0 0-1.248-2.46c-.38-.711-.718-1.445-1.056-2.178-.327-.707-.657-1.421-.912-2.159-.049-.14-.209-.471-.137-.626l.357-.773c.213.547.444 1.086.678 1.623.464 1.067.979 2.13 1.563 3.137.45.775 1.011 1.489 1.518 2.227.326.476.651.951.984 1.423.405.569.812 1.137 1.234 1.693.367.485.738.969 1.145 1.42.183.202.445.571.737.613.014.003.04.009.052.005 0 0 .164-.132-.698-1.192 0 0-4.831-6.649-5.042-7.546 0 0-2.056-3.8-1.965-4.07l.357-.772c.073.171.147.342.224.511.203.453.409.903.616 1.353.274.599.561 1.191.864 1.776.318.618.636 1.237.973 1.846.427.768.884 1.516 1.492 2.157.193.203.396.402.572.621.094.116.183.236.278.351.308.366.608.738.916 1.104.352.419.703.837 1.063 1.25.312.361.628.721.959 1.066.179.187.37.422.604.544.012.006.026.016.04.02 0 0 .544.252-.184-.503-.168-.212-.337-.424-.504-.638-.407-.522-.816-1.046-1.222-1.572-.512-.662-1.013-1.33-1.515-2.001a43.109 43.109 0 0 1-1.394-1.949 16.08 16.08 0 0 1-1.01-1.707c-.378-.753-.796-1.487-1.182-2.238-.373-.723-.756-1.449-1.054-2.206-.056-.138-.228-.457-.153-.614l.277-.67s2.859 5.736 5.579 8.559c0 0 2.519 3.252 2.907 3.085 0 0 .359.2-.576-.928 0 0-4.908-6.338-5.166-6.978 0 0-2.447-4.155-2.385-4.369l.29-.699s.834 1.498 3.064 4.997c.138.196.28.388.419.582a83.636 83.636 0 0 0 2.315 3.066c.394.496.796.991 1.228 1.455.145.156.307.291.458.44.107.103.292.324.343.069.07-.347-.396-.59-.56-.837-.287-.435-.619-.834-.918-1.262-.453-.651-.935-1.281-1.392-1.929-.506-.721-1.017-1.439-1.513-2.168a54.194 54.194 0 0 1-1.29-1.981c-.043-.069-.09-.137-.13-.208 0 0-1.258-2.179-1.273-2.396-.026-.363-.377-.475-.293-.83.051-.199.305-.567.081-.739A.193.193 0 0 0 22.793 0c-.221 0-.346.45-.399.609"/></defs><clipPath id="d"><use xlink:href="#c" overflow="visible"/></clipPath><path clip-path="url(#d)" fill="#e9e8e8" d="M11.807 23.424S8.3 25.895 4.052 24.949c-4.249-.946-.057-.026-.057-.026s3.648.667 7.581-1.676c0 0 .737-.353.699-.195-.001 0-.025.162-.468.372m-.599 1.389s-2.834.959-4.477.944c0 0 3.978-.928 4.667-1.18 0 .001.241.007-.19.236m-.793 1.136s-2.454 1.125-5.193.706c0 0 3.388-.009 5.309-.854 0 .001.107.044-.116.148m-.273.614s-.936.672-1.406.714c0 0 1.18-.563 1.486-.925l-.08.211zm.009.243s-.337.764-.319 1.362c0 0 .248-.909.417-1.386l-.098.024zm1.16 3.541s-.741-2.809-.302-4.653c0 0 .028-.034.165-.132-.001 0-.267 3.26.137 4.785m.38-4.841s.493 4.065.97 4.911c0 0-.109-.779-.229-1.755 0 0-.592-3.827-.514-4.33l-.187.227-.04.947zm2.812 5.018c-.311-1.036-.62-2.073-.933-3.108l-.191-.634c-.037-.121-.196-.445-.166-.553.018-.065.059-.055.07-.076.055-.101.077-.264.115-.391.122-.008.265.934.286 1.104.052.432.076.867.226 1.28.065.176.128.342.188.52.142.433.26.853.361 1.302.033.153.19.503.031.619l.013-.063zm2.758-5.511c-.178-.8-.356-1.6-.536-2.398l-.11-.489c-.021-.093-.121-.341-.096-.426.016-.053.045-.045.054-.063.042-.081.065-.21.098-.313.087-.009.151.722.159.854.02.338.017.678.108.995.038.135.077.263.111.399.084.334.15.657.204 1.005.018.119.114.388-.003.486l.011-.05zm1.863-1.49c-.33-.75-.66-1.5-.991-2.248l-.203-.459c-.039-.088-.185-.311-.176-.399.005-.055.034-.053.04-.072.026-.088.023-.218.035-.324.083-.027.288.679.32.807.085.326.149.66.3.954.063.125.127.243.187.37.147.312.276.616.396.947.04.113.188.356.091.477l.001-.053zm.621-.752a906.21 906.21 0 0 0-.848-2.307l-.175-.47c-.033-.09-.165-.321-.15-.411.009-.053.038-.049.045-.067.031-.087.037-.217.056-.321.085-.021.244.694.27.824.063.331.106.668.238.972a10.15 10.15 0 0 1 .498 1.352c.033.114.165.367.062.48l.004-.052zm1.649-1.988c-.4-.714-.802-1.428-1.205-2.141-.081-.146-.164-.292-.246-.437-.048-.084-.215-.291-.215-.381 0-.055.029-.056.033-.075.018-.09.002-.22.005-.326.079-.036.352.646.396.771.117.317.212.643.391.921.076.118.15.229.224.351.177.295.334.586.484.903.051.108.221.338.137.465l-.004-.051zm-.102-2.55c-.31-.759-.616-1.518-.926-2.276l-.189-.464c-.037-.089-.177-.316-.165-.405.007-.053.036-.051.042-.071.029-.086.03-.217.046-.322.084-.025.268.685.296.814.076.329.131.665.272.963.061.127.119.247.176.376.138.315.258.623.367.958.037.114.177.363.077.479l.004-.052zm.483-2.24c-.31-.76-.616-1.519-.926-2.276l-.189-.464c-.037-.089-.176-.316-.165-.406.007-.053.036-.051.042-.07.029-.087.03-.217.046-.323.084-.024.268.686.296.815.077.329.131.665.272.963.061.127.12.247.176.376.138.315.259.623.368.958.036.114.177.363.077.479l.003-.052zm.772-1.777l-.925-2.277-.19-.463c-.036-.089-.176-.316-.165-.406.008-.052.037-.051.043-.07.029-.087.03-.217.045-.322.084-.025.269.685.297.814.076.329.13.665.271.963.061.126.12.247.177.376.139.315.258.623.367.958.036.114.177.363.077.479l.003-.052z"/><path clip-path="url(#d)" fill="#e9e8e8" d="M12.931 21.399s-4.356 2.557-6.288 2.304c0 0 3.402-.835 6.457-2.596l-.169.292zm1.363 3.713c-.062-.206-.348-1.009-.159-1.161.093.104.052.321.198.382.009-.021.028-.044.036-.065.072.073.081.21.109.313.06.225.121.453.195.674.19.563.403 1.125.633 1.667.124.291.267.569.4.851.041.086.252.472-.011.375.001.001.09.35.084.381-.181-.086-.294-.5-.38-.677-.142-.296-.28-.595-.414-.896a16.232 16.232 0 0 1-.691-1.844m1.125-1.5c-.054-.207-.312-1.021-.115-1.166.088.108.039.323.184.389.01-.021.029-.042.037-.063.071.076.074.213.098.316.053.226.105.457.171.681.169.569.361 1.139.571 1.688.113.296.245.578.368.865.039.087.235.479-.024.374.002.001.078.353.07.384-.177-.093-.276-.511-.354-.689a34.328 34.328 0 0 1-.38-.911 15.997 15.997 0 0 1-.626-1.868m-1.693-3.857l-.004.002c-.065.034-.146.055-.216.085-.285.124-.57.252-.855.375-.757.328-1.511.663-2.274.979-.281.116-.563.239-.852.336.442-.215.888-.427 1.33-.643.772-.378 1.568-.716 2.339-1.096.167-.081.325-.222.519-.233.199-.011.104.146.013.195m.965-2.121l-.003.003c-.066.033-.147.054-.217.084-.285.124-.569.252-.854.375-.758.328-1.512.663-2.274.979-.282.117-.563.24-.853.336.442-.215.888-.426 1.33-.643.773-.378 1.568-.716 2.34-1.095.167-.083.324-.223.517-.234.201-.011.106.146.014.195m.81-1.585l-.003.002c-.064.029-.146.047-.213.072-.281.108-.561.217-.843.324-.745.283-1.486.572-2.238.843-.277.101-.554.207-.84.287.436-.186.872-.37 1.307-.558.76-.33 1.543-.62 2.301-.951.163-.072.315-.199.509-.203.2-.003.11.141.02.184m.752-1.73l-.002.001c-.057.025-.124.04-.183.061-.238.091-.477.186-.715.276-.634.24-1.266.486-1.904.717-.236.086-.471.175-.715.245.371-.159.742-.316 1.111-.476.646-.28 1.313-.527 1.957-.808.138-.062.268-.168.433-.172.17-.004.095.119.018.156m.753-1.634l-.002.001c-.059.02-.127.028-.186.045-.248.069-.492.141-.738.21-.652.183-1.303.372-1.959.545-.242.064-.485.134-.734.18.383-.126.767-.248 1.149-.375.668-.221 1.354-.408 2.02-.631.145-.048.284-.144.448-.132.169.011.083.126.002.157m.732-1.698l-.002.001c-.06.018-.129.023-.188.038-.249.059-.497.121-.746.18-.659.156-1.316.318-1.979.465-.244.054-.49.113-.74.149.387-.108.777-.216 1.164-.327.676-.194 1.368-.353 2.044-.548.146-.043.288-.133.452-.115.167.019.077.131-.005.157m.679-1.651h-.003c-.06.015-.128.016-.189.026-.252.044-.503.092-.755.135-.668.116-1.334.238-2.004.345-.248.038-.497.082-.749.103.394-.085.788-.169 1.181-.255.688-.154 1.389-.269 2.074-.424.148-.034.296-.115.458-.087.167.028.07.136-.013.157m.686-1.529l-.003.001c-.06.013-.129.013-.19.021-.253.037-.505.078-.758.115-.671.097-1.341.201-2.014.289-.248.032-.498.07-.75.084.396-.074.792-.148 1.188-.224.691-.134 1.395-.232 2.084-.368.149-.029.298-.106.461-.073.165.032.065.136-.018.155m.553-1.498l-.003.001c-.06.007-.13.002-.19.006-.255.018-.511.039-.766.056-.676.048-1.351.101-2.029.137-.25.015-.502.032-.755.029.4-.045.801-.088 1.201-.135.7-.081 1.408-.125 2.105-.209.151-.019.308-.083.466-.039.164.046.056.139-.029.154m.665-1.598l-.003.001c-.069.015-.15.013-.222.022-.294.041-.587.085-.88.124-.778.108-1.555.221-2.335.316-.289.035-.579.076-.87.09.461-.083.922-.163 1.382-.248.804-.149 1.618-.254 2.422-.405.174-.033.352-.121.535-.081.19.04.068.16-.029.181m.84-1.752h-.003c-.069.012-.15.008-.222.015-.295.028-.589.06-.884.089-.564.054-1.129.113-1.694.165-.519.047-1.005.136-1.53.145-.212.004-.427.018-.638-.001-.101-.008-.235.004-.322-.044.06-.115.412-.062.531-.067.253-.01.517-.012.771-.051.26-.04.516-.093.778-.122.27-.03.534.005.801-.012.636-.04 1.282-.145 1.911-.237.176-.026.355-.107.539-.061.187.049.061.163-.038.181M21.7 1.61l-.004.001c-.069.007-.15.001-.221.005-.297.015-.592.036-.888.053-.566.031-1.133.066-1.701.095-.52.028-1.007.096-1.533.083-.214-.005-.427.001-.638-.026-.1-.012-.235-.006-.32-.058.064-.112.415-.045.533-.045.253 0 .518.009.772-.019.261-.029.52-.072.783-.091.271-.019.533.027.801.022.636-.015 1.286-.093 1.919-.161.176-.018.359-.091.54-.038.186.056.055.164-.043.179m.922 9.119c-.103-.275-.221-.553-.334-.824-.062-.147-.172-.329-.112-.488.118.09.231.369.3.505.1.196.188.391.271.593.109.272.256.535.419.776.136.203.382.379.396.641.014.2-.099.115-.173.003-.137-.211-.311-.373-.456-.566-.139-.181-.232-.427-.311-.64m.656-1.189c-.104-.275-.222-.552-.335-.823-.062-.148-.171-.33-.112-.489.119.09.232.37.301.505.099.197.188.392.27.594.108.271.256.534.419.776.136.202.382.378.396.641.013.2-.1.115-.174.002-.137-.21-.311-.373-.456-.565-.138-.183-.231-.428-.309-.641m1.273-1.162c-.149-.3-.317-.598-.479-.891-.087-.159-.233-.35-.188-.541.146.086.308.386.399.532.137.209.261.418.379.637.157.293.354.573.567.825.176.209.475.374.524.67.039.228-.098.149-.193.031-.18-.22-.396-.379-.582-.578-.176-.187-.312-.455-.427-.685m.818-1.565c-.17-.29-.358-.576-.538-.857-.098-.154-.257-.334-.225-.528.15.075.33.365.436.504.148.199.287.4.419.61.177.283.39.548.62.786.191.196.499.341.569.633.054.225-.089.155-.192.043-.194-.207-.419-.351-.619-.537-.188-.175-.341-.431-.47-.654"/></svg>