<svg xmlns="http://www.w3.org/2000/svg" width="142.945" height="233.5" viewBox="184.528 86 142.945 233.5"><path fill="#FFF" d="M324.096 137.645c-.739-2.768-2.238-5.718-3.349-8.3C307.47 97.436 278.459 86 255.034 86c-31.358 0-65.896 21.027-70.507 64.369v8.855c0 .37.127 3.689.308 5.35 2.585 20.656 18.884 42.608 31.057 63.264 13.096 22.13 26.685 43.901 40.148 65.662 8.302-14.2 16.573-28.589 24.686-42.421 2.212-4.06 4.778-8.117 6.991-11.992 1.475-2.58 4.293-5.16 5.581-7.561 13.096-23.977 34.175-48.138 34.175-71.932v-9.775c0-2.581-3.197-11.618-3.377-12.174zm-68.487 44.452c-9.218 0-19.308-4.609-24.288-17.338-.742-2.026-.682-6.087-.682-6.458v-5.718c0-16.227 13.778-23.606 25.765-23.606 14.757 0 26.169 11.806 26.169 26.563s-12.208 26.557-26.964 26.557zm-71.081 122.337h142.945v12.445H184.528z"/></svg>