<svg xmlns="http://www.w3.org/2000/svg" xmlns:xlink="http://www.w3.org/1999/xlink" width="30" height="52.5" viewBox="0 0 30 52.5"><defs><path id="a" d="M0 0h30v52.5H0z"/></defs><clipPath id="b"><use xlink:href="#a" overflow="visible"/></clipPath><path clip-path="url(#b)" fill="none" stroke="#FFF" stroke-width="3" stroke-miterlimit="10" d="M23.166 51H6.834C3.9 51 1.5 48.6 1.5 45.666V6.834C1.5 3.9 3.9 1.5 6.834 1.5h16.332C26.1 1.5 28.5 3.9 28.5 6.834v38.832C28.5 48.6 26.1 51 23.166 51zM1.333 10h27.333M1.667 41.166h26.667M12.25 5.75h5.5"/><path clip-path="url(#b)" fill="#FFF" d="M12.149 45.916a2.851 2.851 0 1 0 5.703.001 2.851 2.851 0 0 0-5.703-.001"/></svg>