<svg xmlns="http://www.w3.org/2000/svg" width="230.938" height="459.544" viewBox="111.031 0 230.938 459.544"><path fill="#52B8E9" d="M312.291 0H140.708c-16.422 0-29.678 13.315-29.678 29.707v348.429c0 16.376 13.256 29.677 29.678 29.677h171.583c16.393 0 29.678-13.301 29.678-29.677V29.707C341.969 13.315 328.684 0 312.291 0zm-128.13 18.041h84.707c2.14 0 3.878 3.195 3.878 7.148s-1.738 7.163-3.878 7.163h-84.707c-2.155 0-3.864-3.21-3.864-7.163 0-3.953 1.709-7.148 3.864-7.148zm42.354 360.45c-10.447 0-18.947-8.5-18.947-18.962s8.5-18.933 18.947-18.933c10.417 0 18.918 8.471 18.918 18.933s-8.501 18.962-18.918 18.962zm93.222-64.927H133.278V50.125h186.459v263.439zM111.031 440.505h230.938v19.039H111.031z"/></svg>